{"glyphs":{"0":{"ha":1018,"x_min":75,"x_max":943,"o":"m 510 -31 q 283 36 382 -31 q 130 222 185 103 q 75 492 75 340 q 130 763 75 643 q 283 949 185 882 q 510 1015 382 1015 q 736 949 638 1015 q 889 763 835 882 q 943 492 943 643 q 888 222 943 340 q 735 36 833 103 q 510 -31 638 -31 m 510 121 q 647 168 588 121 q 738 299 706 215 q 769 492 769 383 q 738 685 769 600 q 647 817 706 769 q 510 864 588 864 q 373 817 432 864 q 282 685 314 769 q 250 492 250 600 q 282 299 250 383 q 373 168 314 215 q 510 121 432 121 z "},"1":{"ha":582,"x_min":50,"x_max":463,"o":"m 290 765 l 276 765 l 50 594 l 50 782 l 319 983 l 463 983 l 463 0 l 290 0 l 290 765 z "},"2":{"ha":846,"x_min":75,"x_max":794,"o":"m 75 93 l 486 478 q 540 529 494 486 q 606 612 585 572 q 626 690 626 651 q 574 817 626 767 q 444 868 521 868 q 301 805 358 868 q 239 643 243 742 l 76 643 q 124 834 76 749 q 255 967 171 919 q 444 1015 339 1015 q 624 975 544 1015 q 748 865 703 935 q 793 706 793 794 q 747 552 794 625 q 593 381 699 479 l 347 156 l 347 142 l 775 142 l 775 0 l 75 0 l 75 93 z "},"3":{"ha":846,"x_min":44,"x_max":797,"o":"m 426 -31 q 236 17 322 -31 q 99 150 150 65 q 44 340 49 235 l 213 340 q 240 224 213 276 q 317 142 268 172 q 424 113 365 113 q 570 165 513 113 q 628 299 628 218 q 569 434 628 381 q 422 488 511 488 q 375 483 400 488 q 335 471 350 478 l 290 583 l 522 828 l 522 842 l 103 842 l 103 983 l 761 983 l 761 875 l 507 607 q 655 553 589 596 q 759 442 721 510 q 797 292 797 374 q 749 126 797 199 q 617 11 701 53 q 426 -31 533 -31 z "},"4":{"ha":869,"x_min":36,"x_max":808,"o":"m 515 208 l 36 208 l 36 311 l 433 983 l 690 983 l 690 350 l 808 350 l 808 208 l 690 208 l 690 0 l 515 0 l 515 208 m 514 350 l 514 824 l 500 824 l 224 350 l 514 350 z "},"5":{"ha":881,"x_min":64,"x_max":814,"o":"m 446 -31 q 256 17 342 -31 q 119 149 169 65 q 64 338 68 232 l 232 338 q 260 224 232 275 q 336 142 288 172 q 443 113 385 113 q 590 166 532 113 q 647 300 647 219 q 586 441 647 388 q 419 494 525 494 l 143 494 l 193 983 l 736 983 l 736 842 l 326 842 l 306 629 l 453 629 q 643 587 561 629 q 769 469 725 544 q 814 300 814 394 q 767 129 814 204 q 635 12 719 54 q 446 -31 551 -31 z "},"6":{"ha":894,"x_min":61,"x_max":835,"o":"m 447 -31 q 248 13 336 -31 q 110 131 160 56 q 61 299 61 207 q 88 429 61 360 q 168 571 115 499 l 478 983 l 679 985 l 403 617 q 499 633 446 633 q 672 592 596 633 q 792 478 749 551 q 835 313 835 404 q 785 135 835 213 q 648 13 736 57 q 447 -31 560 -31 m 449 117 q 601 171 542 117 q 660 313 660 225 q 600 449 660 396 q 449 503 540 503 q 295 449 356 503 q 235 313 235 394 q 295 172 235 226 q 449 117 356 117 z "},"7":{"ha":733,"x_min":26,"x_max":707,"o":"m 506 838 l 26 838 l 26 983 l 707 983 l 707 882 l 340 0 l 154 0 l 506 838 z "},"8":{"ha":919,"x_min":72,"x_max":847,"o":"m 461 -31 q 259 7 347 -31 q 122 111 171 44 q 72 263 72 178 q 128 425 72 356 q 271 514 183 494 l 271 528 q 159 613 204 553 q 114 747 114 674 q 158 888 114 826 q 281 983 203 949 q 461 1017 360 1017 q 640 983 561 1017 q 762 887 718 949 q 806 747 806 825 q 761 613 806 672 q 650 528 717 553 l 650 514 q 792 425 738 494 q 847 263 847 356 q 798 111 847 178 q 661 7 749 44 q 461 -31 574 -31 m 461 581 q 588 622 538 581 q 638 726 638 663 q 588 831 638 790 q 461 872 538 872 q 333 831 383 872 q 283 726 283 790 q 333 622 283 663 q 461 581 383 581 m 461 114 q 606 161 549 114 q 663 282 663 208 q 606 401 663 354 q 461 449 549 449 q 316 402 372 449 q 260 282 260 356 q 316 161 260 208 q 461 114 372 114 z "},"9":{"ha":893,"x_min":60,"x_max":833,"o":"m 447 1017 q 645 973 557 1017 q 783 854 733 929 q 833 688 833 779 q 806 556 833 625 q 726 415 779 486 l 418 1 l 215 1 l 492 369 q 396 353 449 353 q 222 394 299 353 q 103 508 146 435 q 60 674 60 581 q 109 851 60 774 q 247 973 158 929 q 447 1017 335 1017 m 444 869 q 294 815 353 869 q 235 674 235 760 q 294 537 235 590 q 444 483 353 483 q 598 538 538 483 q 658 674 658 592 q 598 815 658 760 q 444 869 538 869 z "},"\u0000":{"ha":1021,"x_min":121,"x_max":901,"o":"m 121 983 l 901 983 l 901 0 l 121 0 l 121 983 m 760 122 l 760 861 l 260 861 l 260 122 l 760 122 z "},"\r":{"ha":42,"x_min":0,"x_max":0,"o":""}," ":{"ha":344,"x_min":0,"x_max":0,"o":""},"A":{"ha":1022,"x_min":36,"x_max":986,"o":"m 390 983 l 636 983 l 986 0 l 814 0 l 742 199 l 281 199 l 207 0 l 36 0 l 390 983 m 699 333 l 519 833 l 506 833 l 325 333 l 699 333 z "},"B":{"ha":985,"x_min":119,"x_max":924,"o":"m 119 983 l 568 983 q 738 949 664 983 q 854 855 813 915 q 896 717 896 794 q 856 590 896 647 q 756 514 817 533 l 756 500 q 876 416 829 479 q 924 274 924 353 q 879 132 924 194 q 756 35 835 69 q 575 0 676 0 l 119 0 l 119 983 m 540 571 q 669 608 619 571 q 719 706 719 646 q 669 803 719 765 q 540 842 619 842 l 294 842 l 294 571 l 540 571 m 544 142 q 690 183 633 142 q 747 290 747 225 q 690 395 747 354 q 544 436 633 436 l 294 436 l 294 142 l 544 142 z "},"C":{"ha":1118,"x_min":63,"x_max":1054,"o":"m 579 -31 q 313 36 431 -31 q 129 222 196 103 q 63 492 63 340 q 129 762 63 643 q 313 948 196 881 q 578 1015 431 1015 q 792 968 692 1015 q 963 838 893 921 q 1054 650 1032 756 l 886 629 q 826 751 871 697 q 716 836 781 806 q 581 867 651 867 q 403 819 482 867 q 281 685 325 771 q 238 492 238 600 q 282 299 238 383 q 404 166 326 214 q 581 118 482 118 q 774 183 688 118 q 888 346 861 247 l 1053 319 q 963 139 1032 218 q 794 15 894 60 q 579 -31 694 -31 z "},"D":{"ha":1090,"x_min":119,"x_max":1028,"o":"m 119 983 l 458 983 q 757 922 628 983 q 957 749 886 861 q 1028 492 1028 638 q 957 234 1028 346 q 757 61 886 122 q 458 0 628 0 l 119 0 l 119 983 m 458 144 q 666 187 576 144 q 805 308 756 229 q 854 492 854 386 q 805 676 854 597 q 666 798 756 756 q 458 840 576 840 l 292 840 l 292 144 l 458 144 z "},"E":{"ha":893,"x_min":119,"x_max":831,"o":"m 119 983 l 817 983 l 817 838 l 293 838 l 293 575 l 768 575 l 768 438 l 293 438 l 293 147 l 831 147 l 831 0 l 119 0 l 119 983 z "},"F":{"ha":821,"x_min":119,"x_max":781,"o":"m 119 983 l 781 983 l 781 832 l 294 832 l 294 569 l 724 569 l 724 425 l 294 425 l 294 0 l 119 0 l 119 983 z "},"G":{"ha":1181,"x_min":63,"x_max":1118,"o":"m 600 -32 q 324 35 446 -32 q 132 222 201 103 q 63 492 63 342 q 131 762 63 643 q 323 948 200 881 q 600 1015 446 1015 q 799 978 704 1015 q 960 876 893 942 q 1054 728 1028 810 l 893 685 q 783 815 867 764 q 600 867 700 867 q 413 819 496 867 q 284 685 331 771 q 238 492 238 600 q 285 299 238 385 q 415 165 332 214 q 603 117 499 117 q 772 156 694 117 q 895 265 849 196 q 944 418 942 333 l 501 418 l 501 551 l 1115 551 q 1118 493 1118 513 q 1053 221 1118 340 q 869 35 988 101 q 600 -32 751 -32 z "},"H":{"ha":1061,"x_min":119,"x_max":943,"o":"m 119 983 l 293 983 l 293 585 l 768 585 l 768 983 l 943 983 l 943 0 l 768 0 l 768 439 l 293 439 l 293 0 l 119 0 l 119 983 z "},"I":{"ha":414,"x_min":119,"x_max":294,"o":"m 119 983 l 294 983 l 294 0 l 119 0 l 119 983 z "},"J":{"ha":665,"x_min":51,"x_max":553,"o":"m 239 -25 q 144 -17 196 -25 q 51 3 92 -10 l 51 143 q 196 121 135 121 q 327 174 276 121 q 378 313 378 226 l 378 983 l 553 983 l 553 304 q 513 133 553 208 q 401 17 472 58 q 239 -25 329 -25 z "},"K":{"ha":919,"x_min":119,"x_max":896,"o":"m 119 983 l 294 983 l 294 567 l 308 567 l 672 983 l 885 983 l 458 508 l 896 0 l 683 0 l 308 447 l 294 447 l 294 0 l 119 0 l 119 983 z "},"L":{"ha":806,"x_min":119,"x_max":767,"o":"m 119 983 l 294 983 l 294 151 l 767 151 l 767 0 l 119 0 l 119 983 z "},"M":{"ha":1350,"x_min":119,"x_max":1231,"o":"m 119 983 l 375 983 l 667 229 l 681 229 l 972 983 l 1231 983 l 1231 0 l 1058 0 l 1058 757 l 1044 757 l 750 0 l 597 0 l 306 756 l 292 756 l 292 0 l 119 0 l 119 983 z "},"N":{"ha":1065,"x_min":119,"x_max":946,"o":"m 119 983 l 344 983 l 763 228 l 776 228 l 776 983 l 946 983 l 946 0 l 722 0 l 304 756 l 290 756 l 290 0 l 119 0 l 119 983 z "},"O":{"ha":1199,"x_min":63,"x_max":1136,"o":"m 600 -31 q 321 35 443 -31 q 131 220 199 101 q 63 492 63 339 q 131 764 63 644 q 321 949 199 883 q 600 1015 443 1015 q 878 949 756 1015 q 1068 764 1000 883 q 1136 492 1136 644 q 1068 220 1136 339 q 878 35 1000 101 q 600 -31 756 -31 m 600 118 q 788 166 706 118 q 916 299 869 214 q 963 492 963 383 q 916 685 963 600 q 788 819 869 771 q 600 867 706 867 q 413 819 494 867 q 284 685 331 771 q 238 492 238 600 q 284 299 238 383 q 413 166 331 214 q 600 118 494 118 z "},"P":{"ha":951,"x_min":121,"x_max":903,"o":"m 121 983 l 532 983 q 727 946 643 983 q 857 838 811 908 q 903 672 903 768 q 856 505 903 576 q 726 394 810 433 q 531 356 642 356 l 292 356 l 292 0 l 121 0 l 121 983 m 524 499 q 674 545 618 499 q 729 669 729 592 q 674 795 729 749 q 524 842 618 842 l 292 842 l 292 499 l 524 499 z "},"Q":{"ha":1200,"x_min":63,"x_max":1174,"o":"m 600 -32 q 321 34 443 -32 q 131 219 199 100 q 63 492 63 339 q 131 764 63 644 q 321 949 199 883 q 600 1015 443 1015 q 879 949 757 1015 q 1069 764 1001 883 q 1138 492 1138 644 q 1106 301 1138 389 q 1014 143 1074 213 l 1174 0 l 982 0 l 917 61 q 772 -8 853 17 q 600 -32 690 -32 m 600 117 q 796 172 713 117 l 483 449 l 675 449 l 890 257 q 963 492 963 358 q 916 685 963 600 q 787 819 869 771 q 600 867 704 867 q 413 819 494 867 q 284 685 331 771 q 238 492 238 600 q 284 298 238 383 q 413 165 331 213 q 600 117 494 117 z "},"R":{"ha":999,"x_min":119,"x_max":964,"o":"m 119 983 l 567 983 q 758 944 675 983 q 888 835 842 906 q 933 674 933 765 q 895 528 933 593 q 790 423 857 463 q 638 378 722 383 l 626 378 l 964 0 l 754 0 l 440 365 l 294 365 l 294 0 l 119 0 l 119 983 m 554 503 q 704 549 649 503 q 760 672 760 594 q 703 796 760 750 q 554 842 647 842 l 294 842 l 294 503 l 554 503 z "},"S":{"ha":965,"x_min":69,"x_max":896,"o":"m 496 -31 q 269 13 365 -31 q 122 135 174 56 q 69 321 69 214 l 239 321 q 308 167 239 222 q 500 111 376 111 q 663 151 606 111 q 721 264 721 192 q 688 349 721 318 q 605 394 656 381 q 469 422 554 408 q 274 465 354 440 q 138 550 194 490 q 82 714 82 610 q 128 872 82 804 q 261 978 174 940 q 469 1015 349 1015 q 683 974 592 1015 q 822 857 774 933 q 871 678 871 781 l 707 678 q 645 822 707 771 q 472 874 583 874 q 313 833 369 874 q 257 725 257 793 q 290 642 257 672 q 375 599 324 613 q 513 571 426 585 q 708 527 629 553 q 841 442 786 501 q 896 276 896 382 q 790 51 896 133 q 496 -31 683 -31 z "},"T":{"ha":843,"x_min":14,"x_max":828,"o":"m 333 835 l 14 835 l 14 983 l 828 983 l 828 835 l 508 835 l 508 0 l 333 0 l 333 835 z "},"U":{"ha":1065,"x_min":113,"x_max":953,"o":"m 533 -31 q 315 22 411 -31 q 166 169 219 75 q 113 383 113 263 l 113 983 l 288 983 l 288 386 q 319 247 288 308 q 406 152 350 186 q 533 118 463 118 q 660 152 604 118 q 747 247 715 186 q 778 386 778 308 l 778 983 l 953 983 l 953 383 q 899 169 953 263 q 750 22 846 75 q 533 -31 654 -31 z "},"V":{"ha":1006,"x_min":35,"x_max":971,"o":"m 35 983 l 214 983 l 497 128 l 511 128 l 792 983 l 971 983 l 639 0 l 367 0 l 35 983 z "},"W":{"ha":1571,"x_min":58,"x_max":1511,"o":"m 58 983 l 229 983 l 461 151 l 475 151 l 685 983 l 888 983 l 1096 151 l 1110 151 l 1342 983 l 1511 983 l 1232 0 l 975 0 l 793 763 l 779 763 l 596 0 l 339 0 l 58 983 z "},"X":{"ha":1038,"x_min":49,"x_max":989,"o":"m 392 519 l 61 983 l 258 983 l 507 617 l 521 617 l 778 983 l 978 983 l 635 519 l 989 0 l 790 0 l 521 414 l 507 414 l 246 0 l 49 0 l 392 519 z "},"Y":{"ha":950,"x_min":36,"x_max":915,"o":"m 390 350 l 36 983 l 218 983 l 471 510 l 485 510 l 729 983 l 915 983 l 565 350 l 565 0 l 390 0 l 390 350 z "},"Z":{"ha":918,"x_min":65,"x_max":853,"o":"m 65 85 l 594 824 l 594 838 l 78 838 l 78 983 l 839 983 l 839 900 l 314 161 l 314 147 l 853 147 l 853 0 l 65 0 l 65 85 z "},"a":{"ha":781,"x_min":43,"x_max":699,"o":"m 294 -19 q 112 35 181 -19 q 43 183 43 90 q 126 344 43 281 q 367 425 208 407 l 542 444 l 542 472 q 500 571 542 535 q 383 607 458 607 q 272 574 314 607 q 232 482 231 540 l 76 482 q 160 664 76 596 q 385 732 244 732 q 614 660 529 732 q 699 468 699 589 l 699 0 l 542 0 l 542 96 l 529 96 q 294 -19 456 -19 m 333 96 q 483 147 425 96 q 542 276 542 197 l 542 332 l 369 313 q 240 270 282 303 q 197 192 197 238 q 233 122 197 147 q 333 96 269 96 z "},"b":{"ha":918,"x_min":93,"x_max":857,"o":"m 504 -25 q 364 6 425 -25 q 265 96 303 38 l 251 96 l 251 0 l 93 0 l 93 1025 l 251 1025 l 251 614 l 265 614 q 365 701 303 671 q 506 732 428 732 q 685 683 604 732 q 811 549 765 635 q 857 353 857 463 q 810 157 857 243 q 683 23 764 71 q 504 -25 603 -25 m 472 113 q 588 144 536 113 q 669 230 640 175 q 699 353 699 285 q 669 476 699 421 q 589 563 640 531 q 472 594 538 594 q 355 563 407 594 q 274 476 303 531 q 244 353 244 421 q 274 231 244 286 q 355 144 303 176 q 472 113 407 113 z "},"c":{"ha":850,"x_min":61,"x_max":789,"o":"m 435 -25 q 242 23 326 -25 q 109 157 157 71 q 61 353 61 243 q 109 549 61 463 q 242 684 157 636 q 435 732 326 732 q 601 698 525 732 q 726 603 676 664 q 788 465 775 543 l 638 446 q 565 554 621 513 q 436 596 508 596 q 325 565 375 596 q 247 478 275 533 q 218 353 218 424 q 247 227 218 282 q 324 141 275 172 q 436 110 374 110 q 564 151 508 110 q 639 260 619 193 l 789 240 q 724 102 775 163 q 598 8 674 42 q 435 -25 522 -25 z "},"d":{"ha":918,"x_min":61,"x_max":825,"o":"m 414 -25 q 233 23 314 -25 q 107 157 153 71 q 61 353 61 243 q 107 549 61 463 q 233 683 153 635 q 413 732 314 732 q 553 701 490 732 q 653 614 615 671 l 667 614 l 667 1025 l 825 1025 l 825 0 l 667 0 l 667 96 l 653 96 q 554 6 615 38 q 414 -25 493 -25 m 446 113 q 563 144 511 113 q 644 231 615 176 q 674 353 674 286 q 644 476 674 421 q 563 563 615 531 q 446 594 511 594 q 328 563 381 594 q 247 476 276 531 q 218 353 218 421 q 248 230 218 285 q 330 144 278 175 q 446 113 382 113 z "},"e":{"ha":876,"x_min":61,"x_max":815,"o":"m 446 -25 q 247 24 335 -25 q 110 162 160 74 q 61 361 61 250 q 110 553 61 468 q 244 685 158 638 q 440 732 331 732 q 634 685 549 732 q 767 553 719 638 q 815 360 815 468 q 814 304 815 321 l 224 304 q 298 158 236 213 q 451 103 360 103 q 574 134 519 103 q 658 219 629 165 l 790 169 q 660 26 751 78 q 446 -25 568 -25 m 653 421 q 580 553 639 503 q 436 604 521 604 q 296 554 353 604 q 224 421 239 504 l 653 421 z "},"f":{"ha":532,"x_min":49,"x_max":483,"o":"m 157 588 l 49 588 l 49 706 l 157 706 l 157 821 q 213 988 157 924 q 363 1051 269 1051 q 483 1031 421 1051 l 483 901 q 411 914 440 914 q 341 885 368 914 q 314 811 314 857 l 314 706 l 483 706 l 483 588 l 314 588 l 314 0 l 157 0 l 157 588 z "},"g":{"ha":918,"x_min":61,"x_max":825,"o":"m 443 -344 q 203 -283 300 -344 q 72 -107 106 -221 l 228 -64 q 309 -174 253 -135 q 444 -212 365 -212 q 607 -151 547 -212 q 667 14 667 -90 l 667 97 l 653 97 q 414 -14 560 -14 q 232 33 313 -14 q 106 163 151 79 q 61 353 61 246 q 106 548 61 463 q 232 681 151 633 q 414 729 313 729 q 657 614 564 729 l 671 614 l 671 706 l 825 706 l 825 11 q 778 -178 825 -97 q 645 -301 732 -258 q 443 -344 558 -344 m 446 119 q 563 149 511 119 q 644 233 615 179 q 674 353 674 286 q 644 477 674 422 q 563 563 615 532 q 446 594 511 594 q 328 563 381 594 q 247 477 276 532 q 218 353 218 422 q 247 233 218 286 q 328 149 276 179 q 446 119 381 119 z "},"h":{"ha":843,"x_min":94,"x_max":761,"o":"m 94 1025 l 253 1025 l 253 617 l 267 617 q 359 702 306 672 q 478 732 413 732 q 627 693 563 732 q 726 585 692 654 q 761 429 761 517 l 761 0 l 604 0 l 604 418 q 560 546 604 497 q 440 594 517 594 q 346 570 389 594 q 278 503 303 546 q 253 406 253 460 l 253 0 l 94 0 l 94 1025 z "},"i":{"ha":365,"x_min":81,"x_max":285,"o":"m 182 824 q 109 852 138 824 q 81 925 81 881 q 109 997 81 969 q 182 1025 138 1025 q 256 997 228 1025 q 285 925 285 969 q 256 852 285 881 q 182 824 228 824 m 104 706 l 261 706 l 261 0 l 104 0 l 104 706 z "},"j":{"ha":379,"x_min":-85,"x_max":288,"o":"m 185 824 q 111 852 140 824 q 82 925 82 881 q 111 997 82 968 q 185 1025 140 1025 q 258 997 229 1025 q 288 925 288 968 q 258 852 288 881 q 185 824 229 824 m 53 -317 q -85 -297 -29 -317 l -85 -168 q 4 -179 -50 -179 q 79 -150 51 -179 q 107 -72 107 -121 l 107 706 l 264 706 l 264 -79 q 205 -250 264 -183 q 53 -317 146 -317 z "},"k":{"ha":738,"x_min":94,"x_max":738,"o":"m 94 1025 l 251 1025 l 251 417 l 265 417 l 532 706 l 731 706 l 408 367 l 738 0 l 538 0 l 265 315 l 251 315 l 251 0 l 94 0 l 94 1025 z "},"l":{"ha":344,"x_min":93,"x_max":251,"o":"m 93 1025 l 251 1025 l 251 0 l 93 0 l 93 1025 z "},"m":{"ha":1292,"x_min":93,"x_max":1210,"o":"m 93 706 l 247 706 l 247 608 l 261 608 q 345 699 292 665 q 465 732 399 732 q 597 695 536 732 q 688 599 658 658 l 701 599 q 797 696 738 661 q 932 731 857 731 q 1075 692 1011 731 q 1174 583 1139 653 q 1210 426 1210 514 l 1210 0 l 1053 0 l 1053 413 q 1008 542 1053 490 q 893 594 963 593 q 774 543 821 594 q 728 413 728 492 l 728 0 l 569 0 l 569 413 q 527 544 569 494 q 414 594 485 594 q 296 544 340 594 q 251 413 251 494 l 251 0 l 93 0 l 93 706 z "},"n":{"ha":842,"x_min":94,"x_max":761,"o":"m 94 706 l 251 706 l 251 611 l 265 611 q 358 699 304 669 q 478 729 413 729 q 626 690 561 729 q 726 583 690 651 q 761 428 761 515 l 761 0 l 603 0 l 603 415 q 559 543 603 494 q 440 592 515 592 q 346 567 389 592 q 277 501 303 543 q 251 406 251 458 l 251 0 l 94 0 l 94 706 z "},"o":{"ha":889,"x_min":60,"x_max":829,"o":"m 444 -25 q 244 22 332 -25 q 108 156 157 69 q 60 353 60 242 q 108 550 60 464 q 244 684 157 636 q 444 732 331 732 q 644 684 557 732 q 781 550 732 636 q 829 353 829 464 q 781 156 829 242 q 644 22 732 69 q 444 -25 557 -25 m 444 113 q 562 143 510 113 q 643 228 614 174 q 672 353 672 283 q 643 477 672 422 q 562 563 614 532 q 444 594 510 594 q 327 563 379 594 q 246 477 275 532 q 217 353 217 422 q 246 228 217 283 q 327 143 275 174 q 444 113 379 113 z "},"p":{"ha":918,"x_min":93,"x_max":857,"o":"m 504 732 q 683 683 603 732 q 810 549 764 635 q 857 353 857 463 q 811 158 857 244 q 685 24 765 72 q 506 -25 604 -25 q 365 6 428 -25 q 265 93 303 36 l 251 93 l 251 -319 l 93 -319 l 93 706 l 251 706 l 251 610 l 265 610 q 364 701 303 669 q 504 732 425 732 m 472 594 q 355 563 407 594 q 274 476 303 531 q 244 353 244 421 q 274 231 244 286 q 355 144 303 176 q 472 113 407 113 q 589 144 538 113 q 669 231 640 176 q 699 353 699 286 q 669 476 699 421 q 588 563 640 531 q 472 594 536 594 z "},"q":{"ha":918,"x_min":61,"x_max":825,"o":"m 414 732 q 554 701 493 732 q 653 610 615 669 l 667 610 l 667 706 l 825 706 l 825 -319 l 667 -319 l 667 93 l 653 93 q 553 6 615 36 q 413 -25 490 -25 q 233 24 314 -25 q 107 158 153 72 q 61 353 61 244 q 107 549 61 463 q 233 683 153 635 q 414 732 314 732 m 446 594 q 330 563 382 594 q 248 476 278 531 q 218 353 218 421 q 247 231 218 286 q 328 144 276 176 q 446 113 381 113 q 563 144 511 113 q 644 231 615 176 q 674 353 674 286 q 644 476 674 421 q 563 563 615 531 q 446 594 511 594 z "},"r":{"ha":564,"x_min":94,"x_max":528,"o":"m 94 706 l 249 706 l 249 613 l 263 613 q 337 690 286 660 q 444 719 388 719 q 528 703 496 719 l 528 560 q 470 576 500 571 q 418 582 440 582 q 298 524 344 582 q 251 371 251 465 l 251 0 l 94 0 l 94 706 z "},"s":{"ha":769,"x_min":67,"x_max":703,"o":"m 394 -26 q 153 44 239 -26 q 67 239 67 114 l 211 239 q 263 131 213 171 q 399 90 313 90 q 510 118 469 90 q 551 193 551 146 q 528 249 551 229 q 469 276 504 268 q 369 290 435 283 q 224 317 286 299 q 119 379 163 335 q 76 503 76 424 q 158 672 76 610 q 375 733 240 733 q 535 704 465 733 q 645 620 606 675 q 685 493 685 565 l 536 493 q 490 582 535 549 q 374 615 446 615 q 265 588 307 615 q 224 513 224 560 q 249 459 224 476 q 305 435 274 442 q 415 419 336 429 q 624 360 544 404 q 703 201 703 315 q 622 33 703 93 q 394 -26 540 -26 z "},"t":{"ha":553,"x_min":47,"x_max":492,"o":"m 367 -25 q 212 37 269 -25 q 154 201 154 99 l 154 588 l 47 588 l 47 706 l 157 706 l 190 933 l 313 933 l 311 706 l 483 706 l 483 588 l 311 588 l 311 208 q 339 131 311 161 q 414 101 367 101 q 492 113 451 101 l 492 -6 q 431 -20 465 -15 q 367 -25 396 -25 z "},"u":{"ha":842,"x_min":81,"x_max":747,"o":"m 747 0 l 590 0 l 590 94 l 576 94 q 483 7 538 38 q 364 -24 429 -24 q 216 15 281 -24 q 116 123 151 54 q 81 279 81 192 l 81 706 l 239 706 l 239 290 q 283 163 239 211 q 401 114 326 114 q 496 138 453 114 q 565 206 539 163 q 590 301 590 249 l 590 706 l 747 706 l 747 0 z "},"v":{"ha":761,"x_min":11,"x_max":750,"o":"m 11 706 l 175 706 l 374 126 l 388 126 l 588 706 l 750 706 l 493 0 l 269 0 l 11 706 z "},"w":{"ha":1197,"x_min":25,"x_max":1172,"o":"m 25 706 l 183 706 l 356 156 l 369 156 l 510 706 l 686 706 l 833 153 l 847 153 l 1015 706 l 1172 706 l 944 0 l 731 0 l 606 524 l 592 524 l 465 0 l 251 0 l 25 706 z "},"x":{"ha":756,"x_min":14,"x_max":743,"o":"m 272 367 l 28 706 l 200 706 l 371 463 l 385 463 l 557 706 l 729 706 l 485 367 l 743 0 l 565 0 l 385 268 l 371 268 l 192 0 l 14 0 l 272 367 z "},"y":{"ha":768,"x_min":13,"x_max":756,"o":"m 200 -315 q 135 -309 169 -315 q 72 -292 100 -303 l 74 -160 q 172 -181 126 -181 q 247 -156 218 -181 q 290 -103 276 -131 q 335 -3 304 -76 l 13 706 l 179 706 l 396 201 l 410 201 l 590 706 l 756 706 l 481 -18 q 408 -178 442 -117 q 323 -277 374 -239 q 200 -315 272 -315 z "},"z":{"ha":726,"x_min":40,"x_max":686,"o":"m 40 72 l 435 557 l 435 571 l 54 571 l 54 706 l 672 706 l 672 633 l 285 149 l 285 135 l 686 135 l 686 0 l 40 0 l 40 72 z "},"À":{"ha":1022,"x_min":36,"x_max":986,"o":"m 433 1093 l 267 1257 l 440 1257 l 590 1093 l 433 1093 m 390 983 l 636 983 l 986 0 l 814 0 l 742 199 l 281 199 l 207 0 l 36 0 l 390 983 m 699 333 l 519 833 l 506 833 l 325 333 l 699 333 z "},"à":{"ha":781,"x_min":43,"x_max":699,"o":"m 154 1025 l 314 1025 l 461 819 l 319 819 l 154 1025 m 294 -19 q 112 35 181 -19 q 43 183 43 90 q 126 344 43 281 q 367 425 208 407 l 542 444 l 542 472 q 500 571 542 535 q 383 607 458 607 q 272 574 314 607 q 232 482 231 540 l 76 482 q 160 664 76 596 q 385 732 244 732 q 614 660 529 732 q 699 468 699 589 l 699 0 l 542 0 l 542 96 l 529 96 q 294 -19 456 -19 m 333 96 q 483 147 425 96 q 542 276 542 197 l 542 332 l 369 313 q 240 270 282 303 q 197 192 197 238 q 233 122 197 147 q 333 96 269 96 z "},"Á":{"ha":1022,"x_min":36,"x_max":986,"o":"m 583 1257 l 757 1257 l 590 1093 l 433 1093 l 583 1257 m 390 983 l 636 983 l 986 0 l 814 0 l 742 199 l 281 199 l 207 0 l 36 0 l 390 983 m 699 333 l 519 833 l 506 833 l 325 333 l 699 333 z "},"á":{"ha":781,"x_min":43,"x_max":699,"o":"m 310 819 l 457 1025 l 617 1025 l 451 819 l 310 819 m 294 -19 q 112 35 181 -19 q 43 183 43 90 q 126 344 43 281 q 367 425 208 407 l 542 444 l 542 472 q 500 571 542 535 q 383 607 458 607 q 272 574 314 607 q 232 482 231 540 l 76 482 q 160 664 76 596 q 385 732 244 732 q 614 660 529 732 q 699 468 699 589 l 699 0 l 542 0 l 542 96 l 529 96 q 294 -19 456 -19 m 333 96 q 483 147 425 96 q 542 276 542 197 l 542 332 l 369 313 q 240 270 282 303 q 197 192 197 238 q 233 122 197 147 q 333 96 269 96 z "},"Ã":{"ha":1022,"x_min":36,"x_max":986,"o":"m 601 1108 q 535 1121 561 1108 q 476 1156 508 1133 q 440 1180 456 1172 q 407 1188 425 1188 q 358 1170 382 1188 q 318 1124 335 1153 l 246 1178 q 313 1253 271 1225 q 410 1281 356 1281 q 472 1269 446 1281 q 529 1235 499 1257 q 569 1210 551 1218 q 607 1201 588 1201 q 658 1219 635 1201 q 696 1265 681 1236 l 769 1213 q 700 1136 743 1164 q 601 1108 657 1108 m 390 983 l 636 983 l 986 0 l 814 0 l 742 199 l 281 199 l 207 0 l 36 0 l 390 983 m 699 333 l 519 833 l 506 833 l 325 333 l 699 333 z "},"ã":{"ha":781,"x_min":43,"x_max":699,"o":"m 481 817 q 415 828 442 817 q 358 863 389 840 q 317 887 333 879 q 282 894 301 894 q 235 881 257 894 q 199 843 213 867 l 126 899 q 194 972 150 944 q 290 1000 238 1000 q 352 988 326 1000 q 410 956 378 976 q 455 930 439 938 q 490 922 471 922 q 541 937 518 922 q 575 975 564 951 l 650 921 q 581 844 624 872 q 481 817 538 817 m 294 -19 q 112 35 181 -19 q 43 183 43 90 q 126 344 43 281 q 367 425 208 407 l 542 444 l 542 472 q 500 571 542 535 q 383 607 458 607 q 272 574 314 607 q 232 482 231 540 l 76 482 q 160 664 76 596 q 385 732 244 732 q 614 660 529 732 q 699 468 699 589 l 699 0 l 542 0 l 542 96 l 529 96 q 294 -19 456 -19 m 333 96 q 483 147 425 96 q 542 276 542 197 l 542 332 l 369 313 q 240 270 282 303 q 197 192 197 238 q 233 122 197 147 q 333 96 269 96 z "},"Ä":{"ha":1022,"x_min":36,"x_max":986,"o":"m 346 1088 q 278 1114 304 1088 q 251 1182 251 1140 q 278 1249 251 1222 q 346 1275 304 1275 q 415 1249 388 1275 q 442 1182 442 1222 q 415 1114 442 1140 q 346 1088 388 1088 m 678 1088 q 609 1114 636 1088 q 582 1182 582 1140 q 609 1249 582 1222 q 678 1275 636 1275 q 746 1249 719 1275 q 772 1182 772 1222 q 746 1114 772 1140 q 678 1088 719 1088 m 390 983 l 636 983 l 986 0 l 814 0 l 742 199 l 281 199 l 207 0 l 36 0 l 390 983 m 699 333 l 519 833 l 506 833 l 325 333 l 699 333 z "},"ä":{"ha":781,"x_min":43,"x_max":699,"o":"m 211 824 q 145 849 171 824 q 119 914 119 875 q 145 977 119 953 q 211 1001 171 1001 q 277 977 251 1001 q 303 914 303 953 q 277 849 303 874 q 211 824 251 824 m 560 824 q 494 849 519 824 q 468 914 468 874 q 494 977 468 953 q 560 1001 519 1001 q 626 977 600 1001 q 651 914 651 953 q 626 849 651 875 q 560 824 600 824 m 294 -19 q 112 35 181 -19 q 43 183 43 90 q 126 344 43 281 q 367 425 208 407 l 542 444 l 542 472 q 500 571 542 535 q 383 607 458 607 q 272 574 314 607 q 232 482 231 540 l 76 482 q 160 664 76 596 q 385 732 244 732 q 614 660 529 732 q 699 468 699 589 l 699 0 l 542 0 l 542 96 l 529 96 q 294 -19 456 -19 m 333 96 q 483 147 425 96 q 542 276 542 197 l 542 332 l 369 313 q 240 270 282 303 q 197 192 197 238 q 233 122 197 147 q 333 96 269 96 z "},"Å":{"ha":1022,"x_min":36,"x_max":986,"o":"m 513 1069 q 407 1107 449 1069 q 365 1201 365 1144 q 406 1297 365 1260 q 513 1333 447 1333 q 617 1297 576 1333 q 657 1201 657 1260 q 617 1107 657 1144 q 513 1069 576 1069 m 513 1131 q 564 1151 543 1131 q 585 1201 585 1171 q 565 1252 585 1232 q 513 1272 544 1272 q 459 1253 479 1272 q 439 1201 439 1233 q 459 1151 439 1171 q 513 1131 479 1131 m 390 983 l 636 983 l 986 0 l 814 0 l 742 199 l 281 199 l 207 0 l 36 0 l 390 983 m 699 333 l 519 833 l 506 833 l 325 333 l 699 333 z "},"å":{"ha":781,"x_min":43,"x_max":699,"o":"m 386 815 q 271 858 315 815 q 226 965 226 900 q 271 1074 226 1032 q 386 1115 315 1115 q 499 1074 456 1115 q 543 965 543 1032 q 499 858 543 900 q 386 815 456 815 m 386 879 q 447 903 422 879 q 471 965 471 928 q 447 1027 471 1003 q 386 1051 422 1051 q 324 1027 347 1051 q 300 965 300 1003 q 324 903 300 928 q 386 879 347 879 m 294 -19 q 112 35 181 -19 q 43 183 43 90 q 126 344 43 281 q 367 425 208 407 l 542 444 l 542 472 q 500 571 542 535 q 383 607 458 607 q 272 574 314 607 q 232 482 231 540 l 76 482 q 160 664 76 596 q 385 732 244 732 q 614 660 529 732 q 699 468 699 589 l 699 0 l 542 0 l 542 96 l 529 96 q 294 -19 456 -19 m 333 96 q 483 147 425 96 q 542 276 542 197 l 542 332 l 369 313 q 240 270 282 303 q 197 192 197 238 q 233 122 197 147 q 333 96 269 96 z "},"Ā":{"ha":1022,"x_min":36,"x_max":986,"o":"m 288 1228 l 736 1228 l 736 1115 l 288 1115 l 288 1228 m 390 983 l 636 983 l 986 0 l 814 0 l 742 199 l 281 199 l 207 0 l 36 0 l 390 983 m 699 333 l 519 833 l 506 833 l 325 333 l 699 333 z "},"ā":{"ha":781,"x_min":43,"x_max":699,"o":"m 161 950 l 610 950 l 610 838 l 161 838 l 161 950 m 294 -19 q 112 35 181 -19 q 43 183 43 90 q 126 344 43 281 q 367 425 208 407 l 542 444 l 542 472 q 500 571 542 535 q 383 607 458 607 q 272 574 314 607 q 232 482 231 540 l 76 482 q 160 664 76 596 q 385 732 244 732 q 614 660 529 732 q 699 468 699 589 l 699 0 l 542 0 l 542 96 l 529 96 q 294 -19 456 -19 m 333 96 q 483 147 425 96 q 542 276 542 197 l 542 332 l 369 313 q 240 270 282 303 q 197 192 197 238 q 233 122 197 147 q 333 96 269 96 z "},"Ă":{"ha":1022,"x_min":36,"x_max":986,"o":"m 511 1079 q 353 1129 415 1079 q 290 1257 290 1179 l 425 1257 q 448 1199 425 1219 q 511 1178 471 1178 q 575 1199 551 1178 q 599 1257 599 1219 l 732 1257 q 670 1129 732 1179 q 511 1079 608 1079 m 390 983 l 636 983 l 986 0 l 814 0 l 742 199 l 281 199 l 207 0 l 36 0 l 390 983 m 699 333 l 519 833 l 506 833 l 325 333 l 699 333 z "},"ă":{"ha":781,"x_min":43,"x_max":699,"o":"m 386 831 q 244 885 300 831 q 189 1025 189 940 l 306 1025 q 327 955 306 982 q 386 928 349 928 q 444 955 422 928 q 465 1025 465 982 l 582 1025 q 526 885 582 940 q 386 831 471 831 m 294 -19 q 112 35 181 -19 q 43 183 43 90 q 126 344 43 281 q 367 425 208 407 l 542 444 l 542 472 q 500 571 542 535 q 383 607 458 607 q 272 574 314 607 q 232 482 231 540 l 76 482 q 160 664 76 596 q 385 732 244 732 q 614 660 529 732 q 699 468 699 589 l 699 0 l 542 0 l 542 96 l 529 96 q 294 -19 456 -19 m 333 96 q 483 147 425 96 q 542 276 542 197 l 542 332 l 369 313 q 240 270 282 303 q 197 192 197 238 q 233 122 197 147 q 333 96 269 96 z "},"Ą":{"ha":1022,"x_min":36,"x_max":986,"o":"m 922 0 q 810 -69 851 -29 q 769 -147 769 -108 q 786 -188 769 -172 q 832 -204 803 -204 q 910 -179 867 -204 l 910 -253 q 860 -273 888 -265 q 807 -281 832 -281 q 723 -250 756 -281 q 690 -171 690 -219 q 722 -81 690 -125 q 814 1 754 -36 l 742 199 l 281 199 l 207 0 l 36 0 l 390 983 l 636 983 l 986 0 l 922 0 m 699 333 l 519 833 l 506 833 l 325 333 l 699 333 z "},"ą":{"ha":781,"x_min":43,"x_max":699,"o":"m 385 732 q 614 660 529 732 q 699 468 699 589 l 699 0 l 657 0 q 544 -69 586 -29 q 503 -147 503 -108 q 520 -188 503 -172 q 567 -204 538 -204 q 644 -179 601 -204 l 644 -253 q 594 -273 622 -265 q 540 -281 567 -281 q 457 -250 489 -281 q 425 -171 425 -219 q 456 -80 425 -124 q 546 0 486 -36 l 542 0 l 542 96 l 529 96 q 294 -19 456 -19 q 112 35 181 -19 q 43 183 43 90 q 126 344 43 281 q 367 425 208 407 l 542 444 l 542 472 q 500 571 542 535 q 383 607 458 607 q 272 574 314 607 q 232 482 231 540 l 76 482 q 160 664 76 596 q 385 732 244 732 m 542 332 l 369 313 q 240 270 282 303 q 197 192 197 238 q 233 122 197 147 q 333 96 269 96 q 483 147 425 96 q 542 276 542 197 l 542 332 z "},"Â":{"ha":1022,"x_min":36,"x_max":986,"o":"m 599 1257 l 756 1093 l 621 1093 l 521 1178 l 506 1178 l 407 1093 l 271 1093 l 426 1257 l 599 1257 m 390 983 l 636 983 l 986 0 l 814 0 l 742 199 l 281 199 l 207 0 l 36 0 l 390 983 m 699 333 l 519 833 l 506 833 l 325 333 l 699 333 z "},"â":{"ha":781,"x_min":43,"x_max":699,"o":"m 304 1021 l 471 1021 l 625 815 l 492 815 l 394 931 l 381 931 l 283 815 l 150 815 l 304 1021 m 294 -19 q 112 35 181 -19 q 43 183 43 90 q 126 344 43 281 q 367 425 208 407 l 542 444 l 542 472 q 500 571 542 535 q 383 607 458 607 q 272 574 314 607 q 232 482 231 540 l 76 482 q 160 664 76 596 q 385 732 244 732 q 614 660 529 732 q 699 468 699 589 l 699 0 l 542 0 l 542 96 l 529 96 q 294 -19 456 -19 m 333 96 q 483 147 425 96 q 542 276 542 197 l 542 332 l 369 313 q 240 270 282 303 q 197 192 197 238 q 233 122 197 147 q 333 96 269 96 z "},"Æ":{"ha":1325,"x_min":36,"x_max":1274,"o":"m 528 983 l 1261 983 l 1261 836 l 832 838 l 832 572 l 1206 572 l 1206 439 l 832 439 l 832 147 l 1274 147 l 1274 0 l 665 0 l 665 182 l 322 182 l 231 0 l 36 0 l 528 983 m 665 315 l 665 856 l 651 856 l 386 315 l 665 315 z "},"æ":{"ha":1307,"x_min":43,"x_max":1247,"o":"m 371 733 q 532 701 461 733 q 640 610 603 668 q 903 732 740 732 q 1081 685 1003 732 q 1203 553 1160 638 q 1247 360 1247 468 q 1244 306 1247 321 l 700 306 q 769 159 713 215 q 906 103 825 103 q 1011 133 963 103 q 1089 218 1060 163 l 1221 168 q 1101 29 1185 83 q 917 -25 1017 -25 q 740 24 818 -25 q 622 157 661 74 q 506 28 590 76 q 311 -21 421 -21 q 117 36 190 -21 q 43 186 43 93 q 126 346 43 282 q 367 428 208 410 l 542 447 l 542 475 q 498 570 542 535 q 379 606 454 606 q 272 573 314 606 q 232 489 231 540 l 76 489 q 115 615 76 560 q 219 702 153 671 q 371 733 286 733 m 890 604 q 767 553 817 604 q 701 419 717 503 l 1083 419 q 1019 553 1072 503 q 890 604 967 604 m 369 321 q 240 278 282 311 q 197 197 197 244 q 235 125 197 151 q 335 99 274 99 q 442 123 394 99 q 515 189 489 147 q 542 281 542 231 l 542 340 l 369 321 z "},"Ǽ":{"ha":1326,"x_min":36,"x_max":1274,"o":"m 814 1257 l 988 1257 l 821 1093 l 663 1093 l 814 1257 m 528 983 l 1261 983 l 1261 838 l 832 838 l 832 572 l 1206 572 l 1206 439 l 832 439 l 832 147 l 1274 147 l 1274 0 l 665 0 l 665 182 l 322 182 l 231 0 l 36 0 l 528 983 m 665 315 l 665 856 l 651 856 l 386 315 l 665 315 z "},"ǽ":{"ha":1307,"x_min":43,"x_max":1247,"o":"m 572 819 l 719 1025 l 879 1025 l 714 819 l 572 819 m 371 733 q 532 701 461 733 q 640 610 603 668 q 903 732 740 732 q 1081 685 1003 732 q 1203 553 1160 638 q 1247 360 1247 468 q 1244 306 1247 321 l 700 306 q 769 159 713 215 q 906 103 825 103 q 1011 133 963 103 q 1089 218 1060 163 l 1221 168 q 1101 29 1185 83 q 917 -25 1017 -25 q 740 24 818 -25 q 622 157 661 74 q 506 28 590 76 q 311 -21 421 -21 q 117 36 190 -21 q 43 186 43 93 q 126 346 43 282 q 367 428 208 410 l 542 447 l 542 475 q 498 570 542 535 q 379 606 454 606 q 272 573 314 606 q 232 489 231 540 l 76 489 q 115 615 76 560 q 219 702 153 671 q 371 733 286 733 m 890 604 q 767 553 817 604 q 701 419 717 503 l 1083 419 q 1019 553 1072 503 q 890 604 967 604 m 369 321 q 240 278 282 311 q 197 197 197 244 q 235 125 197 151 q 335 99 274 99 q 442 123 394 99 q 515 189 489 147 q 542 281 542 231 l 542 340 l 369 321 z "},"Ć":{"ha":1118,"x_min":64,"x_max":1054,"o":"m 650 1274 l 824 1274 l 658 1108 l 500 1108 l 650 1274 m 579 -31 q 313 37 431 -31 q 130 223 196 104 q 64 492 64 342 q 130 762 64 643 q 313 948 196 881 q 579 1015 431 1015 q 794 968 693 1015 q 963 838 894 921 q 1054 650 1032 754 l 888 629 q 826 751 871 697 q 716 836 781 806 q 581 867 651 867 q 404 819 482 867 q 283 685 326 771 q 239 492 239 600 q 283 299 239 385 q 404 166 326 214 q 581 118 482 118 q 774 183 688 118 q 888 346 861 247 l 1054 319 q 963 139 1032 218 q 794 15 894 60 q 579 -31 693 -31 z "},"ć":{"ha":850,"x_min":61,"x_max":790,"o":"m 360 819 l 507 1025 l 667 1025 l 503 819 l 360 819 m 435 -25 q 242 23 328 -25 q 109 156 157 71 q 61 350 61 242 q 109 547 61 460 q 242 683 157 633 q 435 732 326 732 q 601 698 525 732 q 727 603 678 664 q 788 464 776 542 l 639 446 q 565 554 622 513 q 436 596 508 596 q 325 565 375 596 q 247 479 275 535 q 218 353 218 424 q 247 227 218 282 q 324 141 275 172 q 436 110 374 110 q 565 151 508 110 q 639 260 621 193 l 790 242 q 724 102 775 163 q 599 8 674 42 q 435 -25 524 -25 z "},"Ċ":{"ha":1118,"x_min":64,"x_max":1054,"o":"m 579 1108 q 508 1135 536 1108 q 481 1203 481 1161 q 508 1269 481 1243 q 579 1296 536 1296 q 650 1269 622 1296 q 678 1203 678 1243 q 650 1135 678 1161 q 579 1108 622 1108 m 579 -31 q 313 37 431 -31 q 130 223 196 104 q 64 492 64 342 q 130 762 64 643 q 313 948 196 881 q 579 1015 431 1015 q 794 968 693 1015 q 963 838 894 921 q 1054 650 1032 754 l 888 629 q 826 751 871 697 q 716 836 781 806 q 581 867 651 867 q 404 819 482 867 q 283 685 326 771 q 239 492 239 600 q 283 299 239 385 q 404 166 326 214 q 581 118 482 118 q 774 183 688 118 q 888 346 861 247 l 1054 319 q 963 139 1032 218 q 794 15 894 60 q 579 -31 693 -31 z "},"ċ":{"ha":850,"x_min":61,"x_max":790,"o":"m 436 824 q 363 852 392 824 q 335 925 335 881 q 363 997 335 969 q 436 1025 392 1025 q 510 997 482 1025 q 539 925 539 969 q 510 852 539 881 q 436 824 482 824 m 435 -25 q 242 23 328 -25 q 109 156 157 71 q 61 350 61 242 q 109 547 61 460 q 242 683 157 633 q 435 732 326 732 q 601 698 525 732 q 727 603 678 664 q 788 464 776 542 l 639 446 q 565 554 622 513 q 436 596 508 596 q 325 565 375 596 q 247 479 275 535 q 218 353 218 424 q 247 227 218 282 q 324 141 275 172 q 436 110 374 110 q 565 151 508 110 q 639 260 621 193 l 790 242 q 724 102 775 163 q 599 8 674 42 q 435 -25 524 -25 z "},"Č":{"ha":1118,"x_min":64,"x_max":1054,"o":"m 336 1274 l 472 1274 l 572 1188 l 588 1188 l 686 1274 l 822 1274 l 665 1108 l 493 1108 l 336 1274 m 579 -31 q 313 37 431 -31 q 130 223 196 104 q 64 492 64 342 q 130 762 64 643 q 313 948 196 881 q 579 1015 431 1015 q 794 968 693 1015 q 963 838 894 921 q 1054 650 1032 754 l 888 629 q 826 751 871 697 q 716 836 781 806 q 581 867 651 867 q 404 819 482 867 q 283 685 326 771 q 239 492 239 600 q 283 299 239 385 q 404 166 326 214 q 581 118 482 118 q 774 183 688 118 q 888 346 861 247 l 1054 319 q 963 139 1032 218 q 794 15 894 60 q 579 -31 693 -31 z "},"č":{"ha":850,"x_min":61,"x_max":790,"o":"m 331 1025 l 429 910 l 443 910 l 539 1025 l 674 1025 l 518 819 l 351 819 l 197 1025 l 331 1025 m 435 -25 q 242 23 328 -25 q 109 156 157 71 q 61 350 61 242 q 109 547 61 460 q 242 683 157 633 q 435 732 326 732 q 601 698 525 732 q 727 603 678 664 q 788 464 776 542 l 639 446 q 565 554 622 513 q 436 596 508 596 q 325 565 375 596 q 247 479 275 535 q 218 353 218 424 q 247 227 218 282 q 324 141 275 172 q 436 110 374 110 q 565 151 508 110 q 639 260 621 193 l 790 242 q 724 102 775 163 q 599 8 674 42 q 435 -25 524 -25 z "},"Ç":{"ha":1118,"x_min":64,"x_max":1054,"o":"m 581 118 q 774 183 688 118 q 888 346 861 247 l 1054 319 q 971 147 1033 224 q 816 24 908 71 q 617 -29 724 -22 l 611 -65 q 712 -101 672 -65 q 751 -192 751 -137 q 710 -282 751 -247 q 603 -317 669 -317 q 501 -289 544 -317 q 447 -218 458 -261 l 529 -193 q 554 -231 535 -217 q 600 -246 574 -246 q 645 -230 628 -246 q 663 -189 663 -214 q 640 -143 663 -161 q 581 -125 617 -125 l 508 -125 l 522 -28 q 284 55 389 -15 q 122 238 179 125 q 64 492 64 351 q 130 762 64 643 q 313 948 196 881 q 579 1015 431 1015 q 794 968 693 1015 q 963 838 894 921 q 1054 650 1032 754 l 888 629 q 826 751 871 697 q 716 836 781 806 q 581 867 651 867 q 404 819 482 867 q 283 685 326 771 q 239 492 239 600 q 283 299 239 385 q 404 166 326 214 q 581 118 482 118 z "},"ç":{"ha":850,"x_min":61,"x_max":790,"o":"m 790 242 q 683 60 769 132 q 475 -24 596 -12 l 469 -65 q 569 -101 529 -65 q 610 -192 610 -137 q 569 -282 610 -247 q 460 -317 528 -317 q 358 -289 401 -317 q 306 -218 315 -261 l 388 -193 q 413 -231 393 -217 q 458 -246 432 -246 q 503 -230 486 -246 q 521 -189 521 -214 q 498 -143 521 -161 q 439 -125 475 -125 l 365 -125 l 381 -22 q 215 40 288 -11 q 101 171 142 90 q 61 350 61 251 q 109 547 61 460 q 242 683 157 633 q 435 732 326 732 q 601 698 525 732 q 727 603 678 664 q 788 464 776 542 l 639 446 q 565 554 622 513 q 436 596 508 596 q 325 565 375 596 q 247 479 275 535 q 218 353 218 424 q 247 227 218 282 q 324 141 275 172 q 436 110 374 110 q 565 151 508 110 q 639 260 621 193 l 790 242 z "},"Ĉ":{"ha":1118,"x_min":64,"x_max":1054,"o":"m 665 1274 l 824 1108 l 688 1108 l 588 1193 l 572 1193 l 474 1108 l 338 1108 l 493 1274 l 665 1274 m 579 -31 q 313 37 431 -31 q 130 223 196 104 q 64 492 64 342 q 130 762 64 643 q 313 948 196 881 q 579 1015 431 1015 q 794 968 693 1015 q 963 838 894 921 q 1054 650 1032 754 l 888 629 q 826 751 871 697 q 716 836 781 806 q 581 867 651 867 q 404 819 482 867 q 283 685 326 771 q 239 492 239 600 q 283 299 239 385 q 404 166 326 214 q 581 118 482 118 q 774 183 688 118 q 888 346 861 247 l 1054 319 q 963 139 1032 218 q 794 15 894 60 q 579 -31 693 -31 z "},"ĉ":{"ha":850,"x_min":61,"x_max":790,"o":"m 356 1021 l 521 1021 l 676 815 l 542 815 l 446 931 l 432 931 l 335 815 l 201 815 l 356 1021 m 435 -25 q 242 23 328 -25 q 109 156 157 71 q 61 350 61 242 q 109 547 61 460 q 242 683 157 633 q 435 732 326 732 q 601 698 525 732 q 727 603 678 664 q 788 464 776 542 l 639 446 q 565 554 622 513 q 436 596 508 596 q 325 565 375 596 q 247 479 275 535 q 218 353 218 424 q 247 227 218 282 q 324 141 275 172 q 436 110 374 110 q 565 151 508 110 q 639 260 621 193 l 790 242 q 724 102 775 163 q 599 8 674 42 q 435 -25 524 -25 z "},"Ď":{"ha":1090,"x_min":121,"x_max":1028,"o":"m 288 1257 l 424 1257 l 522 1172 l 538 1172 l 638 1257 l 774 1257 l 615 1093 l 444 1093 l 288 1257 m 121 983 l 458 983 q 757 922 628 983 q 957 749 886 861 q 1028 492 1028 638 q 957 234 1028 346 q 757 61 886 122 q 458 0 628 0 l 121 0 l 121 983 m 458 144 q 666 187 576 144 q 805 308 756 229 q 854 492 854 386 q 805 676 854 597 q 666 798 756 756 q 458 840 576 840 l 293 840 l 293 144 l 458 144 z "},"ď":{"ha":928,"x_min":61,"x_max":1092,"o":"m 944 768 l 999 872 q 941 899 964 875 q 918 954 918 922 q 942 1015 918 990 q 1006 1039 967 1039 q 1067 1015 1043 1039 q 1092 954 1092 992 q 1071 883 1092 919 l 996 751 l 944 768 m 414 -25 q 233 23 314 -25 q 107 157 153 71 q 61 353 61 243 q 107 549 61 463 q 233 683 153 635 q 413 732 314 732 q 553 701 490 732 q 653 614 615 671 l 667 614 l 667 1025 l 825 1025 l 825 0 l 667 0 l 667 96 l 653 96 q 554 6 615 38 q 414 -25 493 -25 m 446 113 q 563 144 511 113 q 644 231 615 176 q 674 353 674 286 q 644 476 674 421 q 563 563 615 531 q 446 594 511 594 q 328 563 381 594 q 247 476 276 531 q 218 353 218 421 q 248 230 218 285 q 330 144 278 175 q 446 113 382 113 z "},"Đ":{"ha":1153,"x_min":36,"x_max":1090,"o":"m 521 983 q 819 922 690 983 q 1019 749 949 861 q 1090 492 1090 638 q 1019 234 1090 346 q 819 61 949 122 q 521 0 690 0 l 182 0 l 182 492 l 36 492 l 36 614 l 182 614 l 182 983 l 521 983 m 521 144 q 728 187 639 144 q 867 308 818 229 q 917 492 917 386 q 867 676 917 597 q 728 798 818 756 q 521 840 639 840 l 354 840 l 354 614 l 661 614 l 661 492 l 354 492 l 354 144 l 521 144 z "},"đ":{"ha":917,"x_min":60,"x_max":943,"o":"m 943 835 l 824 835 l 824 0 l 665 0 l 665 96 l 651 96 q 553 6 614 38 q 413 -25 492 -25 q 232 23 313 -25 q 106 157 151 71 q 60 353 60 243 q 106 549 60 463 q 232 683 151 635 q 411 732 313 732 q 551 701 489 732 q 651 614 614 671 l 665 614 l 665 835 l 406 835 l 406 935 l 665 935 l 665 1025 l 824 1025 l 824 935 l 943 935 l 943 835 m 444 113 q 562 144 510 113 q 643 231 614 176 q 672 353 672 286 q 643 476 672 421 q 562 563 614 531 q 444 594 510 594 q 327 563 379 594 q 246 476 275 531 q 217 353 217 421 q 247 230 217 285 q 328 144 276 175 q 444 113 381 113 z "},"È":{"ha":893,"x_min":119,"x_max":831,"o":"m 393 1093 l 226 1257 l 400 1257 l 551 1093 l 393 1093 m 119 983 l 817 983 l 817 838 l 293 838 l 293 575 l 768 575 l 768 438 l 293 438 l 293 147 l 831 147 l 831 0 l 119 0 l 119 983 z "},"è":{"ha":876,"x_min":61,"x_max":817,"o":"m 210 1025 l 369 1025 l 517 819 l 375 819 l 210 1025 m 446 -25 q 247 24 335 -25 q 110 162 160 74 q 61 361 61 250 q 110 553 61 468 q 245 685 158 638 q 442 732 332 732 q 635 685 550 732 q 769 553 721 638 q 817 360 817 468 q 814 304 817 321 l 224 304 q 299 158 238 213 q 451 103 360 103 q 575 134 519 103 q 660 219 631 165 l 790 169 q 660 26 751 78 q 446 -25 568 -25 m 653 421 q 581 553 640 503 q 436 604 521 604 q 296 554 353 604 q 224 421 239 504 l 653 421 z "},"É":{"ha":893,"x_min":119,"x_max":831,"o":"m 543 1257 l 718 1257 l 551 1093 l 393 1093 l 543 1257 m 119 983 l 817 983 l 817 838 l 293 838 l 293 575 l 768 575 l 768 438 l 293 438 l 293 147 l 831 147 l 831 0 l 119 0 l 119 983 z "},"é":{"ha":876,"x_min":61,"x_max":817,"o":"m 364 819 l 511 1025 l 671 1025 l 506 819 l 364 819 m 446 -25 q 247 24 335 -25 q 110 162 160 74 q 61 361 61 250 q 110 553 61 468 q 245 685 158 638 q 442 732 332 732 q 635 685 550 732 q 769 553 721 638 q 817 360 817 468 q 814 304 817 321 l 224 304 q 299 158 238 213 q 451 103 360 103 q 575 134 519 103 q 660 219 631 165 l 790 169 q 660 26 751 78 q 446 -25 568 -25 m 653 421 q 581 553 640 503 q 436 604 521 604 q 296 554 353 604 q 224 421 239 504 l 653 421 z "},"Ě":{"ha":893,"x_min":119,"x_max":831,"o":"m 229 1257 l 365 1257 l 465 1172 l 481 1172 l 579 1257 l 715 1257 l 558 1093 l 386 1093 l 229 1257 m 119 983 l 817 983 l 817 838 l 293 838 l 293 575 l 768 575 l 768 438 l 293 438 l 293 147 l 831 147 l 831 0 l 119 0 l 119 983 z "},"ě":{"ha":876,"x_min":61,"x_max":817,"o":"m 335 1025 l 432 910 l 446 910 l 543 1025 l 676 1025 l 522 819 l 356 819 l 201 1025 l 335 1025 m 446 -25 q 247 24 335 -25 q 110 162 160 74 q 61 361 61 250 q 110 553 61 468 q 245 685 158 638 q 442 732 332 732 q 635 685 550 732 q 769 553 721 638 q 817 360 817 468 q 814 304 817 321 l 224 304 q 299 158 238 213 q 451 103 360 103 q 575 134 519 103 q 660 219 631 165 l 790 169 q 660 26 751 78 q 446 -25 568 -25 m 653 421 q 581 553 640 503 q 436 604 521 604 q 296 554 353 604 q 224 421 239 504 l 653 421 z "},"Ê":{"ha":893,"x_min":119,"x_max":831,"o":"m 558 1257 l 717 1093 l 581 1093 l 481 1178 l 465 1178 l 367 1093 l 231 1093 l 388 1257 l 558 1257 m 119 983 l 817 983 l 817 838 l 293 838 l 293 575 l 768 575 l 768 438 l 293 438 l 293 147 l 831 147 l 831 0 l 119 0 l 119 983 z "},"ê":{"ha":876,"x_min":61,"x_max":817,"o":"m 358 1021 l 525 1021 l 681 815 l 546 815 l 450 931 l 436 931 l 338 815 l 204 815 l 358 1021 m 446 -25 q 247 24 335 -25 q 110 162 160 74 q 61 361 61 250 q 110 553 61 468 q 245 685 158 638 q 442 732 332 732 q 635 685 550 732 q 769 553 721 638 q 817 360 817 468 q 814 304 817 321 l 224 304 q 299 158 238 213 q 451 103 360 103 q 575 134 519 103 q 660 219 631 165 l 790 169 q 660 26 751 78 q 446 -25 568 -25 m 653 421 q 581 553 640 503 q 436 604 521 604 q 296 554 353 604 q 224 421 239 504 l 653 421 z "},"Ë":{"ha":893,"x_min":119,"x_max":831,"o":"m 307 1088 q 238 1114 265 1088 q 211 1182 211 1140 q 238 1249 211 1222 q 307 1275 265 1275 q 375 1249 349 1275 q 401 1182 401 1222 q 375 1114 401 1140 q 307 1088 349 1088 m 638 1088 q 569 1114 596 1088 q 543 1182 543 1140 q 569 1249 543 1222 q 638 1275 596 1275 q 706 1249 679 1275 q 733 1182 733 1222 q 706 1114 733 1140 q 638 1088 679 1088 m 119 983 l 817 983 l 817 838 l 293 838 l 293 575 l 768 575 l 768 438 l 293 438 l 293 147 l 831 147 l 831 0 l 119 0 l 119 983 z "},"ë":{"ha":876,"x_min":61,"x_max":817,"o":"m 267 824 q 201 849 226 824 q 175 914 175 874 q 201 977 175 953 q 267 1001 226 1001 q 333 977 307 1001 q 358 914 358 953 q 333 849 358 874 q 267 824 307 824 m 614 824 q 548 849 574 824 q 522 914 522 875 q 548 977 522 953 q 614 1001 574 1001 q 680 977 654 1001 q 706 914 706 953 q 680 849 706 874 q 614 824 654 824 m 446 -25 q 247 24 335 -25 q 110 162 160 74 q 61 361 61 250 q 110 553 61 468 q 245 685 158 638 q 442 732 332 732 q 635 685 550 732 q 769 553 721 638 q 817 360 817 468 q 814 304 817 321 l 224 304 q 299 158 238 213 q 451 103 360 103 q 575 134 519 103 q 660 219 631 165 l 790 169 q 660 26 751 78 q 446 -25 568 -25 m 653 421 q 581 553 640 503 q 436 604 521 604 q 296 554 353 604 q 224 421 239 504 l 653 421 z "},"Ē":{"ha":893,"x_min":119,"x_max":831,"o":"m 247 1228 l 697 1228 l 697 1115 l 247 1115 l 247 1228 m 119 983 l 817 983 l 817 838 l 293 838 l 293 575 l 768 575 l 768 438 l 293 438 l 293 147 l 831 147 l 831 0 l 119 0 l 119 983 z "},"ē":{"ha":876,"x_min":61,"x_max":817,"o":"m 215 950 l 665 950 l 665 838 l 215 838 l 215 950 m 446 -25 q 247 24 335 -25 q 110 162 160 74 q 61 361 61 250 q 110 553 61 468 q 245 685 158 638 q 442 732 332 732 q 635 685 550 732 q 769 553 721 638 q 817 360 817 468 q 814 304 817 321 l 224 304 q 299 158 238 213 q 451 103 360 103 q 575 134 519 103 q 660 219 631 165 l 790 169 q 660 26 751 78 q 446 -25 568 -25 m 653 421 q 581 553 640 503 q 436 604 521 604 q 296 554 353 604 q 224 421 239 504 l 653 421 z "},"Ĕ":{"ha":893,"x_min":119,"x_max":831,"o":"m 472 1079 q 313 1129 375 1079 q 250 1257 250 1179 l 385 1257 q 408 1199 385 1219 q 472 1178 432 1178 q 535 1199 513 1178 q 558 1257 558 1219 l 692 1257 q 630 1129 692 1179 q 472 1079 568 1079 m 119 983 l 817 983 l 817 838 l 293 838 l 293 575 l 768 575 l 768 438 l 293 438 l 293 147 l 831 147 l 831 0 l 119 0 l 119 983 z "},"ĕ":{"ha":876,"x_min":61,"x_max":817,"o":"m 440 831 q 300 885 356 831 q 244 1025 244 940 l 361 1025 q 382 954 361 981 q 440 928 403 928 q 499 955 478 928 q 519 1025 519 982 l 636 1025 q 581 885 636 940 q 440 831 525 831 m 446 -25 q 247 24 335 -25 q 110 162 160 74 q 61 361 61 250 q 110 553 61 468 q 245 685 158 638 q 442 732 332 732 q 635 685 550 732 q 769 553 721 638 q 817 360 817 468 q 814 304 817 321 l 224 304 q 299 158 238 213 q 451 103 360 103 q 575 134 519 103 q 660 219 631 165 l 790 169 q 660 26 751 78 q 446 -25 568 -25 m 653 421 q 581 553 640 503 q 436 604 521 604 q 296 554 353 604 q 224 421 239 504 l 653 421 z "},"Ė":{"ha":893,"x_min":119,"x_max":831,"o":"m 472 1093 q 401 1119 429 1093 q 374 1186 374 1146 q 401 1253 374 1226 q 472 1279 429 1279 q 543 1253 515 1279 q 571 1186 571 1226 q 543 1119 571 1146 q 472 1093 515 1093 m 119 983 l 817 983 l 817 838 l 293 838 l 293 575 l 768 575 l 768 438 l 293 438 l 293 147 l 831 147 l 831 0 l 119 0 l 119 983 z "},"ė":{"ha":876,"x_min":61,"x_max":817,"o":"m 440 824 q 367 852 396 824 q 338 925 338 881 q 367 997 338 968 q 440 1025 396 1025 q 514 997 485 1025 q 543 925 543 968 q 514 852 543 881 q 440 824 485 824 m 446 -25 q 247 24 335 -25 q 110 162 160 74 q 61 361 61 250 q 110 553 61 468 q 245 685 158 638 q 442 732 332 732 q 635 685 550 732 q 769 553 721 638 q 817 360 817 468 q 814 304 817 321 l 224 304 q 299 158 238 213 q 451 103 360 103 q 575 134 519 103 q 660 219 631 165 l 790 169 q 660 26 751 78 q 446 -25 568 -25 m 653 421 q 581 553 640 503 q 436 604 521 604 q 296 554 353 604 q 224 421 239 504 l 653 421 z "},"Ę":{"ha":893,"x_min":119,"x_max":831,"o":"m 831 147 l 831 0 l 776 0 q 665 -69 706 -29 q 624 -147 624 -108 q 640 -188 624 -172 q 686 -204 657 -204 q 764 -179 721 -204 l 764 -253 q 714 -273 742 -265 q 661 -281 686 -281 q 577 -250 610 -281 q 544 -171 544 -219 q 576 -81 544 -125 q 665 0 607 -36 l 119 0 l 119 983 l 817 983 l 817 838 l 293 838 l 293 575 l 768 575 l 768 438 l 293 438 l 293 147 l 831 147 z "},"ę":{"ha":876,"x_min":61,"x_max":817,"o":"m 817 360 q 814 304 817 321 l 224 304 q 299 158 238 213 q 451 103 360 103 q 575 134 519 103 q 660 219 631 165 l 790 169 q 701 53 761 100 q 558 -12 640 7 q 467 -76 500 -40 q 433 -147 433 -112 q 450 -188 433 -172 q 496 -204 467 -204 q 575 -179 532 -204 l 575 -253 q 524 -273 553 -265 q 471 -281 496 -281 q 387 -250 419 -281 q 354 -171 354 -219 q 439 -25 354 -93 q 244 26 331 -24 q 110 164 158 76 q 61 361 61 251 q 110 553 61 468 q 245 685 158 638 q 442 732 332 732 q 635 685 550 732 q 769 553 721 638 q 817 360 817 468 m 653 421 q 581 553 640 503 q 436 604 521 604 q 296 554 353 604 q 224 421 239 504 l 653 421 z "},"Ĝ":{"ha":1181,"x_min":64,"x_max":1119,"o":"m 688 1257 l 844 1093 l 710 1093 l 610 1178 l 594 1178 l 496 1093 l 360 1093 l 515 1257 l 688 1257 m 600 -32 q 324 35 446 -32 q 133 222 201 103 q 64 492 64 342 q 133 762 64 643 q 324 948 201 881 q 600 1015 446 1015 q 799 978 704 1015 q 960 876 893 942 q 1054 728 1028 810 l 893 685 q 783 815 867 764 q 600 867 700 867 q 413 819 496 867 q 285 685 331 771 q 239 492 239 600 q 285 299 239 385 q 415 165 332 214 q 603 117 499 117 q 772 156 694 117 q 895 265 849 196 q 943 418 942 335 l 503 418 l 503 551 l 1117 551 q 1119 496 1119 513 q 1054 222 1119 342 q 871 35 989 101 q 600 -32 753 -32 z "},"ĝ":{"ha":918,"x_min":61,"x_max":825,"o":"m 363 1021 l 529 1021 l 685 815 l 550 815 l 454 931 l 440 931 l 342 815 l 208 815 l 363 1021 m 443 -344 q 203 -283 300 -344 q 72 -107 106 -221 l 228 -64 q 309 -174 253 -135 q 444 -212 365 -212 q 607 -151 547 -212 q 667 14 667 -90 l 667 97 l 653 97 q 414 -14 560 -14 q 232 33 313 -14 q 106 163 151 79 q 61 353 61 246 q 106 548 61 463 q 232 681 151 633 q 414 729 313 729 q 657 614 564 729 l 671 614 l 671 706 l 825 706 l 825 11 q 778 -178 825 -97 q 645 -301 732 -258 q 443 -344 558 -344 m 446 119 q 563 149 511 119 q 644 233 615 179 q 674 353 674 286 q 644 477 674 422 q 563 563 615 532 q 446 594 511 594 q 328 563 381 594 q 247 477 276 532 q 218 353 218 422 q 247 233 218 286 q 328 149 276 179 q 446 119 381 119 z "},"Ğ":{"ha":1181,"x_min":64,"x_max":1119,"o":"m 600 1079 q 442 1129 504 1079 q 379 1257 379 1179 l 514 1257 q 537 1199 514 1219 q 600 1178 560 1178 q 664 1199 640 1178 q 688 1257 688 1219 l 821 1257 q 759 1129 821 1179 q 600 1079 697 1079 m 600 -32 q 324 35 446 -32 q 133 222 201 103 q 64 492 64 342 q 133 762 64 643 q 324 948 201 881 q 600 1015 446 1015 q 799 978 704 1015 q 960 876 893 942 q 1054 728 1028 810 l 893 685 q 783 815 867 764 q 600 867 700 867 q 413 819 496 867 q 285 685 331 771 q 239 492 239 600 q 285 299 239 385 q 415 165 332 214 q 603 117 499 117 q 772 156 694 117 q 895 265 849 196 q 943 418 942 335 l 503 418 l 503 551 l 1117 551 q 1119 496 1119 513 q 1054 222 1119 342 q 871 35 989 101 q 600 -32 753 -32 z "},"ğ":{"ha":918,"x_min":61,"x_max":825,"o":"m 444 831 q 303 885 358 831 q 249 1025 249 940 l 364 1025 q 385 955 364 982 q 444 928 407 928 q 503 955 482 928 q 524 1025 524 982 l 640 1025 q 585 885 640 940 q 444 831 529 831 m 443 -344 q 203 -283 300 -344 q 72 -107 106 -221 l 228 -64 q 309 -174 253 -135 q 444 -212 365 -212 q 607 -151 547 -212 q 667 14 667 -90 l 667 97 l 653 97 q 414 -14 560 -14 q 232 33 313 -14 q 106 163 151 79 q 61 353 61 246 q 106 548 61 463 q 232 681 151 633 q 414 729 313 729 q 657 614 564 729 l 671 614 l 671 706 l 825 706 l 825 11 q 778 -178 825 -97 q 645 -301 732 -258 q 443 -344 558 -344 m 446 119 q 563 149 511 119 q 644 233 615 179 q 674 353 674 286 q 644 477 674 422 q 563 563 615 532 q 446 594 511 594 q 328 563 381 594 q 247 477 276 532 q 218 353 218 422 q 247 233 218 286 q 328 149 276 179 q 446 119 381 119 z "},"Ġ":{"ha":1181,"x_min":64,"x_max":1119,"o":"m 600 1093 q 529 1119 557 1093 q 501 1186 501 1146 q 529 1253 501 1226 q 600 1279 557 1279 q 672 1253 643 1279 q 700 1186 700 1226 q 672 1119 700 1146 q 600 1093 643 1093 m 600 -32 q 324 35 446 -32 q 133 222 201 103 q 64 492 64 342 q 133 762 64 643 q 324 948 201 881 q 600 1015 446 1015 q 799 978 704 1015 q 960 876 893 942 q 1054 728 1028 810 l 893 685 q 783 815 867 764 q 600 867 700 867 q 413 819 496 867 q 285 685 331 771 q 239 492 239 600 q 285 299 239 385 q 415 165 332 214 q 603 117 499 117 q 772 156 694 117 q 895 265 849 196 q 943 418 942 335 l 503 418 l 503 551 l 1117 551 q 1119 496 1119 513 q 1054 222 1119 342 q 871 35 989 101 q 600 -32 753 -32 z "},"ġ":{"ha":918,"x_min":61,"x_max":825,"o":"m 444 824 q 371 852 400 824 q 342 925 342 881 q 371 997 342 968 q 444 1025 400 1025 q 517 997 489 1025 q 546 925 546 969 q 517 852 546 881 q 444 824 489 824 m 443 -344 q 203 -283 300 -344 q 72 -107 106 -221 l 228 -64 q 309 -174 253 -135 q 444 -212 365 -212 q 607 -151 547 -212 q 667 14 667 -90 l 667 97 l 653 97 q 414 -14 560 -14 q 232 33 313 -14 q 106 163 151 79 q 61 353 61 246 q 106 548 61 463 q 232 681 151 633 q 414 729 313 729 q 657 614 564 729 l 671 614 l 671 706 l 825 706 l 825 11 q 778 -178 825 -97 q 645 -301 732 -258 q 443 -344 558 -344 m 446 119 q 563 149 511 119 q 644 233 615 179 q 674 353 674 286 q 644 477 674 422 q 563 563 615 532 q 446 594 511 594 q 328 563 381 594 q 247 477 276 532 q 218 353 218 422 q 247 233 218 286 q 328 149 276 179 q 446 119 381 119 z "},"Ģ":{"ha":1181,"x_min":64,"x_max":1119,"o":"m 600 -32 q 324 35 446 -32 q 133 222 201 103 q 64 492 64 342 q 133 762 64 643 q 324 948 201 881 q 600 1015 446 1015 q 799 978 704 1015 q 960 876 893 942 q 1054 728 1028 810 l 893 685 q 783 815 867 764 q 600 867 700 867 q 413 819 496 867 q 285 685 331 771 q 239 492 239 600 q 285 299 239 385 q 415 165 332 214 q 603 117 499 117 q 772 156 694 117 q 895 265 849 196 q 943 418 942 335 l 503 418 l 503 551 l 1117 551 q 1119 496 1119 513 q 1054 222 1119 342 q 871 35 989 101 q 600 -32 753 -32 m 540 -374 l 596 -269 q 538 -243 561 -267 q 515 -187 515 -219 q 540 -126 515 -150 q 601 -101 564 -101 q 665 -126 640 -101 q 689 -186 689 -150 q 668 -257 689 -221 l 592 -390 l 540 -374 z "},"ģ":{"ha":918,"x_min":61,"x_max":825,"o":"m 506 1079 l 451 975 q 508 949 486 972 q 531 893 531 925 q 506 833 531 857 q 444 808 482 808 q 381 832 406 808 q 357 893 357 856 q 379 964 357 929 l 454 1096 l 506 1079 m 443 -344 q 203 -283 300 -344 q 72 -107 106 -221 l 228 -64 q 309 -174 253 -135 q 444 -212 365 -212 q 607 -151 547 -212 q 667 14 667 -90 l 667 97 l 653 97 q 414 -14 560 -14 q 232 33 313 -14 q 106 163 151 79 q 61 353 61 246 q 106 548 61 463 q 232 681 151 633 q 414 729 313 729 q 657 614 564 729 l 671 614 l 671 706 l 825 706 l 825 11 q 778 -178 825 -97 q 645 -301 732 -258 q 443 -344 558 -344 m 446 119 q 563 149 511 119 q 644 233 615 179 q 674 353 674 286 q 644 477 674 422 q 563 563 615 532 q 446 594 511 594 q 328 563 381 594 q 247 477 276 532 q 218 353 218 422 q 247 233 218 286 q 328 149 276 179 q 446 119 381 119 z "},"Ì":{"ha":414,"x_min":-39,"x_max":294,"o":"m 128 1093 l -39 1257 l 136 1257 l 286 1093 l 128 1093 m 121 983 l 294 983 l 294 0 l 121 0 l 121 983 z "},"ì":{"ha":346,"x_min":-57,"x_max":253,"o":"m -57 1025 l 103 1025 l 250 819 l 108 819 l -57 1025 m 94 706 l 253 706 l 253 0 l 94 0 l 94 706 z "},"Í":{"ha":414,"x_min":121,"x_max":453,"o":"m 279 1257 l 453 1257 l 286 1093 l 128 1093 l 279 1257 m 121 983 l 294 983 l 294 0 l 121 0 l 121 983 z "},"í":{"ha":346,"x_min":94,"x_max":404,"o":"m 97 819 l 244 1025 l 404 1025 l 240 819 l 97 819 m 94 706 l 253 706 l 253 0 l 94 0 l 94 706 z "},"Î":{"ha":414,"x_min":-35,"x_max":450,"o":"m 293 1257 l 450 1093 l 315 1093 l 215 1178 l 200 1178 l 101 1093 l -35 1093 l 121 1257 l 293 1257 m 121 983 l 294 983 l 294 0 l 121 0 l 121 983 z "},"î":{"ha":346,"x_min":-61,"x_max":414,"o":"m 93 1021 l 258 1021 l 414 815 l 279 815 l 183 931 l 169 931 l 72 815 l -61 815 l 93 1021 m 94 706 l 253 706 l 253 0 l 94 0 l 94 706 z "},"Ï":{"ha":414,"x_min":-53,"x_max":468,"o":"m 42 1088 q -26 1114 0 1088 q -53 1182 -53 1140 q -26 1249 -53 1222 q 42 1275 0 1275 q 110 1249 83 1275 q 138 1182 138 1222 q 110 1114 138 1140 q 42 1088 83 1088 m 374 1088 q 305 1114 332 1088 q 278 1182 278 1140 q 305 1249 278 1222 q 374 1275 332 1275 q 442 1249 415 1275 q 468 1182 468 1222 q 442 1114 468 1140 q 374 1088 415 1088 m 121 983 l 294 983 l 294 0 l 121 0 l 121 983 z "},"ï":{"ha":346,"x_min":-92,"x_max":439,"o":"m 0 824 q -66 849 -40 824 q -92 914 -92 875 q -66 977 -92 953 q 0 1001 -40 1001 q 66 977 40 1001 q 92 914 92 953 q 66 849 92 874 q 0 824 40 824 m 347 824 q 281 849 307 824 q 256 914 256 875 q 281 977 256 953 q 347 1001 307 1001 q 413 977 388 1001 q 439 914 439 953 q 413 849 439 874 q 347 824 388 824 m 94 706 l 253 706 l 253 0 l 94 0 l 94 706 z "},"Ĩ":{"ha":414,"x_min":-58,"x_max":465,"o":"m 297 1108 q 231 1121 257 1108 q 172 1156 204 1133 q 136 1180 151 1172 q 103 1188 121 1188 q 54 1170 78 1188 q 14 1124 31 1153 l -58 1178 q 8 1253 -35 1225 q 104 1281 51 1281 q 168 1269 142 1281 q 225 1235 194 1257 q 267 1209 250 1217 q 303 1201 283 1201 q 353 1219 331 1201 q 392 1265 376 1236 l 465 1213 q 396 1136 439 1164 q 297 1108 353 1108 m 121 983 l 294 983 l 294 0 l 121 0 l 121 983 z "},"ĩ":{"ha":346,"x_min":-86,"x_max":439,"o":"m 269 817 q 203 828 231 817 q 146 863 176 840 q 105 887 119 879 q 71 894 90 894 q 24 881 46 894 q -12 843 1 867 l -86 899 q -17 972 -61 944 q 79 1000 26 1000 q 141 988 115 1000 q 199 956 167 976 q 243 930 228 938 q 279 922 258 922 q 329 937 306 922 q 364 975 353 951 l 439 921 q 369 844 413 872 q 269 817 326 817 m 94 706 l 253 706 l 253 0 l 94 0 l 94 706 z "},"Ī":{"ha":414,"x_min":-18,"x_max":432,"o":"m -18 1228 l 432 1228 l 432 1115 l -18 1115 l -18 1228 m 121 983 l 294 983 l 294 0 l 121 0 l 121 983 z "},"ī":{"ha":346,"x_min":-51,"x_max":399,"o":"m -51 950 l 399 950 l 399 838 l -51 838 l -51 950 m 94 706 l 253 706 l 253 0 l 94 0 l 94 706 z "},"Į":{"ha":414,"x_min":28,"x_max":294,"o":"m 294 983 l 294 0 l 260 0 q 147 -69 189 -29 q 106 -147 106 -108 q 123 -188 106 -172 q 169 -204 140 -204 q 247 -179 204 -204 l 247 -253 q 197 -273 225 -265 q 143 -281 169 -281 q 60 -250 92 -281 q 28 -171 28 -219 q 58 -80 28 -124 q 149 0 89 -36 l 121 0 l 121 983 l 294 983 z "},"į":{"ha":365,"x_min":7,"x_max":286,"o":"m 183 824 q 110 852 139 824 q 81 925 81 881 q 110 997 81 968 q 183 1025 139 1025 q 257 997 228 1025 q 286 925 286 968 q 257 852 286 881 q 183 824 228 824 m 104 706 l 261 706 l 261 0 l 239 0 q 127 -69 168 -29 q 86 -147 86 -108 q 103 -188 86 -172 q 149 -204 119 -204 q 226 -179 183 -204 l 226 -253 q 176 -273 204 -265 q 124 -281 149 -281 q 40 -250 72 -281 q 7 -171 7 -219 q 38 -81 7 -125 q 128 0 69 -36 l 104 0 l 104 706 z "},"İ":{"ha":414,"x_min":108,"x_max":306,"o":"m 207 1093 q 136 1119 164 1093 q 108 1186 108 1146 q 136 1253 108 1226 q 207 1279 164 1279 q 278 1253 250 1279 q 306 1186 306 1226 q 278 1119 306 1146 q 207 1093 250 1093 m 121 983 l 294 983 l 294 0 l 121 0 l 121 983 z "},"ı":{"ha":346,"x_min":94,"x_max":251,"o":"m 94 706 l 251 706 l 251 0 l 94 0 l 94 706 z "},"Ĳ":{"ha":1033,"x_min":121,"x_max":921,"o":"m 121 983 l 294 983 l 294 0 l 121 0 l 121 983 m 607 -25 q 512 -17 564 -25 q 419 3 460 -10 l 419 143 q 563 121 503 121 q 695 173 644 121 q 746 313 746 225 l 746 983 l 921 983 l 921 304 q 881 133 921 208 q 769 17 840 58 q 607 -25 697 -25 z "},"ĳ":{"ha":744,"x_min":81,"x_max":653,"o":"m 183 824 q 110 852 139 824 q 81 925 81 881 q 110 997 81 968 q 183 1025 139 1025 q 257 997 228 1025 q 286 925 286 968 q 257 852 286 881 q 183 824 228 824 m 550 824 q 477 852 506 824 q 449 925 449 881 q 477 997 449 969 q 550 1025 506 1025 q 624 997 596 1025 q 653 925 653 969 q 624 852 653 881 q 550 824 596 824 m 104 706 l 261 706 l 261 0 l 104 0 l 104 706 m 418 -317 q 344 -312 382 -317 q 281 -297 306 -307 l 281 -168 q 369 -179 314 -179 q 444 -150 417 -179 q 472 -72 472 -121 l 472 706 l 629 706 l 629 -79 q 570 -250 629 -183 q 418 -317 511 -317 z "},"Ķ":{"ha":919,"x_min":119,"x_max":896,"o":"m 119 983 l 294 983 l 294 567 l 308 567 l 672 983 l 885 983 l 458 508 l 896 0 l 683 0 l 308 447 l 294 447 l 294 0 l 119 0 l 119 983 m 440 -374 l 496 -269 q 438 -243 461 -267 q 415 -187 415 -219 q 440 -126 415 -150 q 501 -101 464 -101 q 565 -126 540 -101 q 589 -186 589 -150 q 568 -257 589 -221 l 492 -390 l 440 -374 z "},"ķ":{"ha":738,"x_min":94,"x_max":738,"o":"m 94 1025 l 251 1025 l 251 417 l 265 417 l 532 706 l 731 706 l 408 367 l 738 0 l 538 0 l 265 315 l 251 315 l 251 0 l 94 0 l 94 1025 m 332 -374 l 388 -269 q 330 -243 353 -267 q 307 -187 307 -219 q 331 -126 307 -150 q 394 -101 356 -101 q 456 -126 432 -101 q 481 -186 481 -150 q 460 -257 481 -221 l 383 -390 l 332 -374 z "},"Ĺ":{"ha":806,"x_min":121,"x_max":767,"o":"m 281 1257 l 454 1257 l 288 1093 l 129 1093 l 281 1257 m 121 983 l 294 983 l 294 151 l 767 151 l 767 0 l 121 0 l 121 983 z "},"ĺ":{"ha":344,"x_min":93,"x_max":418,"o":"m 244 1257 l 418 1257 l 251 1093 l 93 1093 l 244 1257 m 93 1025 l 251 1025 l 251 0 l 93 0 l 93 1025 z "},"Ľ":{"ha":806,"x_min":121,"x_max":767,"o":"m 447 726 l 503 831 q 445 857 468 833 q 422 913 422 881 q 447 973 422 949 q 508 997 471 997 q 572 974 547 997 q 596 913 596 950 q 575 842 596 878 l 499 710 l 447 726 m 121 983 l 294 983 l 294 151 l 767 151 l 767 0 l 121 0 l 121 983 z "},"ľ":{"ha":346,"x_min":93,"x_max":519,"o":"m 371 765 l 426 869 q 369 896 392 872 q 346 951 346 919 q 370 1013 346 989 q 433 1038 394 1038 q 495 1013 471 1038 q 519 953 519 989 q 499 882 519 917 l 422 749 l 371 765 m 93 1025 l 251 1025 l 251 0 l 93 0 l 93 1025 z "},"Ļ":{"ha":806,"x_min":121,"x_max":767,"o":"m 121 983 l 294 983 l 294 151 l 767 151 l 767 0 l 121 0 l 121 983 m 406 -374 l 460 -269 q 402 -243 425 -267 q 379 -187 379 -219 q 403 -126 379 -150 q 467 -101 428 -101 q 528 -126 504 -101 q 553 -186 553 -150 q 532 -257 553 -221 l 457 -390 l 406 -374 z "},"ļ":{"ha":344,"x_min":86,"x_max":260,"o":"m 93 1025 l 251 1025 l 251 0 l 93 0 l 93 1025 m 111 -374 l 167 -269 q 109 -243 132 -267 q 86 -187 86 -219 q 110 -126 86 -150 q 172 -101 135 -101 q 235 -126 211 -101 q 260 -186 260 -150 q 239 -257 260 -221 l 163 -390 l 111 -374 z "},"Ł":{"ha":876,"x_min":40,"x_max":838,"o":"m 838 151 l 838 0 l 192 0 l 192 324 l 40 232 l 40 374 l 192 465 l 192 983 l 367 983 l 367 572 l 729 793 l 729 651 l 367 431 l 367 151 l 838 151 z "},"ł":{"ha":590,"x_min":15,"x_max":576,"o":"m 576 642 l 369 508 l 369 0 l 213 0 l 213 408 l 15 282 l 15 424 l 213 550 l 213 1025 l 369 1025 l 369 650 l 576 783 l 576 642 z "},"Ń":{"ha":1065,"x_min":119,"x_max":946,"o":"m 631 1257 l 804 1257 l 638 1093 l 479 1093 l 631 1257 m 119 983 l 344 983 l 763 228 l 776 228 l 776 983 l 946 983 l 946 0 l 722 0 l 304 756 l 290 756 l 290 0 l 119 0 l 119 983 z "},"ń":{"ha":842,"x_min":94,"x_max":761,"o":"m 367 819 l 514 1025 l 674 1025 l 508 819 l 367 819 m 94 706 l 251 706 l 251 611 l 265 611 q 358 699 304 669 q 478 729 413 729 q 626 690 561 729 q 726 583 690 651 q 761 428 761 515 l 761 0 l 603 0 l 603 415 q 559 543 603 494 q 440 592 515 592 q 346 567 389 592 q 277 501 303 543 q 251 406 251 458 l 251 0 l 94 0 l 94 706 z "},"Ň":{"ha":1065,"x_min":119,"x_max":946,"o":"m 317 1257 l 453 1257 l 551 1172 l 567 1172 l 667 1257 l 801 1257 l 644 1093 l 472 1093 l 317 1257 m 119 983 l 344 983 l 763 228 l 776 228 l 776 983 l 946 983 l 946 0 l 722 0 l 304 756 l 290 756 l 290 0 l 119 0 l 119 983 z "},"ň":{"ha":842,"x_min":94,"x_max":761,"o":"m 336 1025 l 435 910 l 449 910 l 544 1025 l 679 1025 l 524 819 l 357 819 l 204 1025 l 336 1025 m 94 706 l 251 706 l 251 611 l 265 611 q 358 699 304 669 q 478 729 413 729 q 626 690 561 729 q 726 583 690 651 q 761 428 761 515 l 761 0 l 603 0 l 603 415 q 559 543 603 494 q 440 592 515 592 q 346 567 389 592 q 277 501 303 543 q 251 406 251 458 l 251 0 l 94 0 l 94 706 z "},"Ñ":{"ha":1065,"x_min":119,"x_max":946,"o":"m 649 1108 q 582 1121 608 1108 q 524 1156 556 1133 q 488 1180 503 1172 q 454 1188 472 1188 q 406 1170 429 1188 q 365 1124 382 1153 l 293 1178 q 360 1253 317 1225 q 456 1281 403 1281 q 519 1269 493 1281 q 576 1235 546 1257 q 618 1209 601 1217 q 654 1201 635 1201 q 705 1219 682 1201 q 743 1265 728 1236 l 817 1213 q 747 1136 790 1164 q 649 1108 704 1108 m 119 983 l 344 983 l 763 228 l 776 228 l 776 983 l 946 983 l 946 0 l 722 0 l 304 756 l 290 756 l 290 0 l 119 0 l 119 983 z "},"ñ":{"ha":842,"x_min":94,"x_max":761,"o":"m 539 817 q 473 828 500 817 q 415 863 446 840 q 374 887 390 879 q 339 894 358 894 q 292 881 314 894 q 256 843 269 867 l 183 899 q 251 972 207 944 q 347 1000 294 1000 q 409 988 383 1000 q 467 956 435 976 q 511 930 496 938 q 547 922 526 922 q 598 937 575 922 q 632 975 621 951 l 707 921 q 638 844 681 872 q 539 817 594 817 m 94 706 l 251 706 l 251 611 l 265 611 q 358 699 304 669 q 478 729 413 729 q 626 690 561 729 q 726 583 690 651 q 761 428 761 515 l 761 0 l 603 0 l 603 415 q 559 543 603 494 q 440 592 515 592 q 346 567 389 592 q 277 501 303 543 q 251 406 251 458 l 251 0 l 94 0 l 94 706 z "},"Ņ":{"ha":1065,"x_min":119,"x_max":946,"o":"m 119 983 l 344 983 l 763 228 l 776 228 l 776 983 l 946 983 l 946 0 l 722 0 l 304 756 l 290 756 l 290 0 l 119 0 l 119 983 m 497 -374 l 551 -269 q 494 -243 517 -267 q 471 -187 471 -219 q 495 -126 471 -150 q 558 -101 519 -101 q 622 -126 597 -101 q 646 -186 646 -150 q 624 -257 646 -218 l 549 -390 l 497 -374 z "},"ņ":{"ha":842,"x_min":94,"x_max":761,"o":"m 94 706 l 251 706 l 251 611 l 265 611 q 358 699 304 669 q 478 729 413 729 q 626 690 561 729 q 726 583 690 651 q 761 428 761 515 l 761 0 l 603 0 l 603 415 q 559 543 603 494 q 440 592 515 592 q 346 567 389 592 q 277 501 303 543 q 251 406 251 458 l 251 0 l 94 0 l 94 706 m 368 -374 l 424 -269 q 366 -243 389 -267 q 343 -187 343 -219 q 367 -126 343 -150 q 429 -101 392 -101 q 492 -126 468 -101 q 517 -186 517 -150 q 496 -257 517 -221 l 419 -390 l 368 -374 z "},"Ò":{"ha":1199,"x_min":63,"x_max":1136,"o":"m 521 1093 l 354 1257 l 528 1257 l 679 1093 l 521 1093 m 600 -31 q 321 35 443 -31 q 131 220 199 101 q 63 492 63 339 q 131 764 63 644 q 321 949 199 883 q 600 1015 443 1015 q 878 949 756 1015 q 1068 764 1000 883 q 1136 492 1136 644 q 1068 220 1136 339 q 878 35 1000 101 q 600 -31 756 -31 m 600 118 q 788 166 706 118 q 916 299 869 214 q 963 492 963 383 q 916 685 963 600 q 788 819 869 771 q 600 867 706 867 q 413 819 494 867 q 284 685 331 771 q 238 492 238 600 q 284 299 238 383 q 413 166 331 214 q 600 118 494 118 z "},"ò":{"ha":889,"x_min":60,"x_max":829,"o":"m 214 1025 l 374 1025 l 521 819 l 379 819 l 214 1025 m 444 -25 q 244 22 332 -25 q 108 156 157 69 q 60 353 60 242 q 108 550 60 464 q 244 684 157 636 q 444 732 331 732 q 644 684 557 732 q 781 550 732 636 q 829 353 829 464 q 781 156 829 242 q 644 22 732 69 q 444 -25 557 -25 m 444 113 q 562 143 510 113 q 643 228 614 174 q 672 353 672 283 q 643 477 672 422 q 562 563 614 532 q 444 594 510 594 q 327 563 379 594 q 246 477 275 532 q 217 353 217 422 q 246 228 217 283 q 327 143 275 174 q 444 113 379 113 z "},"Ó":{"ha":1199,"x_min":63,"x_max":1136,"o":"m 671 1257 l 846 1257 l 679 1093 l 521 1093 l 671 1257 m 600 -31 q 321 35 443 -31 q 131 220 199 101 q 63 492 63 339 q 131 764 63 644 q 321 949 199 883 q 600 1015 443 1015 q 878 949 756 1015 q 1068 764 1000 883 q 1136 492 1136 644 q 1068 220 1136 339 q 878 35 1000 101 q 600 -31 756 -31 m 600 118 q 788 166 706 118 q 916 299 869 214 q 963 492 963 383 q 916 685 963 600 q 788 819 869 771 q 600 867 706 867 q 413 819 494 867 q 284 685 331 771 q 238 492 238 600 q 284 299 238 383 q 413 166 331 214 q 600 118 494 118 z "},"ó":{"ha":889,"x_min":60,"x_max":829,"o":"m 368 819 l 515 1025 l 675 1025 l 510 819 l 368 819 m 444 -25 q 244 22 332 -25 q 108 156 157 69 q 60 353 60 242 q 108 550 60 464 q 244 684 157 636 q 444 732 331 732 q 644 684 557 732 q 781 550 732 636 q 829 353 829 464 q 781 156 829 242 q 644 22 732 69 q 444 -25 557 -25 m 444 113 q 562 143 510 113 q 643 228 614 174 q 672 353 672 283 q 643 477 672 422 q 562 563 614 532 q 444 594 510 594 q 327 563 379 594 q 246 477 275 532 q 217 353 217 422 q 246 228 217 283 q 327 143 275 174 q 444 113 379 113 z "},"Õ":{"ha":1199,"x_min":63,"x_max":1136,"o":"m 690 1108 q 622 1121 650 1108 q 564 1156 594 1133 q 528 1180 543 1172 q 494 1188 513 1188 q 407 1124 444 1188 l 333 1178 q 401 1253 358 1225 q 497 1281 443 1281 q 560 1269 533 1281 q 617 1235 586 1257 q 637 1222 621 1232 q 667 1206 653 1211 q 696 1201 682 1201 q 746 1219 722 1201 q 785 1265 769 1236 l 857 1213 q 788 1136 831 1164 q 690 1108 746 1108 m 600 -31 q 321 35 443 -31 q 131 220 199 101 q 63 492 63 339 q 131 764 63 644 q 321 949 199 883 q 600 1015 443 1015 q 878 949 756 1015 q 1068 764 1000 883 q 1136 492 1136 644 q 1068 220 1136 339 q 878 35 1000 101 q 600 -31 756 -31 m 600 118 q 788 166 706 118 q 916 299 869 214 q 963 492 963 383 q 916 685 963 600 q 788 819 869 771 q 600 867 706 867 q 413 819 494 867 q 284 685 331 771 q 238 492 238 600 q 284 299 238 383 q 413 166 331 214 q 600 118 494 118 z "},"õ":{"ha":889,"x_min":60,"x_max":829,"o":"m 540 817 q 474 828 501 817 q 417 863 447 840 q 376 887 390 879 q 342 894 361 894 q 293 881 315 894 q 258 843 271 867 l 185 899 q 253 972 210 944 q 350 1000 297 1000 q 410 988 385 1000 q 468 956 436 976 q 513 930 497 938 q 549 922 529 922 q 599 937 576 922 q 635 975 622 951 l 708 921 q 640 844 682 872 q 540 817 597 817 m 444 -25 q 244 22 332 -25 q 108 156 157 69 q 60 353 60 242 q 108 550 60 464 q 244 684 157 636 q 444 732 331 732 q 644 684 557 732 q 781 550 732 636 q 829 353 829 464 q 781 156 829 242 q 644 22 732 69 q 444 -25 557 -25 m 444 113 q 562 143 510 113 q 643 228 614 174 q 672 353 672 283 q 643 477 672 422 q 562 563 614 532 q 444 594 510 594 q 327 563 379 594 q 246 477 275 532 q 217 353 217 422 q 246 228 217 283 q 327 143 275 174 q 444 113 379 113 z "},"Ö":{"ha":1199,"x_min":63,"x_max":1136,"o":"m 435 1088 q 366 1114 393 1088 q 339 1182 339 1140 q 366 1249 339 1222 q 435 1275 393 1275 q 503 1249 476 1275 q 529 1182 529 1222 q 503 1114 529 1140 q 435 1088 476 1088 m 765 1088 q 697 1114 724 1088 q 671 1182 671 1140 q 697 1249 671 1222 q 765 1275 724 1275 q 834 1249 807 1275 q 861 1182 861 1222 q 834 1114 861 1140 q 765 1088 807 1088 m 600 -31 q 321 35 443 -31 q 131 220 199 101 q 63 492 63 339 q 131 764 63 644 q 321 949 199 883 q 600 1015 443 1015 q 878 949 756 1015 q 1068 764 1000 883 q 1136 492 1136 644 q 1068 220 1136 339 q 878 35 1000 101 q 600 -31 756 -31 m 600 118 q 788 166 706 118 q 916 299 869 214 q 963 492 963 383 q 916 685 963 600 q 788 819 869 771 q 600 867 706 867 q 413 819 494 867 q 284 685 331 771 q 238 492 238 600 q 284 299 238 383 q 413 166 331 214 q 600 118 494 118 z "},"ö":{"ha":889,"x_min":60,"x_max":829,"o":"m 271 824 q 205 849 231 824 q 179 914 179 874 q 205 977 179 953 q 271 1001 231 1001 q 337 977 311 1001 q 363 914 363 953 q 337 849 363 875 q 271 824 311 824 m 618 824 q 552 849 578 824 q 526 914 526 875 q 552 977 526 953 q 618 1001 578 1001 q 684 977 658 1001 q 710 914 710 953 q 684 849 710 874 q 618 824 658 824 m 444 -25 q 244 22 332 -25 q 108 156 157 69 q 60 353 60 242 q 108 550 60 464 q 244 684 157 636 q 444 732 331 732 q 644 684 557 732 q 781 550 732 636 q 829 353 829 464 q 781 156 829 242 q 644 22 732 69 q 444 -25 557 -25 m 444 113 q 562 143 510 113 q 643 228 614 174 q 672 353 672 283 q 643 477 672 422 q 562 563 614 532 q 444 594 510 594 q 327 563 379 594 q 246 477 275 532 q 217 353 217 422 q 246 228 217 283 q 327 143 275 174 q 444 113 379 113 z "},"Ø":{"ha":1172,"x_min":63,"x_max":1110,"o":"m 304 43 q 127 227 192 110 q 63 492 63 344 q 130 762 63 643 q 317 948 197 881 q 586 1015 436 1015 q 778 981 692 1015 l 886 1194 l 1021 1194 l 886 928 q 1051 745 992 858 q 1110 492 1110 632 q 1042 223 1110 342 q 856 37 975 104 q 586 -31 736 -31 q 414 -4 496 -31 l 319 -194 l 185 -194 l 304 43 m 708 844 q 586 867 649 867 q 407 819 486 867 q 283 685 328 771 q 238 492 238 600 q 274 318 238 397 q 376 189 311 239 l 708 844 m 586 117 q 765 165 686 117 q 890 298 844 213 q 935 492 935 383 q 902 656 935 582 q 810 782 869 731 l 483 131 q 586 117 529 117 z "},"ø":{"ha":901,"x_min":61,"x_max":842,"o":"m 450 732 q 585 711 522 732 l 646 833 l 767 833 l 681 667 q 799 535 757 617 q 842 353 842 454 q 792 157 842 243 q 653 23 742 71 q 451 -25 565 -25 q 338 -11 389 -25 l 289 -111 l 168 -111 l 239 26 q 108 160 154 75 q 61 353 61 244 q 110 550 61 464 q 248 684 160 636 q 450 732 336 732 m 451 618 q 322 584 379 618 q 232 490 264 550 q 200 353 200 429 q 225 231 200 286 q 296 140 250 176 l 531 604 q 451 618 489 618 m 451 89 q 580 123 524 89 q 668 217 636 157 q 700 353 700 276 q 679 464 700 414 q 621 550 658 514 l 392 94 q 451 89 418 89 z "},"Ǿ":{"ha":1172,"x_min":64,"x_max":1110,"o":"m 603 1257 l 776 1257 l 611 1093 l 453 1093 l 603 1257 m 306 43 q 128 227 192 110 q 64 492 64 344 q 131 762 64 643 q 317 948 199 881 q 586 1015 436 1015 q 778 981 692 1015 l 886 1194 l 1021 1194 l 888 928 q 1051 745 992 858 q 1110 492 1110 632 q 1042 223 1110 342 q 856 37 975 104 q 586 -31 736 -31 q 414 -4 497 -31 l 319 -194 l 185 -194 l 306 43 m 710 844 q 586 867 650 867 q 407 819 486 867 q 283 685 328 771 q 239 492 239 599 q 276 317 239 396 q 378 189 313 239 l 710 844 m 586 117 q 765 165 686 117 q 890 298 844 213 q 935 492 935 383 q 902 656 935 582 q 811 782 869 731 l 483 131 q 586 117 531 117 z "},"ǿ":{"ha":901,"x_min":61,"x_max":842,"o":"m 344 819 l 492 1025 l 651 1025 l 486 819 l 344 819 m 238 26 q 108 160 154 75 q 61 353 61 244 q 110 550 61 464 q 248 684 160 636 q 450 732 336 732 q 585 713 519 732 l 644 833 l 767 833 l 681 667 q 799 535 757 617 q 842 353 842 454 q 792 157 842 243 q 653 23 742 71 q 451 -25 565 -25 q 338 -12 392 -25 l 289 -111 l 168 -111 l 238 26 m 531 604 q 451 618 486 618 q 322 584 379 618 q 232 490 264 550 q 200 353 200 429 q 225 231 200 286 q 296 140 250 176 l 531 604 m 451 89 q 579 123 522 89 q 668 217 636 157 q 700 353 700 276 q 679 463 700 413 q 621 551 658 514 l 392 94 q 451 89 418 89 z "},"Ō":{"ha":1199,"x_min":63,"x_max":1136,"o":"m 375 1228 l 825 1228 l 825 1115 l 375 1115 l 375 1228 m 600 -31 q 321 35 443 -31 q 131 220 199 101 q 63 492 63 339 q 131 764 63 644 q 321 949 199 883 q 600 1015 443 1015 q 878 949 756 1015 q 1068 764 1000 883 q 1136 492 1136 644 q 1068 220 1136 339 q 878 35 1000 101 q 600 -31 756 -31 m 600 118 q 788 166 706 118 q 916 299 869 214 q 963 492 963 383 q 916 685 963 600 q 788 819 869 771 q 600 867 706 867 q 413 819 494 867 q 284 685 331 771 q 238 492 238 600 q 284 299 238 383 q 413 166 331 214 q 600 118 494 118 z "},"ō":{"ha":889,"x_min":60,"x_max":829,"o":"m 219 950 l 669 950 l 669 838 l 219 838 l 219 950 m 444 -25 q 244 22 332 -25 q 108 156 157 69 q 60 353 60 242 q 108 550 60 464 q 244 684 157 636 q 444 732 331 732 q 644 684 557 732 q 781 550 732 636 q 829 353 829 464 q 781 156 829 242 q 644 22 732 69 q 444 -25 557 -25 m 444 113 q 562 143 510 113 q 643 228 614 174 q 672 353 672 283 q 643 477 672 422 q 562 563 614 532 q 444 594 510 594 q 327 563 379 594 q 246 477 275 532 q 217 353 217 422 q 246 228 217 283 q 327 143 275 174 q 444 113 379 113 z "},"Ŏ":{"ha":1199,"x_min":63,"x_max":1136,"o":"m 600 1079 q 440 1129 503 1079 q 378 1257 378 1179 l 513 1257 q 536 1199 513 1219 q 600 1178 560 1178 q 663 1199 640 1178 q 686 1257 686 1219 l 819 1257 q 758 1129 819 1179 q 600 1079 696 1079 m 600 -31 q 321 35 443 -31 q 131 220 199 101 q 63 492 63 339 q 131 764 63 644 q 321 949 199 883 q 600 1015 443 1015 q 878 949 756 1015 q 1068 764 1000 883 q 1136 492 1136 644 q 1068 220 1136 339 q 878 35 1000 101 q 600 -31 756 -31 m 600 118 q 788 166 706 118 q 916 299 869 214 q 963 492 963 383 q 916 685 963 600 q 788 819 869 771 q 600 867 706 867 q 413 819 494 867 q 284 685 331 771 q 238 492 238 600 q 284 299 238 383 q 413 166 331 214 q 600 118 494 118 z "},"ŏ":{"ha":889,"x_min":60,"x_max":829,"o":"m 444 831 q 303 885 358 831 q 249 1025 249 940 l 365 1025 q 386 954 365 981 q 444 928 407 928 q 503 955 482 928 q 524 1025 524 982 l 640 1025 q 585 885 640 940 q 444 831 529 831 m 444 -25 q 244 22 332 -25 q 108 156 157 69 q 60 353 60 242 q 108 550 60 464 q 244 684 157 636 q 444 732 331 732 q 644 684 557 732 q 781 550 732 636 q 829 353 829 464 q 781 156 829 242 q 644 22 732 69 q 444 -25 557 -25 m 444 113 q 562 143 510 113 q 643 228 614 174 q 672 353 672 283 q 643 477 672 422 q 562 563 614 532 q 444 594 510 594 q 327 563 379 594 q 246 477 275 532 q 217 353 217 422 q 246 228 217 283 q 327 143 275 174 q 444 113 379 113 z "},"Ő":{"ha":1199,"x_min":63,"x_max":1136,"o":"m 539 1258 l 700 1258 l 544 1093 l 407 1093 l 539 1258 m 778 1258 l 938 1258 l 774 1093 l 638 1093 l 778 1258 m 600 -31 q 321 35 443 -31 q 131 220 199 101 q 63 492 63 339 q 131 764 63 644 q 321 949 199 883 q 600 1015 443 1015 q 878 949 756 1015 q 1068 764 1000 883 q 1136 492 1136 644 q 1068 220 1136 339 q 878 35 1000 101 q 600 -31 756 -31 m 600 118 q 788 166 706 118 q 916 299 869 214 q 963 492 963 383 q 916 685 963 600 q 788 819 869 771 q 600 867 706 867 q 413 819 494 867 q 284 685 331 771 q 238 492 238 600 q 284 299 238 383 q 413 166 331 214 q 600 118 494 118 z "},"ő":{"ha":889,"x_min":60,"x_max":829,"o":"m 399 1018 l 551 1018 l 390 819 l 264 819 l 399 1018 m 497 819 l 646 1018 l 799 1018 l 626 819 l 497 819 m 444 -25 q 244 22 332 -25 q 108 156 157 69 q 60 353 60 242 q 108 550 60 464 q 244 684 157 636 q 444 732 331 732 q 644 684 557 732 q 781 550 732 636 q 829 353 829 464 q 781 156 829 242 q 644 22 732 69 q 444 -25 557 -25 m 444 113 q 562 143 510 113 q 643 228 614 174 q 672 353 672 283 q 643 477 672 422 q 562 563 614 532 q 444 594 510 594 q 327 563 379 594 q 246 477 275 532 q 217 353 217 422 q 246 228 217 283 q 327 143 275 174 q 444 113 379 113 z "},"Ô":{"ha":1199,"x_min":63,"x_max":1136,"o":"m 686 1257 l 844 1093 l 708 1093 l 608 1178 l 593 1178 l 494 1093 l 358 1093 l 515 1257 l 686 1257 m 600 -31 q 321 35 443 -31 q 131 220 199 101 q 63 492 63 339 q 131 764 63 644 q 321 949 199 883 q 600 1015 443 1015 q 878 949 756 1015 q 1068 764 1000 883 q 1136 492 1136 644 q 1068 220 1136 339 q 878 35 1000 101 q 600 -31 756 -31 m 600 118 q 788 166 706 118 q 916 299 869 214 q 963 492 963 383 q 916 685 963 600 q 788 819 869 771 q 600 867 706 867 q 413 819 494 867 q 284 685 331 771 q 238 492 238 600 q 284 299 238 383 q 413 166 331 214 q 600 118 494 118 z "},"ô":{"ha":889,"x_min":60,"x_max":829,"o":"m 363 1021 l 529 1021 l 685 815 l 550 815 l 454 931 l 440 931 l 342 815 l 208 815 l 363 1021 m 444 -25 q 244 22 332 -25 q 108 156 157 69 q 60 353 60 242 q 108 550 60 464 q 244 684 157 636 q 444 732 331 732 q 644 684 557 732 q 781 550 732 636 q 829 353 829 464 q 781 156 829 242 q 644 22 732 69 q 444 -25 557 -25 m 444 113 q 562 143 510 113 q 643 228 614 174 q 672 353 672 283 q 643 477 672 422 q 562 563 614 532 q 444 594 510 594 q 327 563 379 594 q 246 477 275 532 q 217 353 217 422 q 246 228 217 283 q 327 143 275 174 q 444 113 379 113 z "},"Œ":{"ha":1444,"x_min":64,"x_max":1392,"o":"m 578 -24 q 310 41 426 -24 q 128 223 193 106 q 64 492 64 340 q 128 760 64 643 q 310 942 193 878 q 578 1007 426 1007 q 749 983 669 1007 l 1378 983 l 1378 838 l 917 838 l 917 567 l 1322 567 l 1322 432 l 917 432 l 917 147 l 1392 147 l 1392 0 l 749 0 q 666 -17 713 -11 q 578 -24 619 -24 m 581 129 q 672 137 626 129 q 744 157 718 144 l 744 826 q 676 847 718 839 q 592 854 633 854 q 410 808 490 854 q 284 681 329 763 q 239 492 239 599 q 283 303 239 386 q 404 175 326 221 q 581 129 482 129 z "},"œ":{"ha":1489,"x_min":61,"x_max":1429,"o":"m 1429 360 q 1428 304 1429 321 l 836 304 q 910 160 849 214 q 1064 106 972 106 q 1188 136 1132 106 q 1272 219 1243 167 l 1401 167 q 1272 26 1363 76 q 1061 -25 1181 -25 q 885 15 964 -25 q 754 129 806 56 q 626 15 706 56 q 443 -25 546 -25 q 245 23 332 -25 q 110 156 158 71 q 61 353 61 242 q 110 550 61 464 q 244 684 158 636 q 442 732 331 732 q 622 692 542 732 q 751 581 701 653 q 881 692 801 651 q 1057 732 960 732 q 1249 684 1164 732 q 1381 551 1333 636 q 1429 360 1429 467 m 1267 421 q 1194 554 1253 504 q 1049 604 1135 604 q 909 553 967 604 q 838 421 851 503 l 1267 421 m 446 113 q 563 143 511 113 q 643 228 614 174 q 672 353 672 283 q 643 477 672 422 q 563 563 614 532 q 446 594 511 594 q 328 563 381 594 q 247 477 276 532 q 218 353 218 422 q 247 228 218 283 q 328 143 276 174 q 446 113 381 113 z "},"Ŕ":{"ha":999,"x_min":121,"x_max":965,"o":"m 586 1257 l 760 1257 l 593 1093 l 435 1093 l 586 1257 m 121 983 l 567 983 q 759 944 676 983 q 888 835 842 906 q 933 674 933 765 q 896 527 933 592 q 791 423 858 463 q 639 378 724 383 l 626 378 l 965 0 l 756 0 l 442 365 l 294 365 l 294 0 l 121 0 l 121 983 m 554 503 q 704 549 649 503 q 760 672 760 594 q 704 796 760 750 q 554 842 649 842 l 294 842 l 294 503 l 554 503 z "},"ŕ":{"ha":564,"x_min":94,"x_max":544,"o":"m 238 819 l 385 1025 l 544 1025 l 381 819 l 238 819 m 94 706 l 249 706 l 249 613 l 263 613 q 337 690 286 660 q 444 719 388 719 q 528 703 496 719 l 528 560 q 470 576 500 571 q 418 582 440 582 q 298 524 344 582 q 251 371 251 465 l 251 0 l 94 0 l 94 706 z "},"Ř":{"ha":999,"x_min":121,"x_max":965,"o":"m 272 1257 l 408 1257 l 507 1172 l 522 1172 l 622 1257 l 757 1257 l 600 1093 l 428 1093 l 272 1257 m 121 983 l 567 983 q 759 944 676 983 q 888 835 842 906 q 933 674 933 765 q 896 527 933 592 q 791 423 858 463 q 639 378 724 383 l 626 378 l 965 0 l 756 0 l 442 365 l 294 365 l 294 0 l 121 0 l 121 983 m 554 503 q 704 549 649 503 q 760 672 760 594 q 704 796 760 750 q 554 842 649 842 l 294 842 l 294 503 l 554 503 z "},"ř":{"ha":564,"x_min":75,"x_max":551,"o":"m 208 1025 l 307 910 l 321 910 l 417 1025 l 551 1025 l 396 819 l 229 819 l 75 1025 l 208 1025 m 94 706 l 249 706 l 249 613 l 263 613 q 337 690 286 660 q 444 719 388 719 q 528 703 496 719 l 528 560 q 470 576 500 571 q 418 582 440 582 q 298 524 344 582 q 251 371 251 465 l 251 0 l 94 0 l 94 706 z "},"Ŗ":{"ha":999,"x_min":121,"x_max":965,"o":"m 121 983 l 567 983 q 759 944 676 983 q 888 835 842 906 q 933 674 933 765 q 896 527 933 592 q 791 423 858 463 q 639 378 724 383 l 626 378 l 965 0 l 756 0 l 442 365 l 294 365 l 294 0 l 121 0 l 121 983 m 554 503 q 704 549 649 503 q 760 672 760 594 q 704 796 760 750 q 554 842 649 842 l 294 842 l 294 503 l 554 503 m 490 -374 l 544 -269 q 487 -243 510 -267 q 464 -187 464 -219 q 488 -126 464 -150 q 551 -101 513 -101 q 613 -126 589 -101 q 638 -186 638 -150 q 617 -257 638 -221 l 542 -390 l 490 -374 z "},"ŗ":{"ha":564,"x_min":92,"x_max":528,"o":"m 94 706 l 249 706 l 249 613 l 263 613 q 337 690 286 660 q 444 719 388 719 q 528 703 496 719 l 528 560 q 470 576 500 571 q 418 582 440 582 q 298 524 344 582 q 251 371 251 465 l 251 0 l 94 0 l 94 706 m 118 -374 l 172 -269 q 115 -243 138 -267 q 92 -187 92 -219 q 116 -126 92 -150 q 179 -101 140 -101 q 241 -126 217 -101 q 265 -186 265 -150 q 244 -257 265 -221 l 169 -390 l 118 -374 z "},"Ś":{"ha":965,"x_min":69,"x_max":896,"o":"m 554 1257 l 728 1257 l 563 1093 l 404 1093 l 554 1257 m 496 -31 q 269 13 365 -31 q 122 135 174 56 q 69 322 69 215 l 239 322 q 308 167 239 224 q 500 111 376 111 q 663 151 606 111 q 721 264 721 192 q 688 349 721 318 q 605 394 656 381 q 469 422 554 408 q 274 465 354 440 q 138 550 194 490 q 82 714 82 610 q 128 872 82 804 q 261 978 174 940 q 469 1015 349 1015 q 683 974 592 1015 q 822 857 774 933 q 871 678 871 781 l 707 678 q 645 822 707 771 q 472 874 583 874 q 313 833 369 874 q 257 725 257 793 q 290 642 257 672 q 375 599 324 613 q 513 571 426 585 q 708 527 629 553 q 841 442 786 501 q 896 276 896 382 q 790 51 896 133 q 496 -31 683 -31 z "},"ś":{"ha":769,"x_min":67,"x_max":703,"o":"m 300 819 l 447 1025 l 607 1025 l 443 819 l 300 819 m 394 -26 q 153 44 239 -26 q 67 239 67 114 l 211 239 q 263 131 213 171 q 400 90 313 90 q 510 118 469 90 q 551 193 551 146 q 528 249 551 229 q 469 276 504 268 q 371 290 435 283 q 225 317 288 299 q 120 379 163 335 q 78 503 78 424 q 159 672 78 610 q 375 733 240 733 q 535 704 465 733 q 645 620 606 675 q 685 493 685 565 l 536 493 q 492 582 536 549 q 375 615 447 615 q 266 587 308 615 q 224 513 224 558 q 249 459 224 476 q 306 435 274 442 q 417 419 338 429 q 624 360 544 404 q 703 201 703 315 q 622 33 703 93 q 394 -26 540 -26 z "},"Ş":{"ha":965,"x_min":69,"x_max":896,"o":"m 896 276 q 799 60 896 142 q 532 -29 703 -22 l 526 -65 q 627 -101 588 -65 q 667 -192 667 -137 q 626 -282 667 -247 q 518 -317 585 -317 q 417 -289 460 -317 q 364 -218 374 -261 l 446 -193 q 469 -231 450 -217 q 515 -246 489 -246 q 560 -230 543 -246 q 578 -189 578 -214 q 555 -143 578 -161 q 496 -125 532 -125 l 424 -125 l 439 -28 q 168 79 267 -14 q 69 322 69 172 l 239 322 q 308 167 239 224 q 500 111 376 111 q 663 151 606 111 q 721 264 721 192 q 688 349 721 318 q 605 394 656 381 q 469 422 554 408 q 274 465 354 440 q 138 550 194 490 q 82 714 82 610 q 128 872 82 804 q 261 978 174 940 q 469 1015 349 1015 q 683 974 592 1015 q 822 857 774 933 q 871 678 871 781 l 707 678 q 645 822 707 771 q 472 874 583 874 q 313 833 369 874 q 257 725 257 793 q 290 642 257 672 q 375 599 324 613 q 513 571 426 585 q 708 527 629 553 q 841 442 786 501 q 896 276 896 382 z "},"ş":{"ha":769,"x_min":67,"x_max":703,"o":"m 703 201 q 627 38 703 97 q 417 -26 551 -21 l 410 -65 q 511 -101 471 -65 q 551 -192 551 -137 q 510 -282 551 -247 q 401 -317 468 -317 q 300 -289 343 -317 q 247 -218 257 -261 l 329 -193 q 354 -231 335 -217 q 400 -246 374 -246 q 445 -230 428 -246 q 463 -189 463 -214 q 440 -143 463 -161 q 381 -125 417 -125 l 307 -125 l 322 -22 q 133 61 200 -7 q 67 239 67 129 l 211 239 q 263 131 213 171 q 400 90 313 90 q 510 118 469 90 q 551 193 551 146 q 528 249 551 229 q 469 276 504 268 q 371 290 435 283 q 225 317 288 299 q 120 379 163 335 q 78 503 78 424 q 159 672 78 610 q 375 733 240 733 q 535 704 465 733 q 645 620 606 675 q 685 493 685 565 l 536 493 q 492 582 536 549 q 375 615 447 615 q 266 587 308 615 q 224 513 224 558 q 249 459 224 476 q 306 435 274 442 q 417 419 338 429 q 624 360 544 404 q 703 201 703 315 z "},"Š":{"ha":965,"x_min":69,"x_max":896,"o":"m 240 1257 l 376 1257 l 476 1172 l 492 1172 l 590 1257 l 726 1257 l 569 1093 l 397 1093 l 240 1257 m 496 -31 q 269 13 365 -31 q 122 135 174 56 q 69 322 69 215 l 239 322 q 308 167 239 224 q 500 111 376 111 q 663 151 606 111 q 721 264 721 192 q 688 349 721 318 q 605 394 656 381 q 469 422 554 408 q 274 465 354 440 q 138 550 194 490 q 82 714 82 610 q 128 872 82 804 q 261 978 174 940 q 469 1015 349 1015 q 683 974 592 1015 q 822 857 774 933 q 871 678 871 781 l 707 678 q 645 822 707 771 q 472 874 583 874 q 313 833 369 874 q 257 725 257 793 q 290 642 257 672 q 375 599 324 613 q 513 571 426 585 q 708 527 629 553 q 841 442 786 501 q 896 276 896 382 q 790 51 896 133 q 496 -31 683 -31 z "},"š":{"ha":769,"x_min":67,"x_max":703,"o":"m 271 1025 l 369 910 l 383 910 l 479 1025 l 614 1025 l 458 819 l 292 819 l 138 1025 l 271 1025 m 394 -26 q 153 44 239 -26 q 67 239 67 114 l 211 239 q 263 131 213 171 q 400 90 313 90 q 510 118 469 90 q 551 193 551 146 q 528 249 551 229 q 469 276 504 268 q 371 290 435 283 q 225 317 288 299 q 120 379 163 335 q 78 503 78 424 q 159 672 78 610 q 375 733 240 733 q 535 704 465 733 q 645 620 606 675 q 685 493 685 565 l 536 493 q 492 582 536 549 q 375 615 447 615 q 266 587 308 615 q 224 513 224 558 q 249 459 224 476 q 306 435 274 442 q 417 419 338 429 q 624 360 544 404 q 703 201 703 315 q 622 33 703 93 q 394 -26 540 -26 z "},"Ș":{"ha":965,"x_min":69,"x_max":896,"o":"m 496 -31 q 269 13 365 -31 q 122 135 174 56 q 69 322 69 215 l 239 322 q 308 167 239 224 q 500 111 376 111 q 663 151 606 111 q 721 264 721 192 q 688 349 721 318 q 605 394 656 381 q 469 422 554 408 q 274 465 354 440 q 138 550 194 490 q 82 714 82 610 q 128 872 82 804 q 261 978 174 940 q 469 1015 349 1015 q 683 974 592 1015 q 822 857 774 933 q 871 678 871 781 l 707 678 q 645 822 707 771 q 472 874 583 874 q 313 833 369 874 q 257 725 257 793 q 290 642 257 672 q 375 599 324 613 q 513 571 426 585 q 708 527 629 553 q 841 442 786 501 q 896 276 896 382 q 790 51 896 133 q 496 -31 683 -31 m 433 -374 l 488 -269 q 430 -243 453 -267 q 407 -187 407 -219 q 431 -126 407 -150 q 494 -101 456 -101 q 557 -126 532 -101 q 582 -186 582 -150 q 560 -257 582 -218 l 485 -390 l 433 -374 z "},"ș":{"ha":769,"x_min":67,"x_max":703,"o":"m 394 -26 q 153 44 239 -26 q 67 239 67 114 l 211 239 q 263 131 213 171 q 400 90 313 90 q 510 118 469 90 q 551 193 551 146 q 528 249 551 229 q 469 276 504 268 q 371 290 435 283 q 225 317 288 299 q 120 379 163 335 q 78 503 78 424 q 159 672 78 610 q 375 733 240 733 q 535 704 465 733 q 645 620 606 675 q 685 493 685 565 l 536 493 q 492 582 536 549 q 375 615 447 615 q 266 587 308 615 q 224 513 224 558 q 249 459 224 476 q 306 435 274 442 q 417 419 338 429 q 624 360 544 404 q 703 201 703 315 q 622 33 703 93 q 394 -26 540 -26 m 317 -374 l 371 -269 q 314 -243 336 -267 q 292 -187 292 -219 q 316 -126 292 -150 q 378 -101 340 -101 q 441 -126 417 -101 q 465 -186 465 -150 q 443 -257 465 -218 l 368 -390 l 317 -374 z "},"Ŝ":{"ha":965,"x_min":69,"x_max":896,"o":"m 569 1257 l 726 1093 l 592 1093 l 492 1178 l 476 1178 l 378 1093 l 242 1093 l 397 1257 l 569 1257 m 496 -31 q 269 13 365 -31 q 122 135 174 56 q 69 322 69 215 l 239 322 q 308 167 239 224 q 500 111 376 111 q 663 151 606 111 q 721 264 721 192 q 688 349 721 318 q 605 394 656 381 q 469 422 554 408 q 274 465 354 440 q 138 550 194 490 q 82 714 82 610 q 128 872 82 804 q 261 978 174 940 q 469 1015 349 1015 q 683 974 592 1015 q 822 857 774 933 q 871 678 871 781 l 707 678 q 645 822 707 771 q 472 874 583 874 q 313 833 369 874 q 257 725 257 793 q 290 642 257 672 q 375 599 324 613 q 513 571 426 585 q 708 527 629 553 q 841 442 786 501 q 896 276 896 382 q 790 51 896 133 q 496 -31 683 -31 z "},"ŝ":{"ha":769,"x_min":67,"x_max":703,"o":"m 296 1021 l 461 1021 l 617 815 l 482 815 l 386 931 l 372 931 l 275 815 l 142 815 l 296 1021 m 394 -26 q 153 44 239 -26 q 67 239 67 114 l 211 239 q 263 131 213 171 q 400 90 313 90 q 510 118 469 90 q 551 193 551 146 q 528 249 551 229 q 469 276 504 268 q 371 290 435 283 q 225 317 288 299 q 120 379 163 335 q 78 503 78 424 q 159 672 78 610 q 375 733 240 733 q 535 704 465 733 q 645 620 606 675 q 685 493 685 565 l 536 493 q 492 582 536 549 q 375 615 447 615 q 266 587 308 615 q 224 513 224 558 q 249 459 224 476 q 306 435 274 442 q 417 419 338 429 q 624 360 544 404 q 703 201 703 315 q 622 33 703 93 q 394 -26 540 -26 z "},"Ť":{"ha":843,"x_min":15,"x_max":829,"o":"m 181 1257 l 317 1257 l 417 1172 l 432 1172 l 531 1257 l 667 1257 l 508 1093 l 338 1093 l 181 1257 m 335 835 l 15 835 l 15 983 l 829 983 l 829 835 l 510 835 l 510 0 l 335 0 l 335 835 z "},"ť":{"ha":553,"x_min":47,"x_max":525,"o":"m 376 782 l 432 886 q 374 913 397 889 q 351 968 351 936 q 376 1030 351 1006 q 438 1054 400 1054 q 501 1030 476 1054 q 525 969 525 1006 q 503 899 525 933 l 428 765 l 376 782 m 367 -25 q 213 37 271 -25 q 156 201 156 99 l 156 588 l 47 588 l 47 706 l 157 706 l 190 933 l 313 933 l 313 706 l 483 706 l 483 588 l 313 588 l 313 208 q 340 131 313 161 q 414 101 367 101 q 493 113 451 101 l 493 -6 q 431 -20 465 -15 q 367 -25 396 -25 z "},"Ţ":{"ha":843,"x_min":15,"x_max":829,"o":"m 335 835 l 15 835 l 15 983 l 829 983 l 829 835 l 510 835 l 510 0 l 335 0 l 335 835 m 361 -374 l 417 -269 q 359 -243 382 -267 q 336 -187 336 -219 q 360 -126 336 -150 q 424 -101 385 -101 q 485 -126 461 -101 q 510 -186 510 -150 q 489 -257 510 -221 l 413 -390 l 361 -374 z "},"ţ":{"ha":553,"x_min":47,"x_max":493,"o":"m 367 -25 q 213 37 271 -25 q 156 201 156 99 l 156 588 l 47 588 l 47 706 l 157 706 l 190 933 l 313 933 l 313 706 l 483 706 l 483 588 l 313 588 l 313 208 q 340 131 313 161 q 414 101 367 101 q 493 113 451 101 l 493 -6 q 431 -20 465 -15 q 367 -25 396 -25 m 283 -372 l 338 -268 q 280 -242 303 -265 q 257 -186 257 -218 q 282 -125 257 -150 q 344 -100 307 -100 q 407 -124 382 -100 q 432 -186 432 -149 q 410 -256 432 -219 l 335 -389 l 283 -372 z "},"Ț":{"ha":843,"x_min":15,"x_max":829,"o":"m 335 835 l 15 835 l 15 983 l 829 983 l 829 835 l 510 835 l 510 0 l 335 0 l 335 835 m 361 -374 l 417 -269 q 359 -243 382 -267 q 336 -187 336 -219 q 360 -126 336 -150 q 424 -101 385 -101 q 485 -126 461 -101 q 510 -186 510 -150 q 489 -257 510 -221 l 413 -390 l 361 -374 z "},"ț":{"ha":553,"x_min":47,"x_max":493,"o":"m 367 -25 q 213 37 271 -25 q 156 201 156 99 l 156 588 l 47 588 l 47 706 l 157 706 l 190 933 l 313 933 l 313 706 l 483 706 l 483 588 l 313 588 l 313 208 q 340 131 313 161 q 414 101 367 101 q 493 113 451 101 l 493 -6 q 431 -20 465 -15 q 367 -25 396 -25 m 283 -372 l 338 -268 q 280 -242 303 -265 q 257 -186 257 -218 q 282 -125 257 -150 q 344 -100 307 -100 q 407 -124 382 -100 q 432 -186 432 -149 q 410 -256 432 -219 l 335 -389 l 283 -372 z "},"Ù":{"ha":1065,"x_min":114,"x_max":953,"o":"m 456 1093 l 290 1257 l 464 1257 l 614 1093 l 456 1093 m 533 -31 q 317 22 413 -31 q 167 169 221 75 q 114 383 114 263 l 114 983 l 288 983 l 288 386 q 319 247 288 308 q 406 152 350 186 q 533 118 463 118 q 660 152 604 118 q 748 247 717 186 q 779 386 779 308 l 779 983 l 953 983 l 953 383 q 899 169 953 263 q 751 22 846 75 q 533 -31 656 -31 z "},"ù":{"ha":842,"x_min":81,"x_max":747,"o":"m 181 1025 l 340 1025 l 488 819 l 346 819 l 181 1025 m 747 0 l 590 0 l 590 94 l 576 94 q 483 7 538 38 q 364 -24 429 -24 q 216 15 281 -24 q 116 123 151 54 q 81 279 81 192 l 81 706 l 239 706 l 239 290 q 283 163 239 211 q 401 114 326 114 q 496 138 453 114 q 565 206 539 163 q 590 301 590 249 l 590 706 l 747 706 l 747 0 z "},"Ú":{"ha":1065,"x_min":114,"x_max":953,"o":"m 607 1257 l 781 1257 l 614 1093 l 456 1093 l 607 1257 m 533 -31 q 317 22 413 -31 q 167 169 221 75 q 114 383 114 263 l 114 983 l 288 983 l 288 386 q 319 247 288 308 q 406 152 350 186 q 533 118 463 118 q 660 152 604 118 q 748 247 717 186 q 779 386 779 308 l 779 983 l 953 983 l 953 383 q 899 169 953 263 q 751 22 846 75 q 533 -31 656 -31 z "},"ú":{"ha":842,"x_min":81,"x_max":747,"o":"m 336 819 l 483 1025 l 643 1025 l 478 819 l 336 819 m 747 0 l 590 0 l 590 94 l 576 94 q 483 7 538 38 q 364 -24 429 -24 q 216 15 281 -24 q 116 123 151 54 q 81 279 81 192 l 81 706 l 239 706 l 239 290 q 283 163 239 211 q 401 114 326 114 q 496 138 453 114 q 565 206 539 163 q 590 301 590 249 l 590 706 l 747 706 l 747 0 z "},"Û":{"ha":1065,"x_min":114,"x_max":953,"o":"m 622 1257 l 779 1093 l 643 1093 l 544 1178 l 529 1178 l 429 1093 l 294 1093 l 450 1257 l 622 1257 m 533 -31 q 317 22 413 -31 q 167 169 221 75 q 114 383 114 263 l 114 983 l 288 983 l 288 386 q 319 247 288 308 q 406 152 350 186 q 533 118 463 118 q 660 152 604 118 q 748 247 717 186 q 779 386 779 308 l 779 983 l 953 983 l 953 383 q 899 169 953 263 q 751 22 846 75 q 533 -31 656 -31 z "},"û":{"ha":842,"x_min":81,"x_max":747,"o":"m 331 1021 l 497 1021 l 653 815 l 518 815 l 421 931 l 407 931 l 310 815 l 176 815 l 331 1021 m 747 0 l 590 0 l 590 94 l 576 94 q 483 7 538 38 q 364 -24 429 -24 q 216 15 281 -24 q 116 123 151 54 q 81 279 81 192 l 81 706 l 239 706 l 239 290 q 283 163 239 211 q 401 114 326 114 q 496 138 453 114 q 565 206 539 163 q 590 301 590 249 l 590 706 l 747 706 l 747 0 z "},"Ũ":{"ha":1065,"x_min":114,"x_max":953,"o":"m 625 1108 q 558 1121 585 1108 q 500 1156 532 1133 q 464 1180 479 1172 q 431 1188 449 1188 q 382 1170 406 1188 q 342 1124 358 1153 l 269 1178 q 336 1253 293 1225 q 432 1281 379 1281 q 496 1269 469 1281 q 553 1235 522 1257 q 594 1209 578 1217 q 631 1201 611 1201 q 681 1219 658 1201 q 719 1265 704 1236 l 793 1213 q 724 1136 767 1164 q 625 1108 681 1108 m 533 -31 q 317 22 413 -31 q 167 169 221 75 q 114 383 114 263 l 114 983 l 288 983 l 288 386 q 319 247 288 308 q 406 152 350 186 q 533 118 463 118 q 660 152 604 118 q 748 247 717 186 q 779 386 779 308 l 779 983 l 953 983 l 953 383 q 899 169 953 263 q 751 22 846 75 q 533 -31 656 -31 z "},"ũ":{"ha":842,"x_min":81,"x_max":747,"o":"m 507 817 q 442 828 468 817 q 385 863 415 840 q 344 887 360 879 q 308 894 328 894 q 261 881 283 894 q 225 843 239 867 l 153 899 q 220 972 176 944 q 317 1000 264 1000 q 378 988 353 1000 q 436 956 404 976 q 481 930 465 938 q 517 922 497 922 q 567 937 544 922 q 601 975 590 951 l 676 921 q 607 844 650 872 q 507 817 564 817 m 747 0 l 590 0 l 590 94 l 576 94 q 483 7 538 38 q 364 -24 429 -24 q 216 15 281 -24 q 116 123 151 54 q 81 279 81 192 l 81 706 l 239 706 l 239 290 q 283 163 239 211 q 401 114 326 114 q 496 138 453 114 q 565 206 539 163 q 590 301 590 249 l 590 706 l 747 706 l 747 0 z "},"Ū":{"ha":1065,"x_min":114,"x_max":953,"o":"m 311 1228 l 760 1228 l 760 1115 l 311 1115 l 311 1228 m 533 -31 q 317 22 413 -31 q 167 169 221 75 q 114 383 114 263 l 114 983 l 288 983 l 288 386 q 319 247 288 308 q 406 152 350 186 q 533 118 463 118 q 660 152 604 118 q 748 247 717 186 q 779 386 779 308 l 779 983 l 953 983 l 953 383 q 899 169 953 263 q 751 22 846 75 q 533 -31 656 -31 z "},"ū":{"ha":842,"x_min":81,"x_max":747,"o":"m 188 950 l 636 950 l 636 838 l 188 838 l 188 950 m 747 0 l 590 0 l 590 94 l 576 94 q 483 7 538 38 q 364 -24 429 -24 q 216 15 281 -24 q 116 123 151 54 q 81 279 81 192 l 81 706 l 239 706 l 239 290 q 283 163 239 211 q 401 114 326 114 q 496 138 453 114 q 565 206 539 163 q 590 301 590 249 l 590 706 l 747 706 l 747 0 z "},"Ŭ":{"ha":1065,"x_min":114,"x_max":953,"o":"m 535 1079 q 376 1129 439 1079 q 314 1257 314 1179 l 449 1257 q 472 1199 449 1219 q 535 1178 494 1178 q 599 1199 575 1178 q 622 1257 622 1219 l 756 1257 q 694 1129 756 1179 q 535 1079 632 1079 m 533 -31 q 317 22 413 -31 q 167 169 221 75 q 114 383 114 263 l 114 983 l 288 983 l 288 386 q 319 247 288 308 q 406 152 350 186 q 533 118 463 118 q 660 152 604 118 q 748 247 717 186 q 779 386 779 308 l 779 983 l 953 983 l 953 383 q 899 169 953 263 q 751 22 846 75 q 533 -31 656 -31 z "},"ŭ":{"ha":842,"x_min":81,"x_max":747,"o":"m 413 831 q 271 885 326 831 q 215 1025 215 940 l 332 1025 q 353 955 332 982 q 413 928 375 928 q 470 955 449 928 q 492 1025 492 982 l 608 1025 q 553 885 608 940 q 413 831 497 831 m 747 0 l 590 0 l 590 94 l 576 94 q 483 7 538 38 q 364 -24 429 -24 q 216 15 281 -24 q 116 123 151 54 q 81 279 81 192 l 81 706 l 239 706 l 239 290 q 283 163 239 211 q 401 114 326 114 q 496 138 453 114 q 565 206 539 163 q 590 301 590 249 l 590 706 l 747 706 l 747 0 z "},"Ů":{"ha":1065,"x_min":114,"x_max":953,"o":"m 535 1069 q 430 1107 471 1069 q 389 1201 389 1144 q 430 1297 389 1260 q 535 1333 471 1333 q 640 1297 599 1333 q 681 1201 681 1260 q 640 1107 681 1144 q 535 1069 599 1069 m 535 1131 q 588 1151 567 1131 q 608 1201 608 1171 q 588 1252 608 1232 q 535 1272 567 1272 q 483 1253 503 1272 q 463 1201 463 1233 q 483 1151 463 1171 q 535 1131 503 1131 m 533 -31 q 317 22 413 -31 q 167 169 221 75 q 114 383 114 263 l 114 983 l 288 983 l 288 386 q 319 247 288 308 q 406 152 350 186 q 533 118 463 118 q 660 152 604 118 q 748 247 717 186 q 779 386 779 308 l 779 983 l 953 983 l 953 383 q 899 169 953 263 q 751 22 846 75 q 533 -31 656 -31 z "},"ů":{"ha":842,"x_min":81,"x_max":747,"o":"m 413 815 q 297 858 342 815 q 253 965 253 900 q 297 1074 253 1032 q 413 1115 342 1115 q 526 1074 482 1115 q 569 965 569 1032 q 526 858 569 900 q 413 815 482 815 m 413 879 q 473 903 449 879 q 497 965 497 928 q 473 1027 497 1003 q 413 1051 449 1051 q 350 1027 374 1051 q 326 965 326 1003 q 350 903 326 928 q 413 879 374 879 m 747 0 l 590 0 l 590 94 l 576 94 q 483 7 538 38 q 364 -24 429 -24 q 216 15 281 -24 q 116 123 151 54 q 81 279 81 192 l 81 706 l 239 706 l 239 290 q 283 163 239 211 q 401 114 326 114 q 496 138 453 114 q 565 206 539 163 q 590 301 590 249 l 590 706 l 747 706 l 747 0 z "},"Ű":{"ha":1065,"x_min":114,"x_max":953,"o":"m 474 1258 l 635 1258 l 481 1093 l 343 1093 l 474 1258 m 713 1258 l 874 1258 l 708 1093 l 572 1093 l 713 1258 m 533 -31 q 317 22 413 -31 q 167 169 221 75 q 114 383 114 263 l 114 983 l 288 983 l 288 386 q 319 247 288 308 q 406 152 350 186 q 533 118 463 118 q 660 152 604 118 q 748 247 717 186 q 779 386 779 308 l 779 983 l 953 983 l 953 383 q 899 169 953 263 q 751 22 846 75 q 533 -31 656 -31 z "},"ű":{"ha":842,"x_min":81,"x_max":767,"o":"m 365 1018 l 518 1018 l 358 819 l 231 819 l 365 1018 m 464 819 l 614 1018 l 767 1018 l 593 819 l 464 819 m 747 0 l 590 0 l 590 94 l 576 94 q 483 7 538 38 q 364 -24 429 -24 q 216 15 281 -24 q 116 123 151 54 q 81 279 81 192 l 81 706 l 239 706 l 239 290 q 283 163 239 211 q 401 114 326 114 q 496 138 453 114 q 565 206 539 163 q 590 301 590 249 l 590 706 l 747 706 l 747 0 z "},"Ü":{"ha":1065,"x_min":114,"x_max":953,"o":"m 369 1088 q 301 1114 328 1088 q 275 1182 275 1140 q 301 1249 275 1222 q 369 1275 328 1275 q 438 1249 411 1275 q 465 1182 465 1222 q 438 1114 465 1140 q 369 1088 411 1088 m 701 1088 q 633 1114 660 1088 q 606 1182 606 1140 q 633 1249 606 1222 q 701 1275 660 1275 q 769 1249 743 1275 q 796 1182 796 1222 q 769 1114 796 1140 q 701 1088 743 1088 m 533 -31 q 317 22 413 -31 q 167 169 221 75 q 114 383 114 263 l 114 983 l 288 983 l 288 386 q 319 247 288 308 q 406 152 350 186 q 533 118 463 118 q 660 152 604 118 q 748 247 717 186 q 779 386 779 308 l 779 983 l 953 983 l 953 383 q 899 169 953 263 q 751 22 846 75 q 533 -31 656 -31 z "},"ü":{"ha":842,"x_min":81,"x_max":747,"o":"m 238 824 q 172 849 197 824 q 146 914 146 875 q 172 977 146 953 q 238 1001 197 1001 q 304 977 278 1001 q 331 914 331 953 q 304 849 331 875 q 238 824 278 824 m 586 824 q 520 849 546 824 q 494 914 494 874 q 520 977 494 953 q 586 1001 546 1001 q 652 977 626 1001 q 678 914 678 953 q 652 849 678 875 q 586 824 626 824 m 747 0 l 590 0 l 590 94 l 576 94 q 483 7 538 38 q 364 -24 429 -24 q 216 15 281 -24 q 116 123 151 54 q 81 279 81 192 l 81 706 l 239 706 l 239 290 q 283 163 239 211 q 401 114 326 114 q 496 138 453 114 q 565 206 539 163 q 590 301 590 249 l 590 706 l 747 706 l 747 0 z "},"Ų":{"ha":1065,"x_min":114,"x_max":953,"o":"m 953 983 l 953 383 q 875 131 953 238 q 667 -12 797 25 q 575 -76 608 -40 q 542 -147 542 -112 q 558 -188 542 -172 q 604 -204 575 -204 q 683 -179 639 -204 l 683 -253 q 632 -273 660 -265 q 579 -281 604 -281 q 495 -250 528 -281 q 463 -171 463 -219 q 542 -31 463 -96 l 533 -31 q 317 22 413 -31 q 167 169 221 75 q 114 383 114 263 l 114 983 l 288 983 l 288 386 q 319 247 288 308 q 406 152 350 186 q 533 118 463 118 q 660 152 604 118 q 748 247 717 186 q 779 386 779 308 l 779 983 l 953 983 z "},"ų":{"ha":842,"x_min":81,"x_max":747,"o":"m 747 706 l 747 0 l 692 0 q 579 -69 621 -29 q 538 -147 538 -108 q 555 -188 538 -172 q 601 -204 572 -204 q 679 -179 636 -204 l 679 -253 q 629 -273 657 -265 q 575 -281 601 -281 q 491 -250 524 -281 q 458 -171 458 -219 q 492 -77 458 -122 q 590 7 526 -32 l 590 94 l 576 94 q 483 7 538 38 q 364 -24 429 -24 q 216 15 281 -24 q 116 123 151 54 q 81 279 81 192 l 81 706 l 239 706 l 239 290 q 283 163 239 211 q 401 114 326 114 q 496 138 453 114 q 565 206 539 163 q 590 301 590 249 l 590 706 l 747 706 z "},"Ẁ":{"ha":1571,"x_min":58,"x_max":1511,"o":"m 708 1093 l 542 1257 l 715 1257 l 865 1093 l 708 1093 m 58 983 l 229 983 l 461 151 l 475 151 l 685 983 l 888 983 l 1096 151 l 1110 151 l 1342 983 l 1511 983 l 1232 0 l 975 0 l 793 763 l 779 763 l 596 0 l 339 0 l 58 983 z "},"ẁ":{"ha":1197,"x_min":25,"x_max":1172,"o":"m 369 1025 l 529 1025 l 676 819 l 533 819 l 369 1025 m 25 706 l 183 706 l 356 156 l 369 156 l 510 706 l 686 706 l 833 153 l 847 153 l 1015 706 l 1172 706 l 944 0 l 731 0 l 606 524 l 592 524 l 465 0 l 251 0 l 25 706 z "},"Ẃ":{"ha":1571,"x_min":58,"x_max":1511,"o":"m 858 1257 l 1032 1257 l 865 1093 l 708 1093 l 858 1257 m 58 983 l 229 983 l 461 151 l 475 151 l 685 983 l 888 983 l 1096 151 l 1110 151 l 1342 983 l 1511 983 l 1232 0 l 975 0 l 793 763 l 779 763 l 596 0 l 339 0 l 58 983 z "},"ẃ":{"ha":1197,"x_min":25,"x_max":1172,"o":"m 524 819 l 671 1025 l 831 1025 l 665 819 l 524 819 m 25 706 l 183 706 l 356 156 l 369 156 l 510 706 l 686 706 l 833 153 l 847 153 l 1015 706 l 1172 706 l 944 0 l 731 0 l 606 524 l 592 524 l 465 0 l 251 0 l 25 706 z "},"Ŵ":{"ha":1571,"x_min":58,"x_max":1511,"o":"m 874 1257 l 1031 1093 l 894 1093 l 796 1178 l 781 1178 l 682 1093 l 546 1093 l 701 1257 l 874 1257 m 58 983 l 229 983 l 461 151 l 475 151 l 685 983 l 888 983 l 1096 151 l 1110 151 l 1342 983 l 1511 983 l 1232 0 l 975 0 l 793 763 l 779 763 l 596 0 l 339 0 l 58 983 z "},"ŵ":{"ha":1197,"x_min":25,"x_max":1172,"o":"m 518 1021 l 685 1021 l 840 815 l 706 815 l 610 931 l 596 931 l 497 815 l 364 815 l 518 1021 m 25 706 l 183 706 l 356 156 l 369 156 l 510 706 l 686 706 l 833 153 l 847 153 l 1015 706 l 1172 706 l 944 0 l 731 0 l 606 524 l 592 524 l 465 0 l 251 0 l 25 706 z "},"Ẅ":{"ha":1571,"x_min":58,"x_max":1511,"o":"m 621 1088 q 553 1114 579 1088 q 526 1182 526 1140 q 553 1249 526 1222 q 621 1275 579 1275 q 690 1249 663 1275 q 717 1182 717 1222 q 690 1114 717 1140 q 621 1088 663 1088 m 953 1088 q 884 1114 911 1088 q 857 1182 857 1140 q 884 1249 857 1222 q 953 1275 911 1275 q 1021 1249 994 1275 q 1047 1182 1047 1222 q 1021 1114 1047 1140 q 953 1088 994 1088 m 58 983 l 229 983 l 461 151 l 475 151 l 685 983 l 888 983 l 1096 151 l 1110 151 l 1342 983 l 1511 983 l 1232 0 l 975 0 l 793 763 l 779 763 l 596 0 l 339 0 l 58 983 z "},"ẅ":{"ha":1197,"x_min":25,"x_max":1172,"o":"m 426 824 q 360 849 386 824 q 335 914 335 874 q 360 977 335 953 q 426 1001 386 1001 q 492 977 467 1001 q 518 914 518 953 q 492 849 518 875 q 426 824 467 824 m 774 824 q 708 849 733 824 q 682 914 682 874 q 708 977 682 953 q 774 1001 733 1001 q 840 977 814 1001 q 865 914 865 953 q 840 849 865 874 q 774 824 814 824 m 25 706 l 183 706 l 356 156 l 369 156 l 510 706 l 686 706 l 833 153 l 847 153 l 1015 706 l 1172 706 l 944 0 l 731 0 l 606 524 l 592 524 l 465 0 l 251 0 l 25 706 z "},"Ỳ":{"ha":950,"x_min":36,"x_max":915,"o":"m 397 1093 l 231 1257 l 406 1257 l 556 1093 l 397 1093 m 390 350 l 36 983 l 218 983 l 471 510 l 485 510 l 729 983 l 915 983 l 565 350 l 565 0 l 390 0 l 390 350 z "},"ỳ":{"ha":768,"x_min":13,"x_max":756,"o":"m 171 1025 l 331 1025 l 478 819 l 336 819 l 171 1025 m 200 -315 q 135 -309 169 -315 q 72 -292 100 -303 l 74 -160 q 172 -181 126 -181 q 247 -156 218 -181 q 290 -103 276 -131 q 335 -3 304 -76 l 13 706 l 179 706 l 396 201 l 410 201 l 590 706 l 756 706 l 481 -18 q 408 -178 442 -117 q 323 -277 374 -239 q 200 -315 272 -315 z "},"Ý":{"ha":950,"x_min":36,"x_max":915,"o":"m 549 1257 l 722 1257 l 556 1093 l 397 1093 l 549 1257 m 390 350 l 36 983 l 218 983 l 471 510 l 485 510 l 729 983 l 915 983 l 565 350 l 565 0 l 390 0 l 390 350 z "},"ý":{"ha":768,"x_min":13,"x_max":756,"o":"m 326 819 l 474 1025 l 632 1025 l 468 819 l 326 819 m 200 -315 q 135 -309 169 -315 q 72 -292 100 -303 l 74 -160 q 172 -181 126 -181 q 247 -156 218 -181 q 290 -103 276 -131 q 335 -3 304 -76 l 13 706 l 179 706 l 396 201 l 410 201 l 590 706 l 756 706 l 481 -18 q 408 -178 442 -117 q 323 -277 374 -239 q 200 -315 272 -315 z "},"Ÿ":{"ha":950,"x_min":36,"x_max":915,"o":"m 311 1088 q 242 1114 269 1088 q 215 1182 215 1140 q 242 1249 215 1222 q 311 1275 269 1275 q 379 1249 353 1275 q 406 1182 406 1222 q 379 1114 406 1140 q 311 1088 353 1088 m 642 1088 q 574 1114 601 1088 q 547 1182 547 1140 q 574 1249 547 1222 q 642 1275 601 1275 q 711 1249 685 1275 q 738 1182 738 1222 q 711 1114 738 1140 q 642 1088 685 1088 m 390 350 l 36 983 l 218 983 l 471 510 l 485 510 l 729 983 l 915 983 l 565 350 l 565 0 l 390 0 l 390 350 z "},"ÿ":{"ha":768,"x_min":13,"x_max":756,"o":"m 228 824 q 162 849 188 824 q 136 914 136 875 q 162 977 136 953 q 228 1001 188 1001 q 294 977 268 1001 q 319 914 319 953 q 294 849 319 874 q 228 824 268 824 m 575 824 q 509 849 535 824 q 483 914 483 875 q 509 977 483 953 q 575 1001 535 1001 q 642 977 615 1001 q 668 914 668 953 q 642 849 668 875 q 575 824 615 824 m 200 -315 q 135 -309 169 -315 q 72 -292 100 -303 l 74 -160 q 172 -181 126 -181 q 247 -156 218 -181 q 290 -103 276 -131 q 335 -3 304 -76 l 13 706 l 179 706 l 396 201 l 410 201 l 590 706 l 756 706 l 481 -18 q 408 -178 442 -117 q 323 -277 374 -239 q 200 -315 272 -315 z "},"Ŷ":{"ha":950,"x_min":36,"x_max":915,"o":"m 564 1257 l 721 1093 l 585 1093 l 486 1178 l 471 1178 l 371 1093 l 236 1093 l 392 1257 l 564 1257 m 390 350 l 36 983 l 218 983 l 471 510 l 485 510 l 729 983 l 915 983 l 565 350 l 565 0 l 390 0 l 390 350 z "},"ŷ":{"ha":768,"x_min":13,"x_max":756,"o":"m 321 1021 l 488 1021 l 642 815 l 508 815 l 411 931 l 397 931 l 300 815 l 167 815 l 321 1021 m 200 -315 q 135 -309 169 -315 q 72 -292 100 -303 l 74 -160 q 172 -181 126 -181 q 247 -156 218 -181 q 290 -103 276 -131 q 335 -3 304 -76 l 13 706 l 179 706 l 396 201 l 410 201 l 590 706 l 756 706 l 481 -18 q 408 -178 442 -117 q 323 -277 374 -239 q 200 -315 272 -315 z "},"Ź":{"ha":919,"x_min":65,"x_max":853,"o":"m 556 1257 l 729 1257 l 563 1093 l 406 1093 l 556 1257 m 65 85 l 594 824 l 594 838 l 78 838 l 78 983 l 839 983 l 839 900 l 314 161 l 314 147 l 853 147 l 853 0 l 65 0 l 65 85 z "},"ź":{"ha":728,"x_min":40,"x_max":686,"o":"m 311 819 l 458 1025 l 618 1025 l 453 819 l 311 819 m 40 72 l 435 557 l 435 571 l 54 571 l 54 706 l 672 706 l 672 633 l 285 149 l 285 135 l 686 135 l 686 0 l 40 0 l 40 72 z "},"Ż":{"ha":919,"x_min":65,"x_max":853,"o":"m 483 1093 q 413 1119 440 1093 q 385 1186 385 1146 q 413 1253 385 1226 q 483 1279 440 1279 q 554 1253 526 1279 q 582 1186 582 1226 q 554 1119 582 1146 q 483 1093 526 1093 m 65 85 l 594 824 l 594 838 l 78 838 l 78 983 l 839 983 l 839 900 l 314 161 l 314 147 l 853 147 l 853 0 l 65 0 l 65 85 z "},"ż":{"ha":728,"x_min":40,"x_max":686,"o":"m 386 824 q 313 852 342 824 q 285 925 285 881 q 313 997 285 969 q 386 1025 342 1025 q 460 997 432 1025 q 489 925 489 969 q 460 852 489 881 q 386 824 432 824 m 40 72 l 435 557 l 435 571 l 54 571 l 54 706 l 672 706 l 672 633 l 285 149 l 285 135 l 686 135 l 686 0 l 40 0 l 40 72 z "},"Ž":{"ha":919,"x_min":65,"x_max":853,"o":"m 242 1257 l 378 1257 l 476 1172 l 492 1172 l 592 1257 l 728 1257 l 569 1093 l 397 1093 l 242 1257 m 65 85 l 594 824 l 594 838 l 78 838 l 78 983 l 839 983 l 839 900 l 314 161 l 314 147 l 853 147 l 853 0 l 65 0 l 65 85 z "},"ž":{"ha":728,"x_min":40,"x_max":686,"o":"m 281 1025 l 379 910 l 393 910 l 489 1025 l 624 1025 l 468 819 l 301 819 l 147 1025 l 281 1025 m 40 72 l 435 557 l 435 571 l 54 571 l 54 706 l 672 706 l 672 633 l 285 149 l 285 135 l 686 135 l 686 0 l 40 0 l 40 72 z "},"ß":{"ha":950,"x_min":106,"x_max":900,"o":"m 585 -31 q 484 -22 538 -31 q 390 3 431 -12 l 390 144 q 472 117 426 128 q 557 106 518 106 q 679 151 633 106 q 725 276 725 197 q 674 406 725 357 q 522 456 624 456 l 460 456 l 460 579 l 524 579 q 613 617 578 579 q 649 713 649 654 q 599 825 649 782 q 469 868 549 868 q 331 810 383 868 q 279 654 279 751 l 279 0 l 106 0 l 106 663 q 152 841 106 763 q 282 963 199 919 q 472 1007 365 1007 q 651 972 572 1007 q 773 873 729 936 q 817 729 817 810 q 783 608 817 660 q 694 536 750 557 l 694 522 q 842 429 783 503 q 900 257 900 356 q 858 110 900 176 q 745 7 817 44 q 585 -31 674 -31 z "},"ẞ":{"ha":950,"x_min":106,"x_max":900,"o":"m 585 -31 q 484 -22 538 -31 q 390 3 431 -12 l 390 144 q 472 117 426 128 q 557 106 518 106 q 679 151 633 106 q 725 276 725 197 q 674 406 725 357 q 522 456 624 456 l 460 456 l 460 579 l 524 579 q 613 617 578 579 q 649 713 649 654 q 599 825 649 782 q 469 868 549 868 q 331 810 383 868 q 279 654 279 751 l 279 0 l 106 0 l 106 663 q 152 841 106 763 q 282 963 199 919 q 472 1007 365 1007 q 651 972 572 1007 q 773 873 729 936 q 817 729 817 810 q 783 608 817 660 q 694 536 750 557 l 694 522 q 842 429 783 503 q 900 257 900 356 q 858 110 900 176 q 745 7 817 44 q 585 -31 674 -31 z "},"&":{"ha":1099,"x_min":69,"x_max":1053,"o":"m 407 -31 q 233 6 310 -31 q 113 108 157 43 q 69 256 69 172 q 122 422 69 357 q 271 529 175 486 q 183 743 183 638 q 222 878 183 818 q 326 973 260 939 q 478 1007 393 1007 q 633 971 564 1007 q 741 871 701 935 q 781 728 781 807 l 626 728 q 585 829 626 789 q 479 869 543 869 q 379 833 418 869 q 340 738 340 796 q 365 648 340 693 q 438 560 390 603 l 739 283 q 838 472 800 358 l 989 472 q 839 193 942 321 l 1053 0 l 844 0 l 739 94 q 580 3 667 36 q 407 -31 493 -31 m 432 104 q 636 186 539 104 l 367 433 q 265 367 300 408 q 231 260 231 325 q 287 148 231 192 q 432 104 343 104 z "},"!":{"ha":385,"x_min":96,"x_max":289,"o":"m 107 718 l 107 983 l 279 983 l 279 718 l 236 315 l 149 315 l 107 718 m 193 -17 q 123 10 150 -17 q 96 78 96 36 q 123 146 96 119 q 193 172 150 172 q 262 146 235 172 q 289 78 289 119 q 262 10 289 36 q 193 -17 235 -17 z "},"¡":{"ha":385,"x_min":96,"x_max":289,"o":"m 193 494 q 123 522 150 494 q 96 589 96 549 q 123 658 96 631 q 193 685 150 685 q 262 658 235 685 q 289 589 289 631 q 262 522 289 549 q 193 494 235 494 m 107 -58 l 149 350 l 236 350 l 276 -58 l 276 -319 l 107 -319 l 107 -58 z "},"?":{"ha":811,"x_min":63,"x_max":747,"o":"m 314 274 q 347 443 314 382 q 453 554 381 504 q 544 633 513 594 q 575 722 575 671 q 527 828 575 786 q 410 871 479 871 q 281 815 329 871 q 238 671 233 758 l 63 671 q 108 848 63 769 q 233 971 153 926 q 415 1015 314 1015 q 585 978 510 1015 q 704 874 661 940 q 747 729 747 808 q 702 585 747 646 q 576 472 657 524 q 490 392 515 433 q 465 274 465 351 l 314 274 m 394 -18 q 324 8 351 -18 q 297 76 297 35 q 324 144 297 118 q 394 171 351 171 q 464 144 438 171 q 490 76 490 118 q 464 8 490 35 q 394 -18 438 -18 z "},"¿":{"ha":743,"x_min":29,"x_max":714,"o":"m 389 522 q 319 549 346 522 q 292 617 292 575 q 319 685 292 658 q 389 711 346 711 q 458 685 431 711 q 485 617 485 658 q 458 549 485 575 q 389 522 431 522 m 360 -322 q 190 -285 265 -322 q 72 -181 115 -247 q 29 -36 29 -115 q 74 108 29 47 q 200 221 119 169 q 286 301 261 260 q 311 419 311 342 l 463 419 q 428 250 463 311 q 322 139 394 189 q 233 60 264 99 q 201 -29 201 22 q 249 -135 201 -93 q 367 -178 297 -178 q 495 -122 447 -178 q 539 22 543 -65 l 714 22 q 669 -155 714 -76 q 543 -278 624 -233 q 360 -322 463 -322 z "},".":{"ha":314,"x_min":61,"x_max":254,"o":"m 157 -17 q 88 10 115 -17 q 61 78 61 36 q 88 146 61 119 q 157 172 115 172 q 227 146 200 172 q 254 78 254 119 q 227 10 254 36 q 157 -17 200 -17 z "},",":{"ha":315,"x_min":61,"x_max":254,"o":"m 68 -187 l 136 -15 q 82 17 103 -8 q 61 78 61 43 q 88 146 61 119 q 158 172 115 172 q 228 146 201 172 q 254 78 254 119 q 233 3 254 44 l 135 -207 l 68 -187 z "},":":{"ha":314,"x_min":61,"x_max":254,"o":"m 157 492 q 88 518 115 492 q 61 586 61 544 q 88 654 61 628 q 157 681 115 681 q 227 654 200 681 q 254 586 254 628 q 227 518 254 544 q 157 492 200 492 m 157 -17 q 88 10 115 -17 q 61 78 61 36 q 88 146 61 119 q 157 172 115 172 q 227 146 200 172 q 254 78 254 119 q 227 10 254 36 q 157 -17 200 -17 z "},";":{"ha":315,"x_min":61,"x_max":256,"o":"m 158 492 q 88 518 115 492 q 61 586 61 544 q 88 654 61 628 q 158 681 115 681 q 228 654 201 681 q 254 586 254 628 q 228 518 254 544 q 158 492 201 492 m 68 -187 l 138 -15 q 83 17 104 -8 q 63 78 63 43 q 90 146 63 119 q 158 172 117 172 q 228 146 201 172 q 256 78 256 119 q 235 3 256 44 l 136 -207 l 68 -187 z "},"…":{"ha":851,"x_min":60,"x_max":792,"o":"m 156 -17 q 87 10 114 -17 q 60 78 60 36 q 87 146 60 119 q 156 172 114 172 q 226 146 199 172 q 253 78 253 119 q 226 10 253 36 q 156 -17 199 -17 m 425 -17 q 356 10 383 -17 q 329 78 329 36 q 356 146 329 119 q 425 172 383 172 q 495 146 468 172 q 522 78 522 119 q 495 10 522 36 q 425 -17 468 -17 m 694 -17 q 626 10 653 -17 q 599 78 599 36 q 626 146 599 119 q 694 172 653 172 q 765 146 738 172 q 792 78 792 119 q 765 10 792 36 q 694 -17 738 -17 z "},"·":{"ha":315,"x_min":61,"x_max":254,"o":"m 158 310 q 88 337 115 310 q 61 404 61 364 q 88 471 61 444 q 158 497 115 497 q 227 471 200 497 q 254 404 254 444 q 227 337 254 364 q 158 310 200 310 z "},"•":{"ha":361,"x_min":61,"x_max":301,"o":"m 181 314 q 94 347 128 314 q 61 431 61 379 q 94 515 61 482 q 181 547 128 547 q 267 515 233 547 q 301 431 301 482 q 267 347 301 379 q 181 314 233 314 z "},"-":{"ha":693,"x_min":63,"x_max":632,"o":"m 63 499 l 632 499 l 632 364 l 63 364 l 63 499 z "},"–":{"ha":911,"x_min":60,"x_max":851,"o":"m 60 499 l 851 499 l 851 364 l 60 364 l 60 499 z "},"—":{"ha":1189,"x_min":60,"x_max":1129,"o":"m 60 499 l 1129 499 l 1129 364 l 60 364 l 60 499 z "},"_":{"ha":694,"x_min":0,"x_max":694,"o":"m 0 0 l 694 0 l 694 -122 l 0 -122 l 0 0 z "},"'":{"ha":249,"x_min":61,"x_max":189,"o":"m 61 789 l 61 983 l 189 983 l 189 789 l 172 521 l 78 521 l 61 789 z "},"‚":{"ha":315,"x_min":63,"x_max":256,"o":"m 68 -187 l 138 -15 q 83 17 104 -8 q 63 78 63 43 q 90 146 63 119 q 158 172 117 172 q 228 146 201 172 q 256 78 256 119 q 235 3 256 44 l 136 -207 l 68 -187 z "},"‘":{"ha":314,"x_min":60,"x_max":253,"o":"m 247 1017 l 178 844 q 233 812 213 838 q 253 750 253 786 q 226 683 253 710 q 157 656 199 656 q 87 683 114 656 q 60 750 60 710 q 82 826 60 786 l 181 1035 l 247 1017 z "},"’":{"ha":315,"x_min":63,"x_max":256,"o":"m 68 672 l 138 844 q 83 877 104 851 q 63 939 63 903 q 90 1006 63 979 q 158 1032 117 1032 q 228 1006 201 1032 q 256 939 256 979 q 235 863 256 904 l 136 654 l 68 672 z "},"\"":{"ha":488,"x_min":60,"x_max":426,"o":"m 60 789 l 60 983 l 188 983 l 188 789 l 172 521 l 78 521 l 60 789 m 299 789 l 299 983 l 426 983 l 426 789 l 411 521 l 317 521 l 299 789 z "},"“":{"ha":576,"x_min":60,"x_max":515,"o":"m 247 1017 l 178 844 q 233 812 213 838 q 253 750 253 786 q 226 683 253 710 q 157 656 199 656 q 87 683 114 656 q 60 750 60 710 q 82 826 60 786 l 181 1035 l 247 1017 m 510 1017 l 440 844 q 494 812 474 838 q 515 750 515 786 q 488 683 515 710 q 419 656 461 656 q 349 683 376 656 q 322 750 322 710 q 343 826 322 785 l 442 1035 l 510 1017 z "},"”":{"ha":576,"x_min":63,"x_max":517,"o":"m 68 672 l 138 844 q 83 877 104 851 q 63 939 63 903 q 90 1006 63 979 q 158 1032 117 1032 q 228 1006 201 1032 q 256 939 256 979 q 235 863 256 904 l 136 654 l 68 672 m 329 672 l 399 844 q 344 877 365 851 q 324 939 324 903 q 351 1006 324 979 q 421 1032 378 1032 q 490 1006 463 1032 q 517 939 517 979 q 496 863 517 904 l 397 654 l 329 672 z "},"„":{"ha":578,"x_min":63,"x_max":518,"o":"m 68 -187 l 138 -15 q 83 17 104 -8 q 63 78 63 43 q 90 146 63 119 q 158 172 117 172 q 228 146 201 172 q 256 78 256 119 q 235 3 256 44 l 136 -207 l 68 -187 m 331 -187 l 400 -15 q 346 17 367 -8 q 325 78 325 43 q 352 146 325 119 q 422 172 379 172 q 491 146 464 172 q 518 78 518 119 q 497 3 518 44 l 399 -207 l 331 -187 z "},"(":{"ha":450,"x_min":63,"x_max":438,"o":"m 283 -250 q 123 24 183 -150 q 63 388 63 199 q 123 751 63 578 q 283 1025 183 925 l 438 1025 q 266 745 329 917 q 203 388 203 574 q 266 28 203 199 q 438 -250 329 -143 l 283 -250 z "},")":{"ha":449,"x_min":11,"x_max":386,"o":"m 11 -250 q 183 28 119 -143 q 246 388 246 199 q 183 745 246 574 q 11 1025 119 917 l 165 1025 q 326 751 265 925 q 386 388 386 578 q 326 24 386 199 q 165 -250 265 -150 l 11 -250 z "},"[":{"ha":593,"x_min":119,"x_max":582,"o":"m 119 1025 l 582 1025 l 582 914 l 271 914 l 271 -139 l 582 -139 l 582 -250 l 119 -250 l 119 1025 z "},"]":{"ha":593,"x_min":13,"x_max":475,"o":"m 13 -250 l 13 -139 l 324 -139 l 324 914 l 13 914 l 13 1025 l 475 1025 l 475 -250 l 13 -250 z "},"{":{"ha":510,"x_min":63,"x_max":499,"o":"m 331 -250 q 211 -205 257 -250 q 165 -86 165 -160 l 165 231 q 141 296 165 271 q 76 321 117 321 l 63 321 l 63 468 l 76 468 q 141 492 117 468 q 165 557 165 517 l 165 861 q 211 980 165 935 q 331 1025 257 1025 l 499 1025 l 499 914 l 415 914 q 345 888 372 914 q 318 817 318 861 l 318 542 q 281 443 318 481 q 181 401 243 406 l 181 388 q 281 347 243 385 q 318 247 318 308 l 318 -42 q 345 -112 318 -86 q 415 -139 372 -139 l 499 -139 l 499 -250 l 331 -250 z "},"}":{"ha":508,"x_min":11,"x_max":447,"o":"m 11 -250 l 11 -139 l 94 -139 q 165 -112 139 -139 q 192 -42 192 -86 l 192 247 q 229 347 192 308 q 329 388 267 385 l 329 401 q 229 443 267 406 q 192 542 192 481 l 192 817 q 165 888 192 861 q 94 914 139 914 l 11 914 l 11 1025 l 179 1025 q 298 980 253 1025 q 343 861 343 935 l 343 557 q 368 492 343 517 q 433 468 393 468 l 447 468 l 447 321 l 433 321 q 368 296 393 321 q 343 231 343 271 l 343 -86 q 298 -205 343 -160 q 179 -250 253 -250 l 11 -250 z "},"/":{"ha":596,"x_min":13,"x_max":583,"o":"m 436 983 l 583 983 l 160 -319 l 13 -319 l 436 983 z "},"|":{"ha":385,"x_min":121,"x_max":264,"o":"m 121 1025 l 264 1025 l 264 -319 l 121 -319 l 121 1025 z "},"¦":{"ha":382,"x_min":119,"x_max":263,"o":"m 119 1025 l 263 1025 l 263 454 l 119 454 l 119 1025 m 119 253 l 263 253 l 263 -319 l 119 -319 l 119 253 z "},"\\":{"ha":594,"x_min":11,"x_max":583,"o":"m 435 -319 l 11 983 l 160 983 l 583 -319 l 435 -319 z "},"«":{"ha":917,"x_min":61,"x_max":854,"o":"m 61 356 l 329 706 l 506 706 l 232 356 l 506 0 l 329 0 l 61 356 m 411 356 l 678 706 l 854 706 l 582 356 l 854 0 l 678 0 l 411 356 z "},"»":{"ha":915,"x_min":63,"x_max":856,"o":"m 335 356 l 63 706 l 239 706 l 506 356 l 239 0 l 63 0 l 335 356 m 683 356 l 411 706 l 588 706 l 856 356 l 588 0 l 411 0 l 683 356 z "},"‹":{"ha":518,"x_min":14,"x_max":457,"o":"m 14 356 l 281 706 l 457 706 l 185 356 l 457 0 l 281 0 l 14 356 z "},"›":{"ha":517,"x_min":60,"x_max":504,"o":"m 60 0 l 332 356 l 60 706 l 236 706 l 504 356 l 236 0 l 60 0 z "},"*":{"ha":707,"x_min":61,"x_max":646,"o":"m 304 592 l 117 478 l 61 574 l 254 678 l 61 783 l 117 879 l 304 765 l 299 983 l 410 983 l 404 765 l 590 879 l 646 783 l 454 678 l 646 574 l 590 478 l 404 592 l 410 372 l 299 372 l 304 592 z "},"#":{"ha":1303,"x_min":61,"x_max":1242,"o":"m 344 324 l 61 324 l 61 435 l 374 435 l 422 615 l 131 615 l 131 728 l 451 728 l 531 1025 l 667 1025 l 586 728 l 801 728 l 882 1025 l 1018 1025 l 938 728 l 1242 728 l 1242 615 l 907 615 l 858 435 l 1172 435 l 1172 324 l 829 324 l 744 0 l 608 0 l 696 324 l 479 324 l 393 0 l 257 0 l 344 324 m 724 435 l 772 615 l 557 615 l 508 435 l 724 435 z "},"№":{"ha":1367,"x_min":124,"x_max":1297,"o":"m 124 983 l 335 983 l 678 244 l 692 244 l 692 983 l 850 983 l 850 0 l 639 0 l 296 738 l 282 738 l 282 0 l 124 0 l 124 983 m 1108 365 q 983 413 1032 365 q 933 535 933 461 q 983 656 933 608 q 1108 704 1032 704 q 1234 656 1185 704 q 1283 535 1283 608 q 1234 413 1283 461 q 1108 365 1185 365 m 1110 458 q 1165 481 1143 458 q 1186 535 1186 503 q 1165 588 1186 567 q 1110 610 1143 610 q 1053 588 1075 610 q 1031 535 1031 567 q 1053 480 1031 501 q 1110 458 1075 458 m 925 289 l 1297 289 l 1297 189 l 925 189 l 925 289 z "},"+":{"ha":775,"x_min":61,"x_max":714,"o":"m 310 438 l 61 438 l 61 567 l 310 567 l 310 803 l 465 803 l 465 567 l 714 567 l 714 438 l 465 438 l 465 192 l 310 192 l 310 438 z "},"−":{"ha":692,"x_min":61,"x_max":631,"o":"m 61 567 l 631 567 l 631 438 l 61 438 l 61 567 z "},"±":{"ha":775,"x_min":61,"x_max":714,"o":"m 314 557 l 61 557 l 61 686 l 314 686 l 314 840 l 461 840 l 461 686 l 714 686 l 714 557 l 461 557 l 461 396 l 314 396 l 314 557 m 61 278 l 714 278 l 714 150 l 61 150 l 61 278 z "},"×":{"ha":574,"x_min":61,"x_max":513,"o":"m 61 351 l 197 494 l 61 638 l 153 729 l 286 589 l 419 729 l 513 638 l 378 494 l 513 351 l 421 258 l 286 400 l 153 258 l 61 351 z "},"÷":{"ha":747,"x_min":61,"x_max":686,"o":"m 374 676 q 313 700 336 676 q 289 760 289 724 q 313 818 289 796 q 374 840 336 840 q 434 817 410 840 q 458 760 458 794 q 434 700 458 724 q 374 676 410 676 m 61 551 l 686 551 l 686 424 l 61 424 l 61 551 m 374 118 q 313 141 336 118 q 289 200 289 164 q 313 259 289 236 q 374 282 336 282 q 434 258 410 282 q 458 200 458 235 q 434 141 458 164 q 374 118 410 118 z "},"<":{"ha":596,"x_min":14,"x_max":535,"o":"m 14 401 l 14 576 l 535 846 l 535 694 l 126 496 l 126 482 l 535 283 l 535 133 l 14 401 z "},">":{"ha":593,"x_min":60,"x_max":581,"o":"m 60 283 l 468 482 l 468 496 l 60 694 l 60 846 l 581 576 l 581 401 l 60 133 l 60 283 z "},"≤":{"ha":621,"x_min":60,"x_max":561,"o":"m 60 483 l 60 650 l 561 842 l 561 706 l 181 575 l 181 561 l 561 428 l 561 293 l 60 483 m 60 239 l 561 239 l 561 115 l 60 115 l 60 239 z "},"≥":{"ha":621,"x_min":60,"x_max":561,"o":"m 60 428 l 440 561 l 440 575 l 60 706 l 60 842 l 561 650 l 561 483 l 60 293 l 60 428 m 60 115 l 60 239 l 561 239 l 561 115 l 60 115 z "},"=":{"ha":775,"x_min":61,"x_max":714,"o":"m 61 721 l 714 721 l 714 588 l 61 588 l 61 721 m 61 369 l 714 369 l 714 238 l 61 238 l 61 369 z "},"≠":{"ha":774,"x_min":61,"x_max":714,"o":"m 246 249 l 61 249 l 61 381 l 292 381 l 374 599 l 61 599 l 61 732 l 421 732 l 497 944 l 619 944 l 542 732 l 714 732 l 714 599 l 496 599 l 415 381 l 714 381 l 714 249 l 369 249 l 279 3 l 156 3 l 246 249 z "},"¬":{"ha":888,"x_min":61,"x_max":813,"o":"m 694 378 l 61 378 l 61 507 l 813 507 l 813 97 l 694 97 l 694 378 z "},"°":{"ha":703,"x_min":61,"x_max":642,"o":"m 353 474 q 200 508 267 474 q 97 607 133 543 q 61 753 61 671 q 97 899 61 835 q 200 997 133 963 q 353 1032 267 1032 q 504 997 439 1032 q 606 899 569 963 q 642 753 642 835 q 606 607 642 671 q 504 508 569 543 q 353 474 439 474 m 353 579 q 478 627 431 579 q 525 753 525 675 q 478 878 525 831 q 353 926 431 926 q 226 878 274 926 q 178 753 178 831 q 226 627 178 675 q 353 579 274 579 z "},"%":{"ha":1435,"x_min":61,"x_max":1374,"o":"m 349 465 q 199 501 265 465 q 97 603 133 538 q 61 753 61 668 q 98 901 61 836 q 200 1003 135 967 q 349 1039 265 1039 q 497 1003 432 1039 q 599 901 563 967 q 636 753 636 836 q 600 603 636 668 q 498 501 564 538 q 349 465 432 465 m 990 1025 l 1160 1025 l 446 0 l 275 0 l 990 1025 m 349 610 q 451 649 413 610 q 489 753 489 689 q 451 854 489 815 q 349 893 413 893 q 246 854 285 893 q 207 753 207 815 q 246 649 207 689 q 349 610 285 610 m 1086 -14 q 938 23 1003 -14 q 836 125 872 60 q 800 274 800 190 q 836 422 800 357 q 938 524 872 488 q 1086 561 1003 561 q 1236 525 1171 561 q 1338 423 1301 489 q 1374 274 1374 357 q 1338 124 1374 190 q 1236 22 1301 58 q 1086 -14 1171 -14 m 1086 132 q 1190 171 1150 132 q 1229 274 1229 210 q 1190 376 1229 336 q 1086 415 1150 415 q 985 376 1025 415 q 946 274 946 336 q 985 172 946 211 q 1086 132 1025 132 z "},"‰":{"ha":2082,"x_min":61,"x_max":2021,"o":"m 349 465 q 199 501 265 465 q 97 603 133 538 q 61 753 61 668 q 98 901 61 836 q 200 1003 135 967 q 349 1039 265 1039 q 497 1003 432 1039 q 599 901 563 967 q 636 753 636 836 q 600 603 636 668 q 498 501 564 538 q 349 465 432 465 m 990 1025 l 1160 1025 l 446 0 l 275 0 l 990 1025 m 347 610 q 450 649 411 610 q 489 753 489 689 q 450 854 489 815 q 347 893 411 893 q 245 854 283 893 q 207 753 207 815 q 245 649 207 689 q 347 610 283 610 m 1086 -14 q 938 23 1003 -14 q 836 125 872 60 q 800 274 800 190 q 836 422 800 357 q 938 524 872 488 q 1086 561 1003 561 q 1236 525 1171 561 q 1338 423 1301 489 q 1374 274 1374 357 q 1338 124 1374 190 q 1236 22 1301 58 q 1086 -14 1171 -14 m 1733 -14 q 1585 23 1650 -14 q 1483 125 1519 60 q 1447 274 1447 190 q 1483 422 1447 357 q 1585 524 1519 488 q 1733 561 1650 561 q 1883 525 1818 561 q 1985 423 1949 489 q 2021 274 2021 357 q 1985 124 2021 190 q 1883 22 1949 58 q 1733 -14 1818 -14 m 1086 132 q 1190 171 1150 132 q 1229 274 1229 210 q 1190 376 1229 336 q 1086 415 1150 415 q 985 376 1024 415 q 946 274 946 336 q 985 171 946 210 q 1086 132 1024 132 m 1733 132 q 1836 171 1797 132 q 1875 274 1875 210 q 1836 376 1875 336 q 1733 415 1797 415 q 1631 376 1669 415 q 1592 274 1592 336 q 1631 171 1592 210 q 1733 132 1669 132 z "},"µ":{"ha":832,"x_min":93,"x_max":739,"o":"m 93 707 l 250 707 l 250 307 q 294 176 250 222 q 414 129 339 129 q 532 178 482 129 q 582 307 582 226 l 582 706 l 739 706 l 739 0 l 588 0 l 588 92 q 511 20 558 44 q 407 -4 464 -4 q 316 15 357 -4 q 250 76 275 35 l 250 -271 l 93 -271 l 93 707 z "},"¤":{"ha":994,"x_min":61,"x_max":935,"o":"m 61 14 l 189 132 q 119 351 119 225 q 189 569 119 476 l 63 689 l 139 768 l 269 646 q 497 713 367 713 q 728 646 628 713 l 860 767 l 933 688 l 806 569 q 875 351 875 476 q 806 132 875 225 l 935 14 l 860 -65 l 728 58 q 497 -10 629 -10 q 269 57 367 -10 l 138 -65 l 61 14 m 497 101 q 622 133 567 101 q 708 222 678 165 q 739 351 739 279 q 708 481 739 424 q 622 569 678 538 q 497 601 567 601 q 374 569 429 601 q 288 481 319 538 q 257 351 257 424 q 288 222 257 279 q 373 133 318 165 q 497 101 428 101 z "},"$":{"ha":963,"x_min":69,"x_max":896,"o":"m 896 276 q 808 67 896 147 q 561 -28 719 -14 l 561 -167 l 400 -167 l 400 -24 q 158 90 246 -1 q 69 322 69 181 l 239 322 q 308 167 239 224 q 500 111 376 111 q 663 151 606 111 q 721 264 721 192 q 688 349 721 318 q 605 394 656 381 q 469 422 554 408 q 274 465 354 440 q 138 550 194 490 q 82 714 82 610 q 166 917 82 838 q 400 1013 250 997 l 400 1139 l 561 1139 l 561 1008 q 789 900 707 988 q 871 678 871 813 l 707 678 q 645 822 707 771 q 472 874 583 874 q 313 833 369 874 q 257 725 257 793 q 290 642 257 672 q 375 599 324 613 q 513 571 426 585 q 708 527 629 553 q 841 442 786 501 q 896 276 896 382 z "},"¢":{"ha":850,"x_min":61,"x_max":790,"o":"m 790 242 q 694 71 771 140 q 508 -18 617 1 l 508 -156 l 360 -156 l 360 -18 q 204 48 272 -3 q 99 177 136 99 q 61 350 61 256 q 99 526 61 447 q 203 658 136 606 q 360 725 271 710 l 360 850 l 508 850 l 508 726 q 696 636 619 707 q 788 464 772 565 l 639 446 q 565 554 622 513 q 436 596 508 596 q 325 565 375 596 q 247 479 275 535 q 218 353 218 424 q 247 227 218 282 q 324 141 275 172 q 436 110 374 110 q 565 151 508 110 q 639 260 621 193 l 790 242 z "},"€":{"ha":1256,"x_min":61,"x_max":1192,"o":"m 718 118 q 912 183 825 118 q 1025 346 999 247 l 1192 319 q 1101 139 1169 218 q 931 15 1032 60 q 717 -31 831 -31 q 489 17 593 -31 q 314 152 385 65 q 217 353 243 239 l 61 353 l 61 450 l 203 450 q 201 492 201 464 q 203 538 201 522 l 61 538 l 61 636 l 218 636 q 317 835 246 750 q 490 968 388 921 q 717 1015 593 1015 q 931 968 831 1015 q 1101 838 1032 921 q 1192 650 1169 754 l 1025 629 q 963 751 1008 697 q 853 836 918 806 q 718 867 789 867 q 520 805 604 867 q 399 636 436 743 l 756 636 l 756 538 l 378 538 q 375 492 375 507 q 376 450 375 464 l 756 450 l 756 353 l 397 353 q 519 182 433 246 q 718 118 604 118 z "},"£":{"ha":868,"x_min":61,"x_max":808,"o":"m 61 163 q 139 196 107 172 q 190 275 171 219 q 210 426 208 331 l 75 426 l 75 549 l 214 549 l 214 728 q 251 876 214 810 q 353 978 288 942 q 503 1015 419 1015 q 656 976 588 1015 q 764 865 724 936 q 808 707 804 794 l 660 707 q 615 832 658 783 q 510 881 572 881 q 414 837 450 881 q 378 724 378 793 l 378 549 l 706 549 l 706 426 l 369 426 q 344 283 364 338 q 293 200 324 229 q 217 149 263 171 l 217 135 l 804 135 l 804 0 l 61 0 l 61 163 z "},"₽":{"ha":1026,"x_min":60,"x_max":978,"o":"m 607 983 q 877 903 776 983 q 978 679 978 822 q 931 515 978 585 q 801 407 885 444 q 606 369 717 369 l 367 369 l 367 279 l 617 279 l 617 144 l 367 144 l 367 0 l 196 0 l 196 144 l 60 144 l 60 279 l 196 279 l 196 371 l 60 371 l 60 508 l 196 508 l 196 983 l 607 983 m 599 508 q 749 554 693 508 q 804 676 804 600 q 749 801 804 756 q 599 847 693 847 l 367 847 l 367 508 l 599 508 z "},"¥":{"ha":993,"x_min":50,"x_max":944,"o":"m 413 111 l 101 111 l 101 217 l 413 217 l 413 308 l 101 308 l 101 413 l 372 413 l 50 983 l 244 983 l 493 504 l 507 504 l 747 983 l 944 983 l 625 413 l 894 413 l 894 308 l 588 308 l 588 217 l 894 217 l 894 111 l 588 111 l 588 0 l 413 0 l 413 111 z "},"₤":{"ha":868,"x_min":61,"x_max":808,"o":"m 61 156 q 144 201 111 165 q 192 322 178 238 l 69 322 l 69 410 l 211 410 q 214 483 214 433 l 69 483 l 69 578 l 214 578 l 214 726 q 251 874 214 808 q 355 977 289 940 q 504 1014 421 1014 q 656 975 589 1014 q 764 866 724 936 q 808 708 804 796 l 656 708 q 611 832 653 783 q 508 881 569 881 q 414 837 450 881 q 378 725 378 793 l 378 578 l 706 578 l 706 483 l 378 483 q 375 410 378 457 l 706 410 l 706 317 l 351 317 q 302 196 336 238 q 211 131 268 154 l 211 117 l 804 117 l 804 0 l 61 0 l 61 156 z "},"©":{"ha":1321,"x_min":64,"x_max":1258,"o":"m 660 -228 q 351 -154 486 -228 q 140 52 215 -81 q 64 354 64 185 q 140 653 64 521 q 351 860 215 786 q 660 935 486 935 q 971 861 835 935 q 1183 656 1107 788 q 1258 354 1258 524 q 1183 52 1258 185 q 971 -154 1107 -81 q 660 -228 835 -228 m 661 -129 q 913 -67 803 -129 q 1085 104 1024 -6 q 1147 354 1147 214 q 1085 601 1147 492 q 913 773 1024 711 q 661 835 803 835 q 409 773 519 835 q 237 602 299 711 q 175 354 175 493 q 237 104 175 214 q 409 -67 299 -6 q 661 -129 519 -129 m 671 -22 q 479 26 564 -22 q 347 159 394 74 q 299 353 299 244 q 346 547 299 461 q 478 680 393 632 q 671 728 563 728 q 826 694 754 728 q 947 599 899 660 q 1010 464 996 539 l 903 444 q 817 572 883 522 q 668 622 750 622 q 541 588 597 622 q 453 492 485 554 q 421 353 421 431 q 453 214 421 275 q 542 118 485 153 q 672 83 600 83 q 826 137 758 83 q 913 274 894 190 l 1010 251 q 949 111 997 174 q 828 13 900 49 q 671 -22 756 -22 z "},"®":{"ha":1321,"x_min":64,"x_max":1258,"o":"m 660 -228 q 351 -154 486 -228 q 140 52 215 -81 q 64 354 64 185 q 140 653 64 521 q 351 860 215 786 q 660 935 486 935 q 971 861 835 935 q 1183 656 1107 788 q 1258 354 1258 524 q 1183 52 1258 185 q 971 -154 1107 -81 q 660 -228 835 -228 m 661 -129 q 913 -67 803 -129 q 1085 104 1024 -6 q 1147 354 1147 214 q 1085 601 1147 492 q 913 773 1024 711 q 661 835 803 835 q 409 773 519 835 q 237 602 299 711 q 175 354 175 493 q 237 104 175 214 q 409 -67 299 -6 q 661 -129 519 -129 m 413 706 l 728 706 q 847 678 793 706 q 931 603 900 651 q 961 493 961 554 q 900 351 961 408 q 747 292 839 294 l 742 292 l 954 14 l 811 14 l 618 283 l 529 283 l 529 14 l 413 14 l 413 706 m 710 375 q 806 407 768 375 q 843 493 843 439 q 805 579 843 546 q 710 613 767 613 l 529 613 l 529 375 l 710 375 z "},"@":{"ha":1407,"x_min":64,"x_max":1344,"o":"m 651 -253 q 349 -174 483 -253 q 140 45 215 -94 q 64 358 64 185 q 147 671 64 532 q 375 888 229 810 q 704 965 521 965 q 1033 888 888 965 q 1262 672 1179 810 q 1344 360 1344 533 q 1276 83 1344 179 q 1081 -12 1208 -12 q 958 22 1004 -12 q 896 121 911 57 l 882 121 q 776 15 846 53 q 618 -24 707 -24 q 488 3 544 -24 q 399 76 431 29 q 367 185 367 124 q 449 346 367 282 q 690 428 532 410 l 865 447 l 865 476 q 824 578 865 546 q 703 610 783 610 q 591 581 628 610 q 556 489 554 551 l 400 489 q 482 668 400 601 q 703 735 564 735 q 935 664 849 735 q 1022 472 1022 593 l 1022 189 q 1042 119 1022 144 q 1100 94 1063 94 q 1217 360 1217 94 q 1151 614 1217 501 q 968 790 1085 726 q 704 854 851 854 q 440 790 557 854 q 256 614 322 726 q 190 358 190 501 q 250 101 190 215 q 415 -77 310 -12 q 653 -142 519 -142 q 764 -128 706 -142 q 858 -96 822 -114 l 858 -210 q 760 -242 817 -231 q 651 -253 704 -253 m 660 94 q 766 119 719 94 q 839 186 813 143 q 865 281 865 229 l 865 340 l 693 321 q 563 277 606 311 q 521 196 521 243 q 560 121 521 147 q 660 94 599 94 z "},"™":{"ha":1564,"x_min":15,"x_max":1456,"o":"m 214 868 l 15 868 l 15 983 l 549 983 l 549 868 l 349 868 l 349 208 l 214 208 l 214 868 m 644 983 l 833 983 l 1042 393 l 1056 393 l 1263 983 l 1456 983 l 1456 208 l 1328 208 l 1328 788 l 1314 788 l 1106 208 l 994 208 l 786 788 l 772 788 l 772 208 l 644 208 l 644 983 z "},"§":{"ha":843,"x_min":71,"x_max":774,"o":"m 424 -215 q 263 -181 335 -215 q 149 -87 190 -147 q 108 49 108 -26 l 256 49 q 306 -47 257 -10 q 429 -85 356 -85 q 535 -55 493 -85 q 576 21 576 -25 q 547 92 576 65 q 474 131 518 118 q 356 156 429 143 q 211 192 271 171 q 111 254 151 213 q 71 364 71 296 q 116 481 71 429 q 232 547 161 532 q 144 618 178 567 q 111 735 111 669 q 149 861 111 806 q 256 948 188 917 q 410 979 324 979 q 566 947 497 979 q 675 855 635 914 q 719 719 715 796 l 571 719 q 525 815 571 778 q 407 851 479 851 q 303 824 343 851 q 263 756 263 797 q 291 693 263 717 q 361 656 319 669 q 481 626 403 643 q 632 588 574 607 q 732 528 690 569 q 774 418 774 488 q 725 301 774 353 q 601 233 676 250 q 697 163 660 214 q 735 47 735 113 q 694 -87 735 -28 q 583 -181 654 -147 q 424 -215 513 -215 m 461 275 q 573 310 529 279 q 617 385 617 342 q 564 467 617 444 q 428 499 511 490 l 369 508 q 263 472 306 504 q 221 401 221 440 q 271 319 221 343 q 406 285 321 296 l 461 275 z "},"¶":{"ha":1038,"x_min":61,"x_max":938,"o":"m 372 438 q 210 472 281 438 q 100 567 139 506 q 61 708 61 628 q 100 853 61 790 q 210 949 139 915 q 372 983 281 983 l 938 983 l 938 868 l 807 868 l 807 -301 l 667 -301 l 667 868 l 513 868 l 513 -301 l 372 -301 l 372 438 z "},"†":{"ha":689,"x_min":60,"x_max":629,"o":"m 275 371 l 60 371 l 60 499 l 275 499 l 275 1021 l 414 1021 l 414 499 l 629 499 l 629 371 l 414 371 l 414 -314 l 275 -314 l 275 371 z "},"‡":{"ha":772,"x_min":60,"x_max":713,"o":"m 317 196 l 60 196 l 60 318 l 317 318 l 317 550 l 60 550 l 60 672 l 317 672 l 317 1025 l 456 1025 l 456 672 l 713 672 l 713 550 l 456 550 l 456 318 l 713 318 l 713 196 l 456 196 l 456 -319 l 317 -319 l 317 196 z "},"^":{"ha":801,"x_min":61,"x_max":740,"o":"m 314 983 l 488 983 l 740 556 l 590 556 l 408 885 l 394 885 l 213 556 l 61 556 l 314 983 z "},"~":{"ha":914,"x_min":61,"x_max":853,"o":"m 638 281 q 546 302 592 281 q 438 364 500 324 q 339 419 375 401 q 268 436 303 436 q 188 412 228 436 q 118 349 149 388 l 61 443 q 162 535 99 500 q 282 571 225 571 q 373 550 328 571 q 483 488 418 529 q 575 433 538 451 q 646 415 613 415 q 728 440 688 415 q 794 504 768 464 l 853 408 q 754 316 815 351 q 638 281 693 281 z "},"`":{"ha":428,"x_min":61,"x_max":368,"o":"m 61 1025 l 221 1025 l 368 819 l 225 819 l 61 1025 z "},"´":{"ha":426,"x_min":60,"x_max":367,"o":"m 60 819 l 207 1025 l 367 1025 l 201 819 l 60 819 z "},"¨":{"ha":653,"x_min":61,"x_max":592,"o":"m 153 824 q 87 849 113 824 q 61 914 61 874 q 87 977 61 953 q 153 1001 113 1001 q 219 977 193 1001 q 244 914 244 953 q 219 849 244 875 q 153 824 193 824 m 500 824 q 434 849 460 824 q 408 914 408 874 q 434 977 408 953 q 500 1001 460 1001 q 566 977 540 1001 q 592 914 592 953 q 566 849 592 874 q 500 824 540 824 z "},"¯":{"ha":571,"x_min":61,"x_max":511,"o":"m 61 950 l 511 950 l 511 838 l 61 838 l 61 950 z "},"¸":{"ha":425,"x_min":61,"x_max":365,"o":"m 215 -317 q 114 -289 157 -317 q 61 -218 71 -261 l 143 -193 q 167 -231 147 -217 q 213 -246 186 -246 q 258 -230 240 -246 q 275 -189 275 -214 q 252 -143 275 -161 q 193 -125 229 -125 l 121 -125 l 144 31 l 239 31 l 224 -65 q 325 -101 285 -65 q 365 -192 365 -137 q 324 -282 365 -247 q 215 -317 282 -317 z "},"ˆ":{"ha":597,"x_min":61,"x_max":536,"o":"m 215 1021 l 382 1021 l 536 815 l 403 815 l 306 931 l 292 931 l 194 815 l 61 815 l 215 1021 z "},"ˇ":{"ha":597,"x_min":61,"x_max":536,"o":"m 193 1026 l 292 910 l 306 910 l 401 1026 l 536 1026 l 381 819 l 214 819 l 61 1026 l 193 1026 z "},"˘":{"ha":513,"x_min":61,"x_max":453,"o":"m 257 831 q 117 885 172 831 q 61 1025 61 940 l 178 1025 q 199 954 178 981 q 257 928 219 928 q 315 955 294 928 q 336 1025 336 982 l 453 1025 q 397 885 453 940 q 257 831 342 831 z "},"˙":{"ha":326,"x_min":61,"x_max":265,"o":"m 163 824 q 90 852 118 824 q 61 925 61 881 q 90 997 61 969 q 163 1025 118 1025 q 236 997 207 1025 q 265 925 265 968 q 236 852 265 881 q 163 824 207 824 z "},"":{"ha":0,"x_min":-235,"x_max":-61,"o":"m -210 -374 l -154 -269 q -212 -243 -189 -267 q -235 -187 -235 -219 q -210 -126 -235 -150 q -149 -101 -186 -101 q -85 -126 -110 -101 q -61 -186 -61 -150 q -83 -257 -61 -222 l -158 -390 l -210 -374 z "},"˚":{"ha":438,"x_min":61,"x_max":376,"o":"m 219 815 q 106 858 150 815 q 61 965 61 900 q 106 1074 61 1032 q 219 1115 150 1115 q 333 1074 289 1115 q 376 965 376 1032 q 333 858 376 900 q 219 815 289 815 m 219 879 q 281 903 257 879 q 304 965 304 928 q 281 1027 304 1003 q 219 1051 257 1051 q 157 1027 181 1051 q 133 965 133 1003 q 157 903 133 928 q 219 879 181 879 z "},"˛":{"ha":357,"x_min":61,"x_max":293,"o":"m 178 -281 q 94 -250 126 -281 q 61 -171 61 -219 q 115 -53 61 -110 q 268 43 168 3 l 293 0 q 181 -69 222 -29 q 140 -147 140 -108 q 157 -188 140 -172 q 203 -204 174 -204 q 281 -179 238 -204 l 281 -253 q 231 -273 258 -265 q 178 -281 203 -281 z "},"˜":{"ha":644,"x_min":61,"x_max":585,"o":"m 417 817 q 351 828 378 817 q 293 863 324 840 q 252 887 267 879 q 218 894 238 894 q 169 881 192 894 q 135 843 147 867 l 61 899 q 130 972 86 944 q 226 1000 174 1000 q 287 988 261 1000 q 344 956 313 976 q 389 930 374 938 q 425 922 404 922 q 476 937 453 922 q 511 975 499 951 l 585 921 q 516 844 558 872 q 417 817 474 817 z "},"˝":{"ha":657,"x_min":61,"x_max":596,"o":"m 196 1018 l 349 1018 l 188 819 l 61 819 l 196 1018 m 294 819 l 443 1018 l 596 1018 l 424 819 l 294 819 z "},"А":{"ha":1022,"x_min":36,"x_max":986,"o":"m 390 983 l 636 983 l 986 0 l 814 0 l 742 199 l 281 199 l 207 0 l 36 0 l 390 983 m 699 333 l 519 833 l 506 833 l 325 333 l 699 333 z "},"Б":{"ha":961,"x_min":119,"x_max":913,"o":"m 119 983 l 842 983 l 842 839 l 293 839 l 293 615 l 549 615 q 816 533 719 615 q 913 308 913 451 q 813 83 913 165 q 540 0 714 0 l 119 0 l 119 983 m 517 142 q 678 187 619 142 q 738 308 738 232 q 680 428 738 383 q 525 474 622 474 l 293 474 l 293 142 l 517 142 z "},"В":{"ha":985,"x_min":119,"x_max":924,"o":"m 119 983 l 568 983 q 738 949 664 983 q 854 855 813 915 q 896 717 896 794 q 857 590 896 646 q 756 514 818 533 l 756 500 q 876 417 829 479 q 924 274 924 354 q 880 132 924 194 q 757 35 836 69 q 575 0 678 0 l 119 0 l 119 983 m 542 571 q 670 608 619 571 q 721 706 721 646 q 670 803 721 765 q 542 842 619 842 l 293 842 l 293 571 l 542 571 m 546 142 q 691 184 633 142 q 749 290 749 226 q 691 395 749 354 q 546 436 633 436 l 293 436 l 293 142 l 546 142 z "},"Г":{"ha":853,"x_min":119,"x_max":799,"o":"m 119 983 l 799 983 l 799 835 l 293 835 l 293 0 l 119 0 l 119 983 z "},"Д":{"ha":1188,"x_min":29,"x_max":1149,"o":"m 29 147 l 124 147 q 224 267 188 193 q 275 449 261 340 l 343 983 l 1004 983 l 1004 147 l 1149 147 l 1149 -208 l 1000 -208 l 1000 0 l 178 0 l 178 -208 l 29 -208 l 29 147 m 829 147 l 829 838 l 500 838 l 442 419 q 397 269 429 332 q 314 161 364 207 l 314 147 l 829 147 z "},"Е":{"ha":893,"x_min":119,"x_max":831,"o":"m 119 983 l 817 983 l 817 838 l 293 838 l 293 575 l 768 575 l 768 438 l 293 438 l 293 147 l 831 147 l 831 0 l 119 0 l 119 983 z "},"Ё":{"ha":893,"x_min":119,"x_max":831,"o":"m 307 1088 q 238 1114 265 1088 q 211 1182 211 1140 q 238 1249 211 1222 q 307 1275 265 1275 q 375 1249 349 1275 q 401 1182 401 1222 q 375 1114 401 1140 q 307 1088 349 1088 m 638 1088 q 569 1114 596 1088 q 543 1182 543 1140 q 569 1249 543 1222 q 638 1275 596 1275 q 706 1249 679 1275 q 733 1182 733 1222 q 706 1114 733 1140 q 638 1088 679 1088 m 119 983 l 817 983 l 817 838 l 293 838 l 293 575 l 768 575 l 768 438 l 293 438 l 293 147 l 831 147 l 831 0 l 119 0 l 119 983 z "},"Ж":{"ha":1449,"x_min":39,"x_max":1413,"o":"m 475 508 l 50 983 l 261 983 l 624 564 l 638 564 l 638 983 l 813 983 l 813 564 l 826 564 l 1189 983 l 1400 983 l 976 508 l 1413 0 l 1199 0 l 826 450 l 813 450 l 813 0 l 638 0 l 638 450 l 624 450 l 251 0 l 39 0 l 475 508 z "},"З":{"ha":908,"x_min":60,"x_max":858,"o":"m 469 -31 q 256 17 349 -31 q 111 148 163 64 q 60 339 60 232 l 231 339 q 295 180 231 242 q 465 118 360 118 q 621 165 558 118 q 683 283 683 211 q 625 399 683 353 q 476 444 567 444 l 367 444 l 367 574 l 482 574 q 609 615 558 574 q 660 718 660 657 q 603 825 660 783 q 461 867 546 867 q 307 813 365 867 q 249 674 249 758 l 79 674 q 127 850 79 772 q 262 972 175 928 q 463 1015 349 1015 q 649 980 565 1015 q 780 881 732 944 q 828 736 828 817 q 783 600 828 657 q 665 522 739 543 l 665 508 q 804 424 750 493 q 858 265 858 356 q 808 113 858 181 q 668 8 757 46 q 469 -31 579 -31 z "},"И":{"ha":1065,"x_min":119,"x_max":946,"o":"m 775 0 l 775 756 l 761 756 l 343 0 l 119 0 l 119 983 l 289 983 l 289 228 l 303 228 l 721 983 l 946 983 l 946 0 l 775 0 z "},"Й":{"ha":1065,"x_min":119,"x_max":946,"o":"m 558 1079 q 399 1129 461 1079 q 336 1257 336 1179 l 471 1257 q 494 1199 471 1219 q 558 1178 518 1178 q 622 1199 599 1178 q 644 1257 644 1219 l 778 1257 q 716 1129 778 1179 q 558 1079 654 1079 m 290 983 l 290 228 l 304 228 l 722 983 l 946 983 l 946 0 l 776 0 l 776 756 l 763 756 l 344 0 l 119 0 l 119 983 l 290 983 z "},"К":{"ha":919,"x_min":119,"x_max":896,"o":"m 119 983 l 294 983 l 294 567 l 308 567 l 672 983 l 885 983 l 458 508 l 896 0 l 683 0 l 308 447 l 294 447 l 294 0 l 119 0 l 119 983 z "},"Л":{"ha":1076,"x_min":40,"x_max":958,"o":"m 40 147 q 188 201 142 147 q 246 388 235 256 l 299 983 l 958 983 l 958 0 l 783 0 l 783 838 l 458 838 l 411 331 q 303 83 397 167 q 40 0 208 0 l 40 147 z "},"М":{"ha":1350,"x_min":119,"x_max":1231,"o":"m 119 983 l 375 983 l 667 229 l 681 229 l 972 983 l 1231 983 l 1231 0 l 1058 0 l 1058 757 l 1044 757 l 750 0 l 597 0 l 306 756 l 292 756 l 292 0 l 119 0 l 119 983 z "},"Н":{"ha":1061,"x_min":119,"x_max":943,"o":"m 119 983 l 293 983 l 293 585 l 768 585 l 768 983 l 943 983 l 943 0 l 768 0 l 768 439 l 293 439 l 293 0 l 119 0 l 119 983 z "},"О":{"ha":1199,"x_min":63,"x_max":1136,"o":"m 600 -31 q 321 35 443 -31 q 131 220 199 101 q 63 492 63 339 q 131 764 63 644 q 321 949 199 883 q 600 1015 443 1015 q 878 949 756 1015 q 1068 764 1000 883 q 1136 492 1136 644 q 1068 220 1136 339 q 878 35 1000 101 q 600 -31 756 -31 m 600 118 q 788 166 706 118 q 916 299 869 214 q 963 492 963 383 q 916 685 963 600 q 788 819 869 771 q 600 867 706 867 q 413 819 494 867 q 284 685 331 771 q 238 492 238 600 q 284 299 238 383 q 413 166 331 214 q 600 118 494 118 z "},"П":{"ha":1056,"x_min":119,"x_max":938,"o":"m 119 983 l 938 983 l 938 0 l 763 0 l 763 844 l 293 844 l 293 0 l 119 0 l 119 983 z "},"Р":{"ha":951,"x_min":121,"x_max":903,"o":"m 121 983 l 532 983 q 727 946 643 983 q 857 838 811 908 q 903 672 903 768 q 856 505 903 576 q 726 394 810 433 q 531 356 642 356 l 292 356 l 292 0 l 121 0 l 121 983 m 524 499 q 674 545 618 499 q 729 669 729 592 q 674 795 729 749 q 524 842 618 842 l 292 842 l 292 499 l 524 499 z "},"С":{"ha":1118,"x_min":64,"x_max":1054,"o":"m 579 -31 q 313 37 431 -31 q 130 223 196 104 q 64 492 64 342 q 130 762 64 643 q 313 948 196 881 q 579 1015 431 1015 q 794 968 693 1015 q 963 838 894 921 q 1054 650 1032 754 l 888 629 q 826 751 871 697 q 716 836 781 806 q 581 867 651 867 q 404 819 482 867 q 283 685 326 771 q 239 492 239 600 q 283 299 239 385 q 404 166 326 214 q 581 118 482 118 q 774 183 688 118 q 888 346 861 247 l 1054 319 q 963 139 1032 218 q 794 15 894 60 q 579 -31 693 -31 z "},"Т":{"ha":843,"x_min":15,"x_max":829,"o":"m 335 835 l 15 835 l 15 983 l 829 983 l 829 835 l 510 835 l 510 0 l 335 0 l 335 835 z "},"У":{"ha":976,"x_min":42,"x_max":943,"o":"m 238 -25 q 154 -20 194 -25 q 93 -6 114 -15 l 93 138 q 144 124 115 129 q 200 119 174 119 q 314 156 265 119 q 411 293 363 192 l 426 328 l 42 983 l 231 983 l 508 501 l 522 501 l 753 983 l 943 983 l 593 275 q 484 92 535 156 q 376 1 433 28 q 238 -25 319 -25 z "},"Ф":{"ha":1196,"x_min":50,"x_max":1146,"o":"m 510 72 q 267 134 371 78 q 106 285 163 190 q 50 496 50 379 q 106 707 50 613 q 266 858 161 801 q 511 919 371 915 l 511 1025 l 686 1025 l 686 919 q 929 860 825 917 q 1090 709 1033 804 q 1146 496 1146 614 q 1090 283 1146 378 q 928 131 1033 188 q 685 72 824 75 l 685 -42 l 510 -42 l 510 72 m 511 775 q 360 735 426 774 q 258 634 294 697 q 222 497 222 571 q 259 360 222 424 q 362 258 296 296 q 511 217 428 219 l 511 775 m 686 217 q 835 255 769 217 q 937 357 900 293 q 974 497 974 421 q 937 636 974 572 q 834 738 900 700 q 686 775 768 775 l 686 217 z "},"Х":{"ha":1038,"x_min":49,"x_max":989,"o":"m 392 519 l 61 983 l 258 983 l 507 617 l 521 617 l 778 983 l 978 983 l 635 519 l 989 0 l 790 0 l 521 414 l 507 414 l 246 0 l 49 0 l 392 519 z "},"Ц":{"ha":1138,"x_min":119,"x_max":1103,"o":"m 942 0 l 119 0 l 119 983 l 293 983 l 293 146 l 769 146 l 769 983 l 944 983 l 944 146 l 1103 146 l 1103 -210 l 942 -210 l 942 0 z "},"Ч":{"ha":996,"x_min":83,"x_max":876,"o":"m 703 428 q 589 342 663 374 q 438 311 515 311 q 256 351 336 311 q 129 470 175 392 q 83 660 83 549 l 83 983 l 258 983 l 258 682 q 320 510 258 569 q 482 451 382 451 q 608 488 546 451 q 703 581 671 525 l 703 983 l 876 983 l 876 0 l 703 0 l 703 428 z "},"Ш":{"ha":1408,"x_min":119,"x_max":1290,"o":"m 119 983 l 293 983 l 293 147 l 617 147 l 617 983 l 792 983 l 792 147 l 1115 147 l 1115 983 l 1290 983 l 1290 0 l 119 0 l 119 983 z "},"Щ":{"ha":1492,"x_min":119,"x_max":1457,"o":"m 1297 0 l 119 0 l 119 983 l 293 983 l 293 147 l 617 147 l 617 983 l 792 983 l 792 147 l 1115 147 l 1115 983 l 1290 983 l 1290 146 l 1457 146 l 1457 -208 l 1297 -208 l 1297 0 z "},"Ъ":{"ha":1056,"x_min":38,"x_max":1007,"o":"m 211 839 l 38 839 l 38 983 l 386 983 l 386 663 l 650 663 q 835 619 754 663 q 962 499 917 575 q 1007 332 1007 424 q 962 164 1007 240 q 835 44 917 88 q 650 0 754 0 l 211 0 l 211 839 m 622 151 q 773 202 714 151 q 832 332 832 253 q 773 463 832 411 q 622 514 714 514 l 389 514 l 389 151 l 622 151 z "},"Ы":{"ha":1354,"x_min":119,"x_max":1235,"o":"m 119 983 l 293 983 l 293 663 l 553 663 q 738 619 657 663 q 865 499 819 575 q 910 333 910 424 q 865 165 910 240 q 738 44 819 89 q 553 0 657 0 l 119 0 l 119 983 m 1060 983 l 1235 983 l 1235 0 l 1060 0 l 1060 983 m 525 151 q 676 202 617 151 q 735 332 735 253 q 676 463 735 411 q 525 514 617 514 l 293 514 l 293 151 l 525 151 z "},"Ь":{"ha":964,"x_min":119,"x_max":915,"o":"m 119 983 l 293 983 l 293 663 l 557 663 q 744 619 663 663 q 870 499 825 575 q 915 333 915 424 q 870 165 915 240 q 744 44 825 89 q 557 0 663 0 l 119 0 l 119 983 m 531 151 q 681 202 622 151 q 740 331 740 253 q 681 462 740 410 q 531 514 622 514 l 293 514 l 293 151 l 531 151 z "},"Э":{"ha":1143,"x_min":63,"x_max":1081,"o":"m 549 -32 q 317 17 422 -32 q 144 150 211 65 q 63 340 76 235 l 225 360 q 285 236 239 292 q 398 149 331 181 q 543 117 465 117 q 713 156 636 117 q 840 267 790 196 q 900 428 889 338 l 386 428 l 386 558 l 899 558 q 839 719 888 649 q 713 828 790 789 q 543 867 636 867 q 399 833 467 867 q 286 743 332 800 q 226 617 240 686 l 65 636 q 148 830 81 743 q 320 966 215 917 q 549 1015 425 1015 q 822 948 701 1015 q 1012 762 943 881 q 1081 492 1081 643 q 1012 222 1081 340 q 822 35 943 103 q 549 -32 701 -32 z "},"Ю":{"ha":1453,"x_min":119,"x_max":1390,"o":"m 907 -32 q 672 24 775 -32 q 505 183 568 79 q 429 425 442 286 l 293 425 l 293 0 l 119 0 l 119 983 l 293 983 l 293 561 l 429 561 q 503 803 440 700 q 671 963 567 907 q 907 1018 775 1018 q 1158 953 1049 1018 q 1329 769 1268 889 q 1390 492 1390 650 q 1329 215 1390 333 q 1159 32 1268 96 q 907 -32 1050 -32 m 907 119 q 1067 165 997 119 q 1176 295 1138 211 q 1215 492 1215 379 q 1176 690 1215 606 q 1067 821 1138 775 q 907 867 997 867 q 747 821 817 867 q 637 690 676 775 q 597 492 597 604 q 637 294 597 379 q 747 165 676 210 q 907 119 817 119 z "},"Я":{"ha":999,"x_min":35,"x_max":879,"o":"m 704 0 l 704 365 l 558 365 l 244 0 l 35 0 l 372 378 l 361 378 q 209 423 276 383 q 103 528 142 463 q 65 674 65 593 q 111 835 65 765 q 240 944 157 906 q 432 983 324 983 l 879 983 l 879 0 l 704 0 m 704 842 l 444 842 q 295 796 351 842 q 239 672 239 750 q 294 549 239 594 q 444 503 350 503 l 704 503 l 704 842 z "},"а":{"ha":781,"x_min":43,"x_max":699,"o":"m 294 -19 q 112 35 181 -19 q 43 183 43 90 q 126 344 43 281 q 367 425 208 407 l 542 444 l 542 472 q 500 571 542 535 q 383 607 458 607 q 272 574 314 607 q 232 482 231 540 l 76 482 q 160 664 76 596 q 385 732 244 732 q 614 660 529 732 q 699 468 699 589 l 699 0 l 542 0 l 542 96 l 529 96 q 294 -19 456 -19 m 333 96 q 483 147 425 96 q 542 276 542 197 l 542 332 l 369 313 q 240 270 282 303 q 197 192 197 238 q 233 122 197 147 q 333 96 269 96 z "},"ﬀ":{"ha":925,"x_min":61,"x_max":832,"o":"m 411 -25 q 230 23 310 -25 q 106 157 150 71 q 61 353 61 243 q 106 549 61 463 q 231 683 151 635 q 411 732 310 732 q 552 698 492 732 q 660 597 613 664 l 674 597 l 674 706 l 832 706 l 832 0 l 674 0 l 674 107 l 660 107 q 553 8 614 42 q 411 -25 492 -25 m 446 113 q 563 144 511 113 q 643 230 614 175 q 672 353 672 285 q 643 477 672 422 q 563 563 614 532 q 446 594 511 594 q 328 563 381 594 q 247 477 276 532 q 218 353 218 422 q 247 230 218 285 q 328 144 276 175 q 446 113 381 113 z "},"б":{"ha":856,"x_min":79,"x_max":796,"o":"m 439 -31 q 251 16 332 -31 q 124 147 169 63 q 79 343 79 232 q 115 719 79 586 q 234 909 150 851 q 472 969 318 967 q 589 988 554 972 q 624 1042 624 1004 l 760 1042 q 695 892 760 940 q 497 840 631 843 q 346 813 400 839 q 266 731 292 788 q 235 571 240 674 l 249 571 q 465 675 317 675 q 640 629 565 675 q 756 503 715 583 q 796 321 796 422 q 751 138 796 218 q 624 14 706 58 q 439 -31 543 -31 m 438 107 q 583 168 526 107 q 639 325 639 229 q 583 480 639 419 q 438 540 526 540 q 293 481 350 540 q 236 325 236 421 q 292 169 236 231 q 438 107 349 107 z "},"в":{"ha":763,"x_min":93,"x_max":715,"o":"m 93 706 l 463 706 q 627 656 563 706 q 692 528 692 606 q 661 433 692 475 q 586 376 631 392 l 586 363 q 680 309 644 350 q 715 204 715 268 q 647 57 715 114 q 472 0 579 0 l 93 0 l 93 706 m 438 425 q 511 449 482 425 q 540 506 540 472 q 511 563 540 539 q 438 588 482 588 l 246 588 l 246 425 l 438 425 m 438 118 q 522 147 489 118 q 556 217 556 175 q 522 283 556 257 q 438 308 489 308 l 246 308 l 246 118 l 438 118 z "},"г":{"ha":647,"x_min":93,"x_max":610,"o":"m 93 706 l 610 706 l 610 571 l 251 571 l 251 0 l 93 0 l 93 706 z "},"д":{"ha":944,"x_min":25,"x_max":896,"o":"m 25 135 l 117 135 q 179 222 158 161 q 213 394 200 283 l 249 706 l 779 706 l 779 135 l 896 135 l 896 -208 l 763 -208 l 763 0 l 160 0 l 160 -208 l 25 -208 l 25 135 m 621 135 l 621 571 l 382 571 l 353 331 q 328 222 346 263 q 274 149 310 182 l 274 135 l 621 135 z "},"е":{"ha":876,"x_min":61,"x_max":817,"o":"m 446 -25 q 247 24 335 -25 q 110 162 160 74 q 61 361 61 250 q 110 553 61 468 q 245 685 158 638 q 442 732 332 732 q 635 685 550 732 q 769 553 721 638 q 817 360 817 468 q 814 304 817 321 l 224 304 q 299 158 238 213 q 451 103 360 103 q 575 134 519 103 q 660 219 631 165 l 790 169 q 660 26 751 78 q 446 -25 568 -25 m 653 421 q 581 553 640 503 q 436 604 521 604 q 296 554 353 604 q 224 421 239 504 l 653 421 z "},"ё":{"ha":876,"x_min":61,"x_max":817,"o":"m 267 824 q 201 849 226 824 q 175 914 175 874 q 201 977 175 953 q 267 1001 226 1001 q 333 977 307 1001 q 358 914 358 953 q 333 849 358 874 q 267 824 307 824 m 614 824 q 548 849 574 824 q 522 914 522 875 q 548 977 522 953 q 614 1001 574 1001 q 680 977 654 1001 q 706 914 706 953 q 680 849 706 874 q 614 824 654 824 m 446 -25 q 247 24 335 -25 q 110 162 160 74 q 61 361 61 250 q 110 553 61 468 q 245 685 158 638 q 442 732 332 732 q 635 685 550 732 q 769 553 721 638 q 817 360 817 468 q 814 304 817 321 l 224 304 q 299 158 238 213 q 451 103 360 103 q 575 134 519 103 q 660 219 631 165 l 790 169 q 660 26 751 78 q 446 -25 568 -25 m 653 421 q 581 553 640 503 q 436 604 521 604 q 296 554 353 604 q 224 421 239 504 l 653 421 z "},"ж":{"ha":1042,"x_min":3,"x_max":1042,"o":"m 290 367 l 14 706 l 194 706 l 429 413 l 443 413 l 443 706 l 600 706 l 600 413 l 614 413 l 850 706 l 1029 706 l 753 367 l 1042 0 l 857 0 l 614 321 l 600 321 l 600 0 l 443 0 l 443 321 l 429 321 l 188 0 l 3 0 l 290 367 z "},"з":{"ha":733,"x_min":60,"x_max":686,"o":"m 388 -25 q 217 10 292 -25 q 101 106 143 44 q 60 247 60 168 l 213 247 q 260 143 213 183 q 383 103 308 103 q 489 133 449 103 q 529 213 529 164 q 494 281 529 257 q 401 304 458 304 l 293 304 l 293 422 l 403 422 q 485 446 453 422 q 517 507 517 469 q 476 577 517 550 q 375 604 436 604 q 263 571 306 604 q 221 485 221 538 l 74 485 q 113 613 74 557 q 221 701 151 669 q 379 732 290 732 q 526 705 461 732 q 629 630 592 678 q 667 519 667 582 q 637 427 667 464 q 553 375 607 390 l 553 361 q 650 303 614 347 q 686 196 686 260 q 648 81 686 131 q 542 3 610 31 q 388 -25 474 -25 z "},"и":{"ha":863,"x_min":93,"x_max":769,"o":"m 93 706 l 251 706 l 251 215 l 265 215 l 590 706 l 769 706 l 769 0 l 611 0 l 611 488 l 597 488 l 274 0 l 93 0 l 93 706 z "},"й":{"ha":863,"x_min":93,"x_max":769,"o":"m 426 831 q 285 885 340 831 q 231 1025 231 940 l 346 1025 q 367 955 346 982 q 426 928 389 928 q 485 955 464 928 q 506 1025 506 982 l 622 1025 q 567 885 622 940 q 426 831 511 831 m 93 706 l 251 706 l 251 215 l 265 215 l 590 706 l 769 706 l 769 0 l 611 0 l 611 488 l 597 488 l 274 0 l 93 0 l 93 706 z "},"к":{"ha":742,"x_min":94,"x_max":738,"o":"m 94 706 l 251 706 l 251 417 l 265 417 l 532 706 l 731 706 l 408 367 l 738 0 l 538 0 l 265 315 l 251 315 l 251 0 l 94 0 l 94 706 z "},"л":{"ha":810,"x_min":15,"x_max":715,"o":"m 15 125 q 91 145 64 125 q 131 206 118 165 q 154 318 144 246 l 201 706 l 715 706 l 715 0 l 558 0 l 558 571 l 339 571 l 290 226 q 15 0 258 0 l 15 125 z "},"м":{"ha":1096,"x_min":93,"x_max":1001,"o":"m 93 706 l 310 706 l 539 178 l 553 178 l 786 706 l 1001 706 l 1001 0 l 844 0 l 844 497 l 831 497 l 610 0 l 485 0 l 265 497 l 251 497 l 251 0 l 93 0 l 93 706 z "},"н":{"ha":853,"x_min":93,"x_max":760,"o":"m 93 706 l 251 706 l 251 424 l 603 424 l 603 706 l 760 706 l 760 0 l 603 0 l 603 289 l 251 289 l 251 0 l 93 0 l 93 706 z "},"о":{"ha":889,"x_min":60,"x_max":829,"o":"m 444 -25 q 244 22 332 -25 q 108 156 157 69 q 60 353 60 242 q 108 550 60 464 q 244 684 157 636 q 444 732 331 732 q 644 684 557 732 q 781 550 732 636 q 829 353 829 464 q 781 156 829 242 q 644 22 732 69 q 444 -25 557 -25 m 444 113 q 562 143 510 113 q 643 228 614 174 q 672 353 672 283 q 643 477 672 422 q 562 563 614 532 q 444 594 510 594 q 327 563 379 594 q 246 477 275 532 q 217 353 217 422 q 246 228 217 283 q 327 143 275 174 q 444 113 379 113 z "},"п":{"ha":864,"x_min":93,"x_max":769,"o":"m 93 706 l 769 706 l 769 0 l 613 0 l 613 571 l 251 571 l 251 0 l 93 0 l 93 706 z "},"р":{"ha":918,"x_min":93,"x_max":857,"o":"m 504 732 q 683 683 603 732 q 810 549 764 635 q 857 353 857 463 q 811 158 857 244 q 685 24 765 72 q 506 -25 604 -25 q 365 6 428 -25 q 265 93 303 36 l 251 93 l 251 -319 l 93 -319 l 93 706 l 251 706 l 251 610 l 265 610 q 364 701 303 669 q 504 732 425 732 m 472 594 q 355 563 407 594 q 274 476 303 531 q 244 353 244 421 q 274 231 244 286 q 355 144 303 176 q 472 113 407 113 q 589 144 538 113 q 669 231 640 176 q 699 353 699 286 q 669 476 699 421 q 588 563 640 531 q 472 594 536 594 z "},"с":{"ha":850,"x_min":61,"x_max":790,"o":"m 435 -25 q 242 23 328 -25 q 109 156 157 71 q 61 350 61 242 q 109 547 61 460 q 242 683 157 633 q 435 732 326 732 q 601 698 525 732 q 727 603 678 664 q 788 464 776 542 l 639 446 q 565 554 622 513 q 436 596 508 596 q 325 565 375 596 q 247 479 275 535 q 218 353 218 424 q 247 227 218 282 q 324 141 275 172 q 436 110 374 110 q 565 151 508 110 q 639 260 621 193 l 790 242 q 724 102 775 163 q 599 8 674 42 q 435 -25 524 -25 z "},"т":{"ha":699,"x_min":26,"x_max":674,"o":"m 272 571 l 26 571 l 26 706 l 674 706 l 674 571 l 429 571 l 429 0 l 272 0 l 272 571 z "},"у":{"ha":768,"x_min":13,"x_max":756,"o":"m 200 -315 q 135 -309 169 -315 q 72 -292 100 -303 l 74 -160 q 172 -181 126 -181 q 247 -156 218 -181 q 290 -103 276 -131 q 335 -3 304 -76 l 13 706 l 179 706 l 396 201 l 410 201 l 590 706 l 756 706 l 481 -18 q 408 -178 442 -117 q 323 -277 374 -239 q 200 -315 272 -315 z "},"ф":{"ha":1079,"x_min":60,"x_max":1019,"o":"m 464 -24 q 256 31 349 -19 q 112 167 164 82 q 60 356 60 251 q 112 542 60 458 q 256 675 164 625 q 464 729 349 725 l 464 1026 l 617 1026 l 617 729 q 823 674 731 725 q 967 540 915 624 q 1019 356 1019 457 q 967 167 1019 251 q 824 31 915 82 q 617 -24 732 -19 l 617 -321 l 464 -321 l 464 -24 m 464 596 q 339 560 396 593 q 249 474 282 528 q 217 356 217 419 q 249 234 217 289 q 339 146 282 179 q 464 110 396 113 l 464 596 m 617 111 q 741 147 685 114 q 830 235 797 181 q 863 356 863 290 q 830 472 863 418 q 741 560 797 526 q 617 596 685 593 l 617 111 z "},"х":{"ha":757,"x_min":14,"x_max":743,"o":"m 272 367 l 28 706 l 200 706 l 371 463 l 385 463 l 557 706 l 729 706 l 485 367 l 743 0 l 565 0 l 385 268 l 371 268 l 192 0 l 14 0 l 272 367 z "},"ц":{"ha":908,"x_min":93,"x_max":874,"o":"m 738 0 l 93 0 l 93 706 l 251 706 l 251 135 l 597 135 l 597 706 l 754 706 l 754 135 l 874 135 l 874 -208 l 738 -208 l 738 0 z "},"ч":{"ha":790,"x_min":53,"x_max":697,"o":"m 546 300 q 447 222 513 253 q 311 192 381 192 q 178 228 236 192 q 86 328 119 264 q 53 475 53 392 l 53 707 l 211 707 l 211 485 q 250 369 211 411 q 358 328 289 328 q 466 355 415 328 q 540 424 517 382 l 540 706 l 697 706 l 697 0 l 546 0 l 546 300 z "},"ш":{"ha":1182,"x_min":93,"x_max":1089,"o":"m 93 706 l 251 706 l 251 135 l 513 135 l 513 706 l 669 706 l 669 135 l 931 135 l 931 706 l 1089 706 l 1089 0 l 93 0 l 93 706 z "},"щ":{"ha":1244,"x_min":93,"x_max":1210,"o":"m 1075 0 l 93 0 l 93 706 l 251 706 l 251 135 l 513 135 l 513 706 l 669 706 l 669 135 l 931 135 l 931 706 l 1089 706 l 1089 135 l 1210 135 l 1210 -208 l 1075 -208 l 1075 0 z "},"ъ":{"ha":849,"x_min":13,"x_max":803,"o":"m 181 571 l 13 571 l 13 707 l 338 707 l 338 501 l 514 501 q 667 469 601 501 q 767 381 732 438 q 803 253 803 325 q 767 122 803 179 q 666 32 732 64 q 514 0 600 0 l 181 0 l 181 571 m 507 132 q 609 165 571 132 q 647 250 647 197 q 608 337 647 304 q 507 369 569 369 l 336 369 l 336 132 l 507 132 z "},"ы":{"ha":1017,"x_min":93,"x_max":924,"o":"m 93 706 l 251 706 l 251 501 l 392 501 q 544 469 479 501 q 644 381 610 438 q 679 253 679 325 q 644 122 679 179 q 543 32 608 64 q 392 0 478 0 l 93 0 l 93 706 m 767 706 l 924 706 l 924 0 l 767 0 l 767 706 m 382 132 q 485 165 446 132 q 524 250 524 197 q 485 337 524 304 q 382 369 446 369 l 249 369 l 249 132 l 382 132 z "},"ь":{"ha":764,"x_min":93,"x_max":717,"o":"m 93 706 l 251 706 l 251 501 l 429 501 q 582 469 517 501 q 682 381 647 438 q 717 253 717 325 q 681 122 717 179 q 581 32 646 64 q 429 0 515 0 l 93 0 l 93 706 m 419 132 q 522 165 483 132 q 560 250 560 197 q 522 337 560 304 q 419 369 483 369 l 251 369 l 251 132 l 419 132 z "},"э":{"ha":847,"x_min":60,"x_max":788,"o":"m 414 -28 q 253 6 328 -28 q 126 100 178 40 q 60 236 75 160 l 208 257 q 283 148 226 190 q 414 106 340 106 q 555 159 496 106 q 628 299 614 213 l 314 299 l 314 408 l 628 408 q 555 548 614 496 q 413 600 496 600 q 283 558 340 600 q 210 449 226 515 l 63 468 q 124 605 75 544 q 250 699 174 665 q 414 733 326 733 q 606 684 521 733 q 740 548 692 635 q 788 353 788 461 q 740 158 788 244 q 606 22 692 71 q 414 -28 521 -28 z "},"ю":{"ha":1121,"x_min":93,"x_max":1061,"o":"m 704 -29 q 469 57 563 -29 q 358 286 375 143 l 251 286 l 251 0 l 93 0 l 93 706 l 251 706 l 251 417 l 357 417 q 470 647 376 560 q 704 733 564 733 q 890 685 808 733 q 1016 549 971 636 q 1061 351 1061 463 q 1016 153 1061 240 q 890 19 971 67 q 704 -29 810 -29 m 704 111 q 852 176 799 111 q 906 351 906 240 q 851 528 906 461 q 704 594 797 594 q 555 528 610 594 q 500 351 500 461 q 555 176 500 240 q 704 111 610 111 z "},"я":{"ha":781,"x_min":57,"x_max":686,"o":"m 264 247 q 114 326 167 264 q 61 472 61 389 q 97 593 61 540 q 199 676 133 646 q 349 706 264 706 l 686 706 l 686 0 l 526 0 l 526 240 l 428 240 l 243 0 l 57 0 l 264 247 m 529 368 l 529 576 l 360 576 q 257 548 296 576 q 218 472 218 519 q 257 397 218 425 q 360 368 296 368 l 529 368 z "},"І":{"ha":414,"x_min":119,"x_max":294,"o":"m 119 983 l 294 983 l 294 0 l 119 0 l 119 983 z "},"і":{"ha":388,"x_min":92,"x_max":296,"o":"m 194 824 q 121 852 150 824 q 92 925 92 881 q 121 997 92 968 q 194 1025 150 1025 q 267 997 239 1025 q 296 925 296 969 q 267 852 296 881 q 194 824 239 824 m 115 706 l 274 706 l 274 0 l 115 0 l 115 706 z "},"Ї":{"ha":424,"x_min":-47,"x_max":474,"o":"m 47 1088 q -21 1114 6 1088 q -47 1182 -47 1140 q -21 1249 -47 1222 q 47 1275 6 1275 q 116 1249 89 1275 q 143 1182 143 1222 q 116 1114 143 1140 q 47 1088 89 1088 m 379 1088 q 310 1114 338 1088 q 283 1182 283 1140 q 310 1249 283 1222 q 379 1275 338 1275 q 447 1249 421 1275 q 474 1182 474 1222 q 447 1114 474 1140 q 379 1088 421 1088 m 125 983 l 300 983 l 300 0 l 125 0 l 125 983 z "},"ї":{"ha":347,"x_min":-92,"x_max":440,"o":"m 0 824 q -66 849 -40 824 q -92 914 -92 875 q -66 977 -92 953 q 0 1001 -40 1001 q 67 977 40 1001 q 93 914 93 953 q 67 849 93 875 q 0 824 40 824 m 349 824 q 283 849 308 824 q 257 914 257 874 q 283 977 257 953 q 349 1001 308 1001 q 415 977 389 1001 q 440 914 440 953 q 415 849 440 875 q 349 824 389 824 m 94 706 l 251 706 l 251 0 l 94 0 l 94 706 z "},"Ј":{"ha":671,"x_min":51,"x_max":553,"o":"m 239 -25 q 144 -17 196 -25 q 51 3 92 -10 l 51 143 q 196 121 135 121 q 327 174 276 121 q 378 313 378 226 l 378 983 l 553 983 l 553 304 q 513 133 553 208 q 401 17 472 58 q 239 -25 329 -25 z "},"ј":{"ha":379,"x_min":-85,"x_max":288,"o":"m 185 824 q 111 852 140 824 q 82 925 82 881 q 111 997 82 968 q 185 1025 140 1025 q 258 997 229 1025 q 288 925 288 968 q 258 852 288 881 q 185 824 229 824 m 53 -317 q -85 -297 -29 -317 l -85 -168 q 4 -179 -50 -179 q 79 -150 51 -179 q 107 -72 107 -121 l 107 706 l 264 706 l 264 -79 q 205 -250 264 -183 q 53 -317 146 -317 z "},"Є":{"ha":1143,"x_min":63,"x_max":1081,"o":"m 593 -32 q 319 35 440 -32 q 131 222 199 103 q 63 492 63 340 q 131 762 63 643 q 319 948 199 881 q 593 1015 440 1015 q 823 966 718 1015 q 995 830 928 917 q 1078 636 1063 743 l 915 617 q 856 743 901 686 q 742 833 810 800 q 599 867 675 867 q 429 828 506 867 q 304 719 353 789 q 243 558 256 649 l 756 558 l 756 428 l 243 428 q 303 267 254 338 q 428 156 351 196 q 599 117 506 117 q 744 149 676 117 q 858 236 813 181 q 917 360 903 292 l 1081 340 q 999 150 1067 235 q 825 17 931 65 q 593 -32 719 -32 z "},"є":{"ha":847,"x_min":60,"x_max":788,"o":"m 433 -28 q 241 22 326 -28 q 108 158 156 71 q 60 353 60 244 q 108 548 60 461 q 242 684 157 635 q 433 733 326 733 q 598 699 522 733 q 724 605 674 665 q 786 468 774 544 l 639 449 q 565 558 622 515 q 435 600 507 600 q 292 548 351 600 q 219 408 233 496 l 533 408 l 533 299 l 221 299 q 292 159 233 213 q 433 106 351 106 q 564 148 507 106 q 640 257 621 190 l 788 236 q 721 100 772 160 q 594 6 669 40 q 433 -28 519 -28 z "},"Ґ":{"ha":886,"x_min":119,"x_max":847,"o":"m 119 983 l 700 983 l 700 1150 l 847 1150 l 847 844 l 293 844 l 293 0 l 119 0 l 119 983 z "},"ґ":{"ha":622,"x_min":93,"x_max":610,"o":"m 93 706 l 475 706 l 475 825 l 610 825 l 610 571 l 251 571 l 251 0 l 93 0 l 93 706 z "},"Ѓ":{"ha":838,"x_min":119,"x_max":799,"o":"m 494 1257 l 668 1257 l 501 1093 l 343 1093 l 494 1257 m 119 983 l 799 983 l 799 835 l 293 835 l 293 0 l 119 0 l 119 983 z "},"ѓ":{"ha":622,"x_min":93,"x_max":611,"o":"m 408 1025 l 571 1025 l 401 819 l 258 819 l 408 1025 m 93 706 l 611 706 l 611 571 l 251 571 l 251 0 l 93 0 l 93 706 z "},"Ѕ":{"ha":965,"x_min":69,"x_max":896,"o":"m 496 -31 q 269 13 365 -31 q 122 135 174 56 q 69 322 69 215 l 239 322 q 308 167 239 224 q 500 111 376 111 q 663 151 606 111 q 721 264 721 192 q 688 349 721 318 q 605 394 656 381 q 469 422 554 408 q 274 465 354 440 q 138 550 194 490 q 82 714 82 610 q 128 872 82 804 q 261 978 174 940 q 469 1015 349 1015 q 683 974 592 1015 q 822 857 774 933 q 871 678 871 781 l 707 678 q 645 822 707 771 q 472 874 583 874 q 313 833 369 874 q 257 725 257 793 q 290 642 257 672 q 375 599 324 613 q 513 571 426 585 q 708 527 629 553 q 841 442 786 501 q 896 276 896 382 q 790 51 896 133 q 496 -31 683 -31 z "},"ѕ":{"ha":769,"x_min":67,"x_max":703,"o":"m 394 -26 q 153 44 239 -26 q 67 239 67 114 l 211 239 q 263 131 213 171 q 400 90 313 90 q 510 118 469 90 q 551 193 551 146 q 528 249 551 229 q 469 276 504 268 q 371 290 435 283 q 225 317 288 299 q 120 379 163 335 q 78 503 78 424 q 159 672 78 610 q 375 733 240 733 q 535 704 465 733 q 645 620 606 675 q 685 493 685 565 l 536 493 q 492 582 536 549 q 375 615 447 615 q 266 587 308 615 q 224 513 224 558 q 249 459 224 476 q 306 435 274 442 q 417 419 338 429 q 624 360 544 404 q 703 201 703 315 q 622 33 703 93 q 394 -26 540 -26 z "},"Љ":{"ha":1593,"x_min":40,"x_max":1544,"o":"m 40 147 q 188 201 142 147 q 246 388 235 256 l 299 983 l 958 983 l 958 607 l 1210 607 q 1383 568 1307 607 q 1502 461 1460 529 q 1544 307 1544 393 q 1502 149 1544 218 q 1383 40 1460 79 q 1210 0 1307 0 l 783 0 l 783 838 l 458 838 l 411 331 q 303 83 397 167 q 40 0 208 0 l 40 147 m 1183 151 q 1317 194 1264 151 q 1369 303 1369 238 q 1317 414 1369 371 q 1183 457 1265 457 l 960 457 l 960 151 l 1183 151 z "},"љ":{"ha":1146,"x_min":15,"x_max":1100,"o":"m 15 125 q 91 145 64 125 q 131 206 118 165 q 154 318 144 246 l 201 706 l 681 706 l 681 439 l 844 439 q 978 410 919 439 q 1068 331 1036 381 q 1100 219 1100 281 q 1068 108 1100 158 q 978 29 1036 58 q 844 0 919 0 l 522 0 l 522 578 l 339 578 l 290 226 q 15 0 260 0 l 15 125 m 835 132 q 913 156 882 132 q 943 218 943 181 q 913 281 943 257 q 835 306 882 306 l 681 306 l 681 132 l 835 132 z "},"Њ":{"ha":1497,"x_min":119,"x_max":1449,"o":"m 119 983 l 293 983 l 293 588 l 688 588 l 688 983 l 863 983 l 863 607 l 1114 607 q 1288 568 1211 607 q 1406 461 1364 529 q 1449 307 1449 393 q 1406 149 1449 218 q 1288 40 1364 79 q 1114 0 1211 0 l 688 0 l 688 440 l 293 440 l 293 0 l 119 0 l 119 983 m 1088 151 q 1221 194 1168 151 q 1274 303 1274 238 q 1222 414 1274 371 q 1088 457 1169 457 l 863 457 l 863 151 l 1088 151 z "},"њ":{"ha":1131,"x_min":93,"x_max":1085,"o":"m 93 706 l 251 706 l 251 425 l 508 425 l 508 706 l 665 706 l 665 439 l 829 439 q 963 410 904 439 q 1053 331 1021 381 q 1085 219 1085 281 q 1053 108 1085 158 q 963 29 1021 58 q 829 0 904 0 l 508 0 l 508 290 l 251 290 l 251 0 l 93 0 l 93 706 m 819 132 q 898 156 867 132 q 929 218 929 181 q 899 281 929 257 q 819 306 868 306 l 665 306 l 665 132 l 819 132 z "},"Ќ":{"ha":919,"x_min":119,"x_max":896,"o":"m 575 1257 l 749 1257 l 582 1093 l 424 1093 l 575 1257 m 119 983 l 294 983 l 294 567 l 308 567 l 672 983 l 885 983 l 458 508 l 896 0 l 683 0 l 308 447 l 294 447 l 294 0 l 119 0 l 119 983 z "},"ќ":{"ha":736,"x_min":93,"x_max":736,"o":"m 457 1025 l 618 1025 l 449 819 l 307 819 l 457 1025 m 93 706 l 251 706 l 251 417 l 265 417 l 531 706 l 729 706 l 407 367 l 736 0 l 536 0 l 265 315 l 251 315 l 251 0 l 93 0 l 93 706 z "},"Ћ":{"ha":974,"x_min":13,"x_max":893,"o":"m 139 856 l 13 856 l 13 983 l 428 983 l 428 856 l 296 856 l 296 594 l 310 594 q 413 698 343 664 q 564 732 483 732 q 805 640 717 732 q 893 386 893 549 l 893 3 l 736 3 l 736 371 q 681 537 736 479 q 528 594 626 594 q 362 532 428 594 q 296 358 296 469 l 296 0 l 139 0 l 139 856 z "},"ћ":{"ha":840,"x_min":-33,"x_max":760,"o":"m 93 806 l -33 806 l -33 933 l 93 933 l 93 1025 l 251 1025 l 251 933 l 429 933 l 429 806 l 251 806 l 251 610 l 265 610 q 356 693 301 664 q 475 722 410 722 q 624 684 560 722 q 724 578 689 646 q 760 422 760 510 l 760 0 l 603 0 l 603 406 q 559 533 603 485 q 439 582 515 582 q 344 558 388 582 q 276 490 301 533 q 251 393 251 447 l 251 0 l 93 0 l 93 806 z "},"Ђ":{"ha":974,"x_min":13,"x_max":893,"o":"m 594 -22 q 478 -8 533 -22 l 478 121 q 560 113 518 113 q 689 158 642 113 q 736 293 736 203 l 736 371 q 681 537 736 479 q 528 594 626 594 q 362 532 428 594 q 296 358 296 469 l 296 0 l 139 0 l 139 856 l 13 856 l 13 983 l 428 983 l 428 856 l 296 856 l 296 594 l 310 594 q 413 698 343 664 q 564 732 483 732 q 805 640 717 732 q 893 386 893 549 l 893 282 q 812 58 893 139 q 594 -22 731 -22 z "},"ђ":{"ha":840,"x_min":-33,"x_max":760,"o":"m 464 -215 q 336 -199 397 -215 l 336 -74 q 422 -83 382 -83 q 554 -36 506 -83 q 603 100 603 11 l 603 403 q 559 531 603 482 q 439 579 515 579 q 344 555 388 579 q 276 488 301 531 q 251 390 251 444 l 251 0 l 93 0 l 93 806 l -33 806 l -33 933 l 93 933 l 93 1025 l 251 1025 l 251 933 l 429 933 l 429 806 l 251 806 l 251 607 l 265 607 q 356 690 301 661 q 475 719 410 719 q 624 681 560 719 q 724 575 689 643 q 760 419 760 507 l 760 90 q 680 -135 760 -54 q 464 -215 600 -215 z "},"Ў":{"ha":978,"x_min":42,"x_max":943,"o":"m 499 1079 q 340 1129 403 1079 q 278 1257 278 1179 l 413 1257 q 435 1199 413 1219 q 499 1178 458 1178 q 563 1199 539 1178 q 586 1257 586 1219 l 719 1257 q 658 1129 719 1179 q 499 1079 596 1079 m 238 -25 q 154 -20 194 -25 q 93 -6 114 -15 l 93 138 q 144 124 115 129 q 200 119 174 119 q 314 156 265 119 q 411 293 363 192 l 426 328 l 42 983 l 231 983 l 508 501 l 522 501 l 753 983 l 943 983 l 593 275 q 484 92 535 156 q 376 1 433 28 q 238 -25 319 -25 z "},"ў":{"ha":768,"x_min":13,"x_max":756,"o":"m 401 831 q 261 885 317 831 q 206 1025 206 940 l 322 1025 q 343 955 322 982 q 401 928 364 928 q 460 955 439 928 q 482 1025 482 982 l 597 1025 q 542 885 597 940 q 401 831 486 831 m 200 -315 q 135 -309 169 -315 q 72 -292 100 -303 l 74 -160 q 172 -181 126 -181 q 247 -156 218 -181 q 290 -103 276 -131 q 335 -3 304 -76 l 13 706 l 179 706 l 396 201 l 410 201 l 590 706 l 756 706 l 481 -18 q 408 -178 442 -117 q 323 -277 374 -239 q 200 -315 272 -315 z "},"Џ":{"ha":1063,"x_min":119,"x_max":943,"o":"m 450 0 l 119 0 l 119 983 l 294 983 l 294 147 l 768 147 l 768 983 l 943 983 l 943 0 l 611 0 l 611 -208 l 450 -208 l 450 0 z "},"џ":{"ha":865,"x_min":93,"x_max":772,"o":"m 360 0 l 93 0 l 93 706 l 251 706 l 251 135 l 615 135 l 615 706 l 772 706 l 772 0 l 506 0 l 506 -208 l 360 -208 l 360 0 z "},"←":{"ha":869,"x_min":60,"x_max":810,"o":"m 60 351 l 326 633 l 499 633 l 283 418 l 283 413 l 810 413 l 810 290 l 283 290 l 283 285 l 499 69 l 326 69 l 60 351 z "},"↑":{"ha":683,"x_min":60,"x_max":624,"o":"m 281 528 l 275 528 l 60 313 l 60 485 l 342 751 l 624 485 l 624 313 l 408 528 l 403 528 l 403 0 l 281 0 l 281 528 z "},"→":{"ha":869,"x_min":60,"x_max":810,"o":"m 588 285 l 588 290 l 60 290 l 60 413 l 588 413 l 588 418 l 371 633 l 543 633 l 810 351 l 543 69 l 371 69 l 588 285 z "},"↓":{"ha":683,"x_min":60,"x_max":624,"o":"m 60 267 l 60 439 l 275 222 l 281 222 l 281 751 l 403 751 l 403 222 l 408 222 l 624 439 l 624 267 l 342 0 l 60 267 z "},"↙":{"ha":706,"x_min":60,"x_max":646,"o":"m 71 110 l 60 497 l 182 621 l 181 314 l 185 311 l 558 685 l 646 597 l 272 224 l 276 219 l 582 221 l 458 99 l 71 110 z "},"↘":{"ha":706,"x_min":60,"x_max":646,"o":"m 124 221 l 429 219 l 433 224 l 60 597 l 147 685 l 521 311 l 525 314 l 524 621 l 646 497 l 635 110 l 247 99 l 124 221 z "},"↖":{"ha":706,"x_min":60,"x_max":646,"o":"m 185 440 l 181 436 l 182 131 l 60 254 l 71 642 l 458 653 l 582 531 l 276 532 l 272 528 l 646 154 l 558 67 l 185 440 z "},"↗":{"ha":706,"x_min":60,"x_max":646,"o":"m 60 154 l 433 528 l 429 532 l 124 531 l 247 653 l 635 642 l 646 254 l 524 131 l 525 436 l 521 440 l 147 67 l 60 154 z "}}}
